<svg width="174" height="131" fill="none" xmlns="http://www.w3.org/2000/svg"><g filter="url(#filter0_di_184_269)"><path d="M36.4 39.636L10.014 67.78l26.384-22.204L59.117 67.78h9.496L36.4 39.636z" fill="#fff"/><path d="M36.4 39.636L10.014 67.78l26.384-22.204L59.117 67.78h9.496L36.4 39.636z" stroke="#000" stroke-width=".317"/></g><g filter="url(#filter1_di_184_269)"><path d="M118.618 33.086L77.69 67.78l3.606 3.608 37.322-30.53 29.51 37.747 25.122-4.052-16.347-1.277-38.285-40.19z" fill="#fff"/><path d="M118.618 33.086L77.69 67.78l3.606 3.608 37.322-30.53 29.51 37.747 25.122-4.052-16.347-1.277-38.285-40.19z" stroke="#000" stroke-width=".317"/></g><g filter="url(#filter2_di_184_269)"><path d="M70.898 1.312C60.945-2.197 20.152 24.792 1 38.726c7.433 0 21.684-.866 19.232-4.33-3.065-4.33 47.961-29.032 50.666-29.31 2.704-.277 36.782 23.648 38.825 22.094 1.635-1.244 10.578-2.184 14.845-2.498 13.262 6.236 39.787 18.34 39.787 16.875 0-1.832-37.082-16.875-39.787-19.65-2.164-2.221-12.161.924-16.888 2.775-8.114-6.328-26.83-19.862-36.782-23.37z" fill="#fff"/><path d="M70.898 1.312C60.945-2.197 20.152 24.792 1 38.726c7.433 0 21.684-.866 19.232-4.33-3.065-4.33 47.961-29.032 50.666-29.31 2.704-.277 36.782 23.648 38.825 22.094 1.635-1.244 10.578-2.184 14.845-2.498 13.262 6.236 39.787 18.34 39.787 16.875 0-1.832-37.082-16.875-39.787-19.65-2.164-2.221-12.161.924-16.888 2.775-8.114-6.328-26.83-19.862-36.782-23.37z" stroke="#000" stroke-width=".317"/></g><g filter="url(#filter3_di_184_269)"><path fill="#fff" d="M30.69 51.96h3.967v3.442H30.69z"/><path stroke="#000" stroke-width=".317" d="M30.849 52.118h3.65v3.125h-3.65z"/></g><g filter="url(#filter4_di_184_269)"><path fill="#fff" d="M37.542 51.96h3.967v3.442h-3.967z"/><path stroke="#000" stroke-width=".317" d="M37.7 52.118h3.65v3.125H37.7z"/></g><g filter="url(#filter5_di_184_269)"><path fill="#fff" d="M30.69 57.178h3.967v3.442H30.69z"/><path stroke="#000" stroke-width=".317" d="M30.849 57.336h3.65v3.125h-3.65z"/></g><g filter="url(#filter6_di_184_269)"><path fill="#fff" d="M37.542 57.178h3.967v3.442h-3.967z"/><path stroke="#000" stroke-width=".317" d="M37.7 57.336h3.65v3.125H37.7z"/></g><g filter="url(#filter7_di_184_269)"><path fill="#fff" d="M106.898 55.401h7.268v6.329h-7.268z"/><path stroke="#000" stroke-width=".317" d="M107.057 55.56h6.951v6.012h-6.951z"/></g><g filter="url(#filter8_di_184_269)"><path fill="#fff" d="M118.317 55.401h7.268v6.329h-7.268z"/><path stroke="#000" stroke-width=".317" d="M118.476 55.56h6.951v6.012h-6.951z"/></g><g filter="url(#filter9_di_184_269)"><path fill="#fff" d="M106.898 64.948h7.268v6.329h-7.268z"/><path stroke="#000" stroke-width=".317" d="M107.057 65.107h6.951v6.012h-6.951z"/></g><g filter="url(#filter10_di_184_269)"><path fill="#fff" d="M118.317 64.616h7.268v6.329h-7.268z"/><path stroke="#000" stroke-width=".317" d="M118.476 64.775h6.951v6.012h-6.951z"/></g><g filter="url(#filter11_d_184_269)"><path d="M10.716 109.123c.073-.01.492-.016 1.256-.016 1.307 0 2.27-.099 2.887-.298.628-.198 1.078-.382 1.35-.549-.387.293-.743.565-1.068.816-.7.544-1.265.936-1.694 1.177a6.612 6.612 0 01-1.256.565 8.62 8.62 0 01-1.287.282c-.648.095-1.532.142-2.652.142H7.64l.032-.032c0-.01.073-.094.22-.251.135-.157.34-.382.611-.675.272-.303.633-.753 1.083-1.349.45-.596.937-1.365 1.46-2.307a39.188 39.188 0 001.475-2.872c.46-.983.9-1.977 1.318-2.981.418-1.005.847-2.01 1.287-3.013.45-1.015.905-2.035 1.365-3.06.46-1.036.806-1.847 1.036-2.433.24-.586.376-.952.408-1.098a1.06 1.06 0 01.188-.377H16.93c-1.945 0-3.457.22-4.535.66 1.444-1.256 2.652-2.046 3.625-2.37.89-.283 2.333-.424 4.331-.424h.832c.45 1.496.9 3.013 1.35 4.55l1.38 4.614c1.005 3.348 1.758 5.775 2.26 7.282.513 1.506.811 2.406.895 2.699.094.282.21.539.345.769.304.502.79.753 1.46.753.366 0 .748-.084 1.145-.251.408-.167.722-.319.942-.455-.377.282-.712.539-1.005.769-.753.575-1.234.931-1.443 1.067l-.628.377c-.21.125-.429.24-.66.345-1.464.649-2.452.403-2.965-.738-.366-.805-.806-2.092-1.318-3.86-.513-1.779-.968-3.29-1.365-4.535-.88.627-2.794.92-5.744.879h-.973c-1.182 2.364-2.333 4.169-3.453 5.414a8.746 8.746 0 00-.282.329c-.272.314-.408.466-.408.455zm5.367-8.38l3.107.063c.649 0 1.308-.021 1.977-.063a690.388 690.388 0 01-2.15-7.014 435.434 435.434 0 01-3.154 7.061c.126-.031.2-.047.22-.047zM38.037 88.66l3.107-.016c1.758 0 3.06.256 3.908.769 1.109.66 1.663 1.794 1.663 3.405 0 1.507-.868 2.893-2.605 4.159-.48.345-.946.675-1.396.989 2.521.282 4.19 1.318 5.006 3.107.293.627.44 1.302.44 2.024 0 .712-.137 1.355-.409 1.93a7.222 7.222 0 01-1.067 1.664c-.44.523-.947 1.02-1.522 1.491-.565.47-1.151.894-1.758 1.271-1.674 1.015-3.144 1.574-4.41 1.679a29.9 29.9 0 01-2.385.11h-3.53c.46-.649.737-1.12.831-1.413.147-.439.22-1.046.22-1.82V90.794h-3.453c1.664-1.423 2.679-2.134 3.045-2.134h4.315zm-.863 9.321c.66-.02 1.48-.031 2.464-.031.983-.01 1.695 0 2.134.031 1.046-.324 1.658-.947 1.836-1.867.053-.325.079-.69.079-1.099 0-2.887-1.805-4.33-5.414-4.33-.377 0-.743.01-1.099.03v7.266zm0 7.815a5.844 5.844 0 01-1.004 3.311h4.378c1.224 0 2.13-.167 2.715-.502.586-.345 1.03-.758 1.334-1.239.303-.492.455-1.141.455-1.946 0-.806-.11-1.496-.33-2.072a4.343 4.343 0 00-.894-1.459 4.365 4.365 0 00-1.334-.957 7.628 7.628 0 00-1.648-.55c-.952-.219-2.176-.329-3.672-.329v5.743zm13.308-15.002c1.736-1.423 2.751-2.134 3.044-2.134h12.962c-.115.01-.455.261-1.02.753-.565.481-.999.832-1.302 1.051-.293.22-.534.33-.722.33h-6.968v7.611h7.611c-.115.01-.303.13-.565.36-.261.22-.549.461-.863.723-.826.701-1.37 1.051-1.632 1.051h-4.55v5.116c0 1.161-.179 2.113-.534 2.856-.136.293-.314.492-.534.596h8.725c.597 0 1.214-.136 1.852-.408l.973-.408c-.534.639-1.674 1.423-3.42 2.354-.754.398-1.262.597-1.523.597H52.004c.941-1.277 1.412-2.527 1.412-3.751v-6.952H51.22a68.23 68.23 0 012.197-1.71v-8.035h-2.934zm42.449 18.313c-.126.011-.466.262-1.02.754-1.078.92-1.758 1.381-2.04 1.381h-5.305c.555-.618.905-1.109 1.052-1.475.23-.586.345-1.345.345-2.276v-6.952H74.288v4.614c0 .994-.047 1.669-.142 2.024-.146.544-.476 1.188-.988 1.93h5.037c-.146.021-.47.252-.973.691-.502.439-.858.738-1.067.894-.47.367-.81.55-1.02.55h-5.32c.774-.607 1.224-1.439 1.35-2.495a11.2 11.2 0 00.063-1.256V90.794h-2.935l.612-.486c1.329-1.099 2.14-1.648 2.432-1.648h6.858c-.125 0-.444.225-.957.675-.513.45-.874.753-1.083.91-.47.366-.81.549-1.02.549h-.847v7.611h11.675v-7.611H83.03l.596-.486c1.339-1.099 2.16-1.648 2.464-1.648h6.842c-.126 0-.445.225-.958.675-.512.45-.868.753-1.067.91-.48.366-.826.549-1.035.549h-.848v14.359c0 .994-.047 1.669-.141 2.024-.147.565-.47 1.209-.973 1.93h5.022zm19.977-20.761c.763.188 1.245.33 1.443.424.21.094.314.188.314.282 0 .084-.083.204-.251.361a9.732 9.732 0 01-.628.534c-.251.188-.528.392-.831.612-.304.22-.591.418-.863.596-.649.429-1.036.664-1.162.706.011-.042.089-.12.236-.235.272-.22.408-.356.408-.408a.153.153 0 00-.079-.142.394.394 0 00-.157-.094 1.045 1.045 0 00-.157-.078 39.328 39.328 0 00-.596-.22c-.826-.324-2.014-.486-3.562-.486-1.549 0-2.888.183-4.018.549-1.119.356-2.071.9-2.856 1.632-1.621 1.517-2.432 3.724-2.432 6.622 0 2.94.806 5.425 2.417 7.454 1.736 2.176 4.017 3.264 6.842 3.264 1.872 0 4.169-.596 6.889-1.788l-.235.204a3.403 3.403 0 01-.393.36c-3.044 2.281-6.198 3.421-9.463 3.421-2.814 0-5.063-1.061-6.748-3.185-1.558-1.977-2.338-4.431-2.338-7.36 0-1.507.22-2.778.66-3.813a14.26 14.26 0 011.569-2.794 15.331 15.331 0 012.024-2.26 17.038 17.038 0 012.464-1.851 18.09 18.09 0 012.762-1.413c1.956-.795 3.928-1.192 5.916-1.192 1.119 0 2.061.1 2.825.298zm4.77 20.777c.073-.01.492-.016 1.256-.016 1.307 0 2.27-.099 2.887-.298.628-.198 1.078-.382 1.35-.549-.387.293-.743.565-1.067.816-.701.544-1.266.936-1.695 1.177a6.617 6.617 0 01-1.256.565c-.418.126-.847.22-1.286.282-.649.095-1.533.142-2.653.142h-.612l.032-.032c0-.01.073-.094.22-.251.136-.157.34-.382.612-.675.272-.303.633-.753 1.082-1.349.45-.596.937-1.365 1.46-2.307a39.504 39.504 0 001.475-2.872c.46-.983.9-1.977 1.318-2.981.419-1.005.848-2.01 1.287-3.013.45-1.015.905-2.035 1.365-3.06a62.932 62.932 0 001.036-2.433c.241-.586.377-.952.408-1.098.042-.147.105-.272.188-.377h-1.192c-1.946 0-3.458.22-4.536.66 1.444-1.256 2.652-2.046 3.625-2.37.89-.283 2.333-.424 4.332-.424h.831c.45 1.496.9 3.013 1.35 4.55l1.381 4.614c1.004 3.348 1.757 5.775 2.26 7.282.512 1.506.81 2.406.894 2.699.094.282.209.539.345.769.304.502.79.753 1.46.753.366 0 .748-.084 1.145-.251.408-.167.722-.319.942-.455-.377.282-.711.539-1.004.769-.754.575-1.235.931-1.444 1.067l-.628.377c-.209.125-.429.24-.659.345-1.465.649-2.453.403-2.966-.738-.366-.805-.805-2.092-1.318-3.86-.513-1.779-.968-3.29-1.365-4.535-.879.627-2.794.92-5.744.879h-.973c-1.182 2.364-2.333 4.169-3.452 5.414a8.751 8.751 0 00-.283.329c-.272.314-.408.466-.408.455zm5.367-8.38l3.107.063c.649 0 1.308-.021 1.978-.063a671.976 671.976 0 01-2.15-7.014 429.453 429.453 0 01-3.155 7.061c.126-.031.199-.047.22-.047z" fill="#fff"/><path d="M10.716 109.123l-.045-.313-.272.039v.274h.317zm4.143-.314l-.096-.302-.001.001.097.301zm1.35-.549l.19.253-.356-.523.166.27zm-1.068.816l-.193-.25.193.25zm-1.694 1.177l-.155-.276-.003.002.158.274zm-1.256.565l.091.303.007-.002-.098-.301zm-1.287.282l-.044-.313h-.001l.045.313zm-3.264.142l-.224-.224-.54.54h.764v-.316zm.032-.032l.224.224.092-.093v-.131h-.316zm.22-.251l.231.216.008-.008-.24-.208zm.611-.675l.232.216.004-.004-.236-.212zm2.543-3.656l-.276-.156-.001.002.277.154zm1.475-2.872l-.287-.134v.001l.287.133zm2.605-5.994l-.29-.129v.002l.29.127zm1.365-3.06l.289.13v-.002l-.289-.129zm1.036-2.433l-.293-.12-.002.004.295.116zm.408-1.098l-.305-.087-.003.01-.002.01.31.067zm.188-.377l.247.198.412-.515h-.659v.317zm-5.728.66l-.208-.24.328.532-.12-.293zm3.625-2.37l-.096-.302-.004.001.1.3zm5.163-.424l.303-.091-.067-.226h-.236v.317zm1.35 4.55l-.304.09v.002l.304-.091zm1.38 4.614l-.303.091.304-.09zm2.26 7.282l-.3.1v.002l.3-.102zm.895 2.699l-.305.087.005.013.3-.1zm.345.769l-.272.161.001.003.271-.164zm2.605.502l-.12-.293-.003.001.123.292zm.942-.455l.19.253-.357-.522.167.269zm-1.005.769l.193.252.003-.003-.196-.249zm-1.443 1.067l.163.272.01-.006-.173-.266zm-1.287.722l.128.289.003-.001-.131-.288zm-2.966-.738l.289-.129v-.002l-.289.131zm-1.318-3.86l-.304.088.304-.088zm-1.365-4.535l.301-.097-.132-.413-.354.252.185.258zm-5.744.879l.004-.317h-.004v.317zm-.973 0v-.317h-.196l-.087.175.283.142zm-3.453 5.414l.236.211-.236-.211zm-.282.329l.24.208.005-.007-.245-.201zm4.959-7.925l.006-.316h-.006v.316zm3.107.063l-.006.317h.006v-.317zm1.977-.063l.02.316.404-.025-.122-.386-.302.095zm-2.15-7.014l.304-.092-.25-.824-.344.789.29.126zm-3.154 7.061l-.288-.131-.273.598.638-.16-.077-.307zm-5.102 8.647a9.995 9.995 0 01.328-.009c.207-.003.501-.004.883-.004v-.633c-.383 0-.68.001-.891.004a4.416 4.416 0 00-.41.015l.09.627zm1.21-.013c1.315 0 2.319-.099 2.985-.313l-.194-.603c-.568.183-1.49.283-2.79.283v.633zm2.984-.313c.632-.2 1.113-.392 1.42-.581l-.332-.54c-.238.146-.656.32-1.28.517l.192.604zm1.062-1.103c-.387.293-.744.566-1.07.818l.388.5c.323-.25.678-.521 1.065-.813l-.383-.505zm-1.07.818c-.696.541-1.247.922-1.655 1.151l.31.552c.449-.252 1.028-.655 1.734-1.203l-.389-.5zm-1.658 1.153c-.402.23-.8.409-1.196.538l.196.602c.441-.143.88-.341 1.316-.591l-.316-.549zm-1.189.536a8.535 8.535 0 01-1.24.272l.09.627a9.15 9.15 0 001.332-.293l-.182-.606zm-1.241.272c-.627.091-1.493.138-2.607.138v.633c1.126 0 2.027-.047 2.698-.144l-.091-.627zm-2.607.138H7.64v.633h.612v-.633zm-.388.541l.002-.002.002-.002.002-.002.002-.002.001-.001.001-.001.001-.001v-.001l.002-.001v-.001l.002-.001v-.001l.017-.016-.448-.448v.001h-.001v.001h-.001v.001h-.001v.001h-.001v.001h-.001l-.001.001-.001.001-.001.001-.001.001-.001.001-.001.001-.001.001-.001.001-.001.001-.001.001v.001l-.017.016.448.448zm.124-.256a.309.309 0 01-.029.131.158.158 0 01-.024.042l.03-.035c.033-.038.085-.095.158-.173l-.463-.432a7.77 7.77 0 00-.172.188l-.053.063a.547.547 0 00-.027.039c-.005.008-.014.022-.022.041a.317.317 0 00-.031.136h.633zm.143-.043c.132-.153.333-.375.604-.667l-.464-.431c-.272.294-.48.522-.619.683l.479.415zm.608-.671c.281-.314.648-.772 1.1-1.37l-.506-.382a21.5 21.5 0 01-1.065 1.329l.471.423zm1.1-1.37c.462-.612.956-1.395 1.483-2.344l-.553-.308c-.519.934-.998 1.689-1.436 2.27l.506.382zm1.482-2.342a39.46 39.46 0 001.487-2.895l-.575-.266a38.835 38.835 0 01-1.463 2.849l.551.312zm1.486-2.894c.463-.987.904-1.985 1.324-2.994l-.584-.243c-.417 1-.855 1.99-1.313 2.969l.573.268zm1.324-2.994c.418-1.002.846-2.005 1.285-3.008l-.58-.253c-.44 1.006-.87 2.012-1.29 3.018l.585.243zm1.284-3.006c.45-1.014.905-2.034 1.365-3.059l-.578-.26c-.46 1.026-.916 2.047-1.366 3.062l.58.257zm1.365-3.06a64.527 64.527 0 001.041-2.445l-.589-.232c-.228.58-.57 1.386-1.03 2.42l.578.257zm1.04-2.44c.236-.576.386-.972.424-1.153l-.619-.133c-.024.112-.146.448-.391 1.045l.586.24zm.42-1.132a.747.747 0 01.13-.266l-.494-.396a1.377 1.377 0 00-.246.488l.61.174zm-.117-.78H16.93v.633h1.193v-.634zm-1.193 0c-1.963 0-3.522.22-4.654.682l.239.586c1.022-.417 2.487-.635 4.415-.635v-.634zm-4.327 1.214c1.435-1.248 2.605-2.004 3.517-2.308l-.2-.6c-1.033.343-2.28 1.167-3.733 2.43l.416.478zm3.513-2.307c.84-.266 2.241-.409 4.235-.409v-.633c-2.002 0-3.488.14-4.427.439l.192.603zm4.235-.409h.832v-.633h-.832v.633zm.529-.225c.45 1.495.9 3.011 1.349 4.549l.608-.178c-.45-1.539-.9-3.057-1.35-4.553l-.607.182zm1.35 4.55l.002.01.003.008c0 .004.002.007.003.01l.002.009.003.009.003.009.002.009.003.009.003.009.002.009.003.009.003.009.003.009.002.009.003.009.003.009.002.009.003.009.003.009.002.009.003.009.003.009.002.009.003.009.003.009.002.009.003.009.003.009.003.009.002.009.003.009.003.009.002.009.003.009.003.009.002.009.003.009.003.009.003.009.002.009.003.009.003.009.002.009.003.009.003.009.003.009.002.009.003.009.003.009.002.009.003.009.003.009.002.009.003.01.003.008.002.01.003.008.003.01.003.008.002.01.003.008.003.01.002.008.003.01.003.008.002.01.003.008.003.01.003.008.002.01a8648413195.672 8648413195.672 0 01.008.026l.003.01.003.008.002.01.003.008.003.01.002.008.003.01a1.056 1.056 0 00.006.017l.002.01.003.008.003.01.002.008.003.01.003.008.002.01.003.008.003.01.002.008.003.01.003.008c0 .004.002.007.003.01l.002.008.003.01.003.008.002.01.003.009.003.009.003.009.002.009.003.009.003.009.002.009.003.009.003.009.002.009.003.009.003.009.003.009.002.009.003.009.003.009.002.009.003.009.003.009.002.009.003.009.003.009.002.009.003.009a.305.305 0 00.006.018l.002.009.003.009.003.009.002.009.003.009.003.009.002.009.003.009.003.009.002.009.003.009.003.009.003.009.002.009.003.009.003.009.002.009.003.009.003.01.003.008.002.01.003.008.003.01.002.008.003.01.003.008.002.01.003.008.003.01.003.008.002.01.003.008.003.01.002.008.003.01.003.008.002.01.003.008.003.01.002.008.003.01.003.008.003.01.002.008.003.01.003.008.002.01.003.008.003.01.002.008.003.01.003.008.002.01.003.008.003.01.003.008.002.01.003.009.003.009.002.009.003.009.003.009.002.009.003.009.003.009.003.009.002.009.003.009.003.009.002.009.003.009.003.009a1.056 1.056 0 00.005.018l.003.009.003.009.002.009.003.009.003.009.002.009.003.009a1.056 1.056 0 00.005.018l.003.009.003.009.003.009.002.009.003.009.003.009.002.009a1.056 1.056 0 00.014.045 3.782 3.782 0 00.021.072l.011.036a4.94 4.94 0 01.032.108l.011.036.011.036.01.036c.009.026.036.119.044.144l.043.145.043.144.044.144.043.144.043.144.043.145.043.144.043.144.043.144.044.144.043.144.043.145.043.144.043.144.043.144.607-.181-.01-.036-.012-.036-.01-.037-.011-.036c-.008-.025-.003-.01-.01-.036a4.916 4.916 0 00-.023-.072l-.01-.036a4.94 4.94 0 01-.033-.108l-.01-.036a3.782 3.782 0 00-.044-.144l-.01-.036a4.94 4.94 0 01-.033-.108l-.01-.036a3.782 3.782 0 00-.044-.145l-.01-.036a4.94 4.94 0 01-.033-.108l-.01-.036a3.782 3.782 0 00-.033-.108l-.01-.036a3.782 3.782 0 01-.044-.144l-.01-.036a3.782 3.782 0 00-.033-.108l-.01-.036a3.782 3.782 0 01-.044-.144l-.01-.037a4.916 4.916 0 00-.033-.108l-.01-.036a3.782 3.782 0 01-.044-.144l-.01-.036a4.916 4.916 0 00-.033-.108l-.011-.036a3.782 3.782 0 01-.032-.108l-.044-.145a263.657 263.657 0 01-.215-.72l-.087-.289a315.309 315.309 0 00-.345-1.153l-.607.181zm1.38 4.614c1.005 3.348 1.76 5.78 2.263 7.291l.6-.2c-.5-1.502-1.252-3.925-2.256-7.273l-.607.182zm2.264 7.293c.514 1.51.809 2.401.89 2.684l.608-.174c-.086-.303-.387-1.212-.899-2.714l-.6.204zm.894 2.697c.1.301.224.579.373.83l.545-.322a3.683 3.683 0 01-.318-.708l-.6.2zm.374.833c.37.612.969.906 1.73.906v-.633c-.577 0-.95-.208-1.188-.601l-.542.328zm1.73.906c.416 0 .84-.095 1.27-.276l-.247-.584a2.633 2.633 0 01-1.022.227v.633zm1.266-.275a6.9 6.9 0 00.988-.479l-.333-.538a6.502 6.502 0 01-.895.431l.24.586zm.632-1.001c-.378.283-.715.541-1.01.773l.391.498c.29-.228.624-.483.999-.765l-.38-.506zm-1.007.77c-.756.578-1.227.926-1.424 1.054l.345.531c.222-.144.714-.508 1.464-1.081l-.385-.504zm-1.414 1.048l-.079.047-.078.047a3.252 3.252 0 00-.079.047 3.252 3.252 0 00-.078.047l-.157.094-.157.094.326.543.078-.047.079-.047.078-.047.079-.047.157-.094.157-.094-.326-.543zm-.628.376a6.295 6.295 0 01-.627.329l.262.576c.24-.109.471-.23.69-.362l-.325-.543zm-.624.327c-.703.311-1.239.383-1.636.285-.378-.094-.687-.359-.913-.862l-.578.259c.286.637.729 1.066 1.338 1.217.592.147 1.283.018 2.045-.32l-.256-.579zm-2.55-.579c-.356-.783-.79-2.052-1.302-3.817l-.608.176c.513 1.771.957 3.076 1.334 3.903l.576-.262zm-1.302-3.817a170.85 170.85 0 00-1.368-4.544l-.603.193c.396 1.241.85 2.75 1.363 4.527l.608-.176zm-1.854-4.705c-.378.27-1.017.491-1.958.635-.934.143-2.13.206-3.597.185l-.009.633c1.485.021 2.72-.042 3.701-.192.974-.149 1.731-.388 2.232-.746l-.369-.515zm-5.56.82h-.971v.633h.972v-.633zm-1.255.175c-1.176 2.352-2.312 4.128-3.405 5.344l.471.423c1.146-1.274 2.312-3.107 3.5-5.484l-.566-.283zm-3.405 5.344a8.83 8.83 0 00-.292.341l.49.401c.091-.112.182-.218.273-.319l-.47-.423zm-.286.334l-.303.345-.069.075a.095.095 0 000 .001l.012-.01c.004-.003.017-.013.034-.023a.325.325 0 01.17-.042.318.318 0 01.304.316h-.634a.32.32 0 00.068.197.32.32 0 00.36.1.31.31 0 00.049-.022c.031-.019.053-.039.056-.041a4.613 4.613 0 00.122-.128c.07-.078.173-.196.31-.354l-.48-.414zm5.192-7.401l3.107.063.013-.634-3.108-.062-.012.633zm3.113.063c.656 0 1.321-.022 1.997-.064l-.04-.632c-.662.042-1.315.062-1.957.062v.634zm2.28-.475a691.06 691.06 0 01-2.15-7.011l-.605.183c.952 3.15 1.669 5.49 2.15 7.018l.605-.19zm-2.743-7.046a436.738 436.738 0 01-3.152 7.057l.576.263c1.068-2.335 2.12-4.69 3.157-7.067l-.58-.253zm-2.787 7.495a3.213 3.213 0 01.17-.039c.002 0 .002 0-.001.001l-.026.001v-.633c-.05 0-.11.013-.137.018a5.475 5.475 0 00-.16.038l.154.614zM38.037 88.66v.316h.002l-.002-.316zm3.107-.016v-.317h-.001l.001.317zm3.908.769l-.164.27.002.002.162-.272zm-.942 7.564l.185.257.002-.001-.187-.256zm-1.396.989l-.181-.26-.69.48.835.094.036-.314zm5.006 3.107l-.288.131v.003l.288-.134zm.031 3.954l-.286-.135-.002.004.288.131zm-1.067 1.664l-.242-.204.242.204zm-1.522 1.491l-.2-.245-.003.001.203.244zm-1.758 1.271l.164.271.003-.002-.167-.269zm-4.41 1.679l.026.315-.026-.315zm-5.916.11l-.258-.184-.355.5h.613v-.316zm.832-1.413l-.3-.1-.001.003.301.097zm.22-19.035h.316v-.317h-.316v.317zm-3.453 0l-.206-.24-.651.557h.857v-.317zm6.497 7.187h-.316v.327l.326-.01-.01-.317zm2.464-.031v.317h.003l-.003-.317zm2.134.031l-.022.316.059.004.057-.017-.094-.303zm1.836-1.867l.311.06.002-.01-.313-.05zm-6.434-5.398l-.018-.317-.298.018v.299h.316zm-1.004 18.391l-.264-.175-.328.492h.592v-.317zm7.093-.502l.157.275.004-.002-.161-.273zm1.334-1.239l.268.168.001-.002-.27-.166zm-3.75-6.984l-.072.309.005.001.066-.31zm-3.673-.329v-.317h-.316v.317h.316zm.865-11.077l3.107-.015-.003-.634-3.107.016.003.633zm3.105-.015c1.739 0 2.971.255 3.744.723l.328-.542c-.922-.558-2.295-.815-4.072-.815v.634zm3.746.724c.988.587 1.509 1.602 1.509 3.133h.633c0-1.69-.588-2.946-1.818-3.677l-.324.544zm1.509 3.133c0 1.367-.783 2.67-2.475 3.903l.373.512c1.781-1.299 2.735-2.769 2.735-4.415h-.633zm-2.473 3.902c-.48.344-.945.673-1.394.986l.363.52c.451-.315.918-.646 1.4-.992l-.37-.514zm-1.248 1.56c2.448.275 3.997 1.266 4.754 2.924l.576-.263c-.876-1.92-2.664-3-5.259-3.29l-.07.63zm4.755 2.927a4.42 4.42 0 01.41 1.89h.633c0-.766-.156-1.487-.47-2.158l-.573.268zm.41 1.89c0 .67-.128 1.267-.378 1.795l.572.271c.295-.623.439-1.313.439-2.066h-.633zm-.38 1.799a6.902 6.902 0 01-1.021 1.591l.484.408a7.536 7.536 0 001.113-1.737l-.576-.262zm-1.022 1.591c-.425.507-.918.99-1.48 1.45l.401.49c.59-.482 1.111-.993 1.564-1.533l-.485-.407zm-1.482 1.451a15.26 15.26 0 01-1.722 1.246l.334.538c.62-.385 1.218-.817 1.794-1.297l-.406-.487zm-1.719 1.244c-1.653 1.002-3.074 1.535-4.272 1.634l.053.631c1.334-.11 2.852-.696 4.547-1.724l-.328-.541zm-4.271 1.634a29.38 29.38 0 01-2.36.109v.633c.701 0 1.505-.037 2.411-.111l-.051-.631zm-2.36.109h-3.53v.633h3.53v-.633zm-3.273.5c.46-.646.764-1.153.876-1.499l-.603-.194c-.078.241-.327.675-.789 1.326l.517.367zm.874-1.496c.163-.486.236-1.131.236-1.92h-.633c0 .76-.073 1.328-.203 1.72l.6.2zm.236-1.92V90.794h-.633v17.215h.633zm-.316-17.532h-3.453v.634h3.453v-.634zm-3.247.558c.829-.71 1.49-1.235 1.985-1.582a5.43 5.43 0 01.602-.378 1.39 1.39 0 01.185-.082c.049-.016.068-.017.067-.017v-.633c-.173 0-.364.077-.541.169a6.1 6.1 0 00-.677.422c-.52.364-1.198.906-2.032 1.62l.411.48zm2.839-2.059h4.315v-.633h-4.315v.633zm3.462 9.322a79.59 79.59 0 012.454-.032v-.633c-.985 0-1.81.01-2.474.032l.02.633zm2.457-.032c.983-.01 1.683 0 2.109.031l.045-.632c-.454-.032-1.176-.042-2.16-.032l.006.633zm2.225.018c1.135-.352 1.849-1.053 2.053-2.11l-.622-.12c-.151.784-.661 1.328-1.619 1.625l.188.605zm2.055-2.12c.055-.344.082-.728.082-1.149h-.633c0 .395-.025.744-.074 1.048l.625.101zm.082-1.149c0-1.513-.476-2.699-1.472-3.495-.982-.786-2.42-1.152-4.258-1.152V91c1.77 0 3.04.355 3.862 1.013.81.647 1.235 1.627 1.235 3.001h.633zm-5.73-4.647c-.383 0-.755.01-1.117.031l.037.633c.349-.02.709-.031 1.08-.031v-.633zm-1.416.348v7.265h.634v-7.265h-.633zm0 15.08a5.53 5.53 0 01-.95 3.136l.526.351a6.161 6.161 0 001.058-3.487h-.633zm-.687 3.628h4.378v-.633H36.17v.633zm4.378 0c1.24 0 2.213-.167 2.872-.544l-.314-.55c-.513.294-1.35.461-2.558.461v.633zm2.876-.546c.62-.366 1.106-.812 1.44-1.344l-.535-.337c-.272.431-.676.811-1.227 1.136l.322.545zm1.442-1.346c.344-.558.503-1.27.503-2.112h-.634c0 .769-.145 1.354-.408 1.779l.54.333zm.503-2.112c0-.833-.114-1.564-.35-2.185l-.592.226c.202.53.308 1.18.308 1.959h.634zm-.35-2.185a4.663 4.663 0 00-.961-1.564l-.46.436c.345.363.622.813.829 1.354l.591-.226zm-.961-1.564a4.708 4.708 0 00-1.43-1.026l-.269.573c.478.225.89.521 1.239.889l.46-.436zm-1.43-1.026a7.893 7.893 0 00-1.715-.572l-.133.619c.564.121 1.09.296 1.58.526l.269-.573zm-1.71-.571c-.985-.227-2.235-.338-3.744-.338v.633c1.483 0 2.681.11 3.601.322l.142-.617zm-4.06-.021v5.743h.633v-5.743h-.633zm13.624-9.259l-.201-.245-.685.562h.886v-.317zm16.006-2.134l.029.315-.029-.632v.317zm-1.02.753l.206.241.002-.002-.208-.239zm-1.302 1.051l-.186-.256-.004.003.19.253zm-7.69.33v-.317h-.316v.317h.316zm0 7.611h-.316v.317h.316v-.317zm7.611 0l.029.315-.029-.632v.317zm-.565.36l.204.243.006-.004-.21-.238zm-.863.723l-.203-.243-.002.001.205.242zm-6.183 1.051v-.316h-.316v.316h.316zm-.533 7.972l-.286-.137-.001.004.287.133zm-.534.596l-.136-.285.136.602v-.317zm10.577-.408l-.122-.292-.002.001.124.291zm.973-.408l.243.204-.365-.496.122.292zm-3.42 2.354l.147.28h.001l-.149-.28zm-11.535.597l-.255-.188-.372.504h.627v-.316zm1.412-10.703h.317v-.316h-.317v.316zm-2.197 0l-.198-.247-.7.564h.898v-.317zm2.197-1.71l.188.255.129-.095v-.16h-.317zm0-8.035h.317v-.317h-.317v.317zm-2.734.245c.867-.71 1.547-1.237 2.045-1.586.25-.175.447-.301.595-.382.075-.04.131-.066.172-.081.045-.018.051-.014.032-.014v-.633a.737.737 0 00-.255.054 2.03 2.03 0 00-.251.118 7.185 7.185 0 00-.657.419c-.517.362-1.212.902-2.082 1.615l.401.49zm2.844-2.063h12.962v-.633H53.526v.633zm12.934-.632a.657.657 0 00-.258.094 2.633 2.633 0 00-.243.163c-.18.133-.414.325-.699.573l.416.478c.28-.244.5-.423.66-.541.08-.06.14-.1.182-.124.055-.031.045-.016-.001-.012l-.057-.63zm-1.197.828c-.564.48-.99.824-1.283 1.036l.372.513c.313-.227.755-.584 1.322-1.067l-.411-.482zm-1.287 1.04c-.282.21-.452.265-.532.265v.634c.296 0 .608-.165.912-.393l-.38-.507zm-.532.265h-6.968v.634h6.968v-.634zm-7.284.317v7.611h.633v-7.611h-.633zm.316 7.928h7.611v-.634h-7.61v.634zm7.583-.632a.858.858 0 00-.37.146 3.243 3.243 0 00-.376.292l.419.476a2.53 2.53 0 01.298-.234c.085-.054.107-.052.086-.05l-.057-.63zm-.74.433l-.863.722.406.486.864-.723-.407-.484zm-.865.723c-.408.347-.739.6-.994.764-.128.082-.23.139-.31.173a.715.715 0 01-.092.034c-.023.006-.032.006-.03.006v.633a.962.962 0 00.375-.092 2.85 2.85 0 00.4-.221c.289-.187.643-.459 1.061-.814l-.41-.483zm-1.427.977h-4.55v.633h4.55v-.633zm-4.867.316v5.116h.633v-5.116h-.633zm0 5.116c0 1.132-.174 2.033-.503 2.719l.571.274c.383-.799.565-1.802.565-2.993h-.633zm-.504 2.723c-.116.248-.249.38-.383.444l.272.571c.306-.145.528-.411.685-.749l-.574-.266zm-.247 1.046h8.725v-.633H55.41v.633zm8.725 0c.646 0 1.305-.147 1.976-.433l-.248-.583c-.605.258-1.18.383-1.728.383v.633zm1.975-.433l.973-.408-.245-.584-.973.408.245.584zm.607-.903c-.49.586-1.58 1.347-3.327 2.278l.298.559c1.747-.931 2.938-1.74 3.515-2.43l-.486-.407zm-3.326 2.277a9.541 9.541 0 01-.913.433c-.248.097-.393.127-.461.127v.633c.194 0 .433-.069.692-.171.27-.105.596-.26.978-.462l-.296-.56zm-1.374.56H52.004v.633h10.012v-.633zm-9.757.505c.97-1.315 1.474-2.63 1.474-3.939H53.1c0 1.139-.438 2.325-1.351 3.563l.51.376zm1.474-3.939v-6.952H53.1v6.952h.633zm-.317-7.268H51.22v.633h2.197v-.633zm-1.998.563a67.868 67.868 0 012.186-1.702l-.376-.51a68.06 68.06 0 00-2.207 1.718l.397.494zm2.315-1.957v-8.035H53.1v8.035h.633zm-.317-8.352h-2.934v.634h2.934v-.634zm39.515 18.63l.026.316-.026-.632v.316zm-1.02.754l.205.241.005-.004-.21-.237zm-7.345 1.381l-.235-.212-.475.528h.71v-.316zm1.052-1.475l.294.117v-.002l-.294-.115zm.345-9.228h.317v-.316h-.317v.316zm-11.675 0v-.316h-.317v.316h.317zm-.142 6.638l.306.083v-.002l-.306-.081zm-.988 1.93l-.26-.179-.343.496h.603v-.317zm5.037 0l.045.314-.045-.63v.316zm-2.04 1.585l-.19-.253-.004.004.194.249zm-6.34.55l-.195-.25-.722.566h.917v-.316zm1.35-2.495l.314.037v-.002l-.314-.035zm.063-17.953h.316v-.317h-.316v.317zm-2.935 0l-.197-.248-.71.565h.907v-.317zm.612-.486l.197.247.005-.004-.202-.243zm7.25-.063l-.19-.254-.004.004.194.25zm-1.867.549v-.317h-.317v.317h.317zm0 7.611h-.317v.317h.317v-.317zm11.675 0v.317h.317v-.317h-.317zm0-7.611h.317v-.317h-.317v.317zm-2.934 0l-.2-.245-.69.562h.89v-.317zm.596-.486l.2.245-.2-.245zm7.281-.063l.192.252.005-.004-.197-.248zm-1.883.549v-.317h-.316v.317h.316zm-.141 16.383l-.306-.081v.002l.306.079zm-.973 1.93l-.26-.18-.346.497h.606v-.317zm4.995-.315a.683.683 0 00-.263.092 2.476 2.476 0 00-.248.165c-.18.134-.412.327-.692.575l.42.474c.274-.244.49-.422.649-.54.08-.059.14-.098.181-.121.054-.03.047-.017.006-.014l-.053-.631zm-1.199.828c-.535.457-.964.794-1.29 1.014a3.146 3.146 0 01-.395.236c-.109.052-.152.055-.15.055v.633c.144 0 .292-.054.424-.117.14-.067.3-.163.476-.282.354-.24.804-.594 1.346-1.058l-.411-.481zm-1.834 1.305h-5.305v.633h5.305v-.633zm-5.069.528c.558-.621.941-1.148 1.11-1.569l-.588-.235c-.125.311-.442.768-.993 1.381l.471.423zm1.11-1.571c.25-.636.368-1.437.368-2.391h-.634c0 .909-.112 1.624-.323 2.16l.59.231zm.368-2.391v-6.952h-.634v6.952h.634zm-.317-7.268H74.288v.633h11.675v-.633zm-11.992.316v4.614h.633v-4.614h-.633zm0 4.614c0 .998-.049 1.633-.13 1.943l.612.162c.106-.401.151-1.115.151-2.105h-.633zm-.13 1.942c-.133.495-.44 1.104-.944 1.833l.521.359c.523-.756.874-1.434 1.034-2.027l-.611-.165zm-.683 2.329h5.037v-.633h-5.037v.633zm4.992-.63a.774.774 0 00-.247.089 2.29 2.29 0 00-.244.155c-.175.124-.39.299-.645.522l.417.476c.247-.216.445-.376.594-.482.075-.053.133-.089.176-.112.048-.026.057-.024.039-.021l-.09-.627zm-1.136.766c-.503.439-.85.73-1.049.879l.38.507c.22-.165.584-.471 1.086-.91l-.417-.476zm-1.053.883a4.291 4.291 0 01-.564.383c-.157.084-.237.099-.262.099v.633c.185 0 .379-.076.562-.175.192-.103.41-.252.653-.441l-.39-.499zm-.826.482h-5.32v.633h5.32v-.633zm-5.125.566c.847-.663 1.335-1.574 1.47-2.707l-.63-.075c-.116.981-.528 1.733-1.23 2.283l.39.499zm1.47-2.709c.043-.38.064-.811.064-1.291h-.633c0 .462-.02.868-.06 1.22l.628.071zm.064-1.291V90.794h-.633v16.697h.633zm-.316-17.014h-2.935v.634h2.934v-.634zm-2.738.565l.612-.487-.394-.495-.612.486.394.496zm.617-.49a22.243 22.243 0 011.58-1.218c.197-.134.354-.228.475-.288.132-.066.18-.07.175-.07v-.633c-.151 0-.314.065-.458.136-.155.078-.339.19-.547.33-.418.284-.961.703-1.629 1.254l.404.489zm2.23-1.576h6.858v-.633h-6.858v.633zm6.858-.633a.62.62 0 00-.273.076 2.01 2.01 0 00-.243.15c-.173.123-.39.3-.65.528l.418.476c.253-.223.451-.383.597-.486a1.46 1.46 0 01.164-.103c.046-.023.034-.008-.013-.008v-.633zm-1.166.754c-.513.45-.866.746-1.064.894l.38.507c.22-.165.59-.476 1.102-.925l-.418-.476zm-1.068.898a4.254 4.254 0 01-.564.383c-.157.084-.237.1-.262.1v.633c.185 0 .379-.077.562-.175a4.87 4.87 0 00.653-.441l-.39-.5zm-.826.482h-.847v.634h.847v-.634zm-1.164.317v7.611h.633v-7.611h-.633zm.317 7.928h11.675v-.634H74.288v.634zm11.992-.317v-7.611h-.634v7.611h.634zm-.317-7.928H83.03v.634h2.934v-.634zm-2.734.562l.596-.486-.4-.49-.597.486.4.49zm.597-.487a21.853 21.853 0 011.595-1.217c.2-.133.36-.228.482-.288.134-.065.187-.07.186-.07v-.634c-.153 0-.317.063-.464.135a4.94 4.94 0 00-.556.33c-.423.283-.972.703-1.645 1.255l.402.49zm2.263-1.576h6.842v-.633h-6.842v.633zm6.842-.633a.62.62 0 00-.274.076 2.01 2.01 0 00-.242.15c-.173.123-.39.3-.65.528l.417.476a7.54 7.54 0 01.598-.486 1.39 1.39 0 01.163-.103c.047-.023.034-.008-.012-.008v-.633zm-1.166.754c-.514.45-.864.748-1.055.9l.393.496c.206-.162.567-.471 1.08-.92l-.418-.476zm-1.05.896a4.429 4.429 0 01-.577.384c-.16.085-.242.1-.267.1v.634c.184 0 .379-.076.564-.175.194-.102.415-.25.663-.44l-.383-.503zm-.844.484h-.848v.634h.848v-.634zm-1.164.317v14.359h.633V90.794h-.633zm0 14.359c0 .998-.049 1.633-.131 1.943l.612.162c.106-.401.152-1.115.152-2.105h-.633zm-.132 1.945c-.133.515-.435 1.124-.926 1.829l.52.361c.514-.738.86-1.417 1.02-2.031l-.614-.159zm-.666 2.326h5.022v-.633h-5.022v.633zm24.999-21.078l-.08.306.004.001.076-.307zm1.443.424l-.135.286.005.002.13-.288zm-.565 1.177l.19.253.007-.005-.197-.248zm-1.694 1.208l-.174-.265h-.001l.175.265zm-1.162.706l-.307-.077-.14.56.547-.182-.1-.3zm.236-.235l.195.249.004-.003-.199-.246zm.329-.55l-.224.224.028.028.033.02.163-.272zm-.157-.094l-.163.272.03.018.033.01.1-.3zm-.753-.298l-.116.295.008.003.108-.298zm-7.58.063l.096.302h.002l-.098-.302zm-2.856 1.632l-.216-.232.216.232zm-.015 14.076l-.248.197v.001l.248-.198zm13.731 1.476l.208.238-.335-.528.127.29zm-.235.204l-.207-.241-.015.013-.013.015.235.213zm-.393.36l.19.254.008-.006-.198-.248zm-16.21.236l-.25.196.001.001.248-.197zm-1.68-11.173l-.29-.126-.001.002.291.124zm3.594-5.054l-.212-.234-.002.001.214.233zm2.464-1.851l.166.269h.001l-.167-.27zm2.762-1.413l-.119-.293h-.001l.12.293zm8.665-.587c.773.19 1.22.325 1.384.403l.271-.573c-.234-.11-.749-.258-1.504-.445l-.151.615zm1.389.405c.044.02.078.038.105.054a.352.352 0 01.049.034c.019.017-.026-.015-.026-.094h.633c0-.173-.098-.3-.183-.377a1.233 1.233 0 00-.318-.194l-.26.577zm.128-.006c0-.031.007-.05.008-.05 0-.002-.003.005-.014.022-.025.035-.07.087-.145.158l.433.462a1.65 1.65 0 00.231-.258.589.589 0 00.12-.334h-.633zm-.151.13c-.159.15-.361.321-.608.516l.393.497c.256-.202.472-.386.648-.551l-.433-.462zm-.602.511c-.249.187-.525.39-.827.61l.371.512c.305-.22.584-.426.836-.615l-.38-.507zm-.827.61c-.3.216-.583.412-.851.587l.347.53c.277-.181.569-.383.875-.605l-.371-.513zm-.852.588c-.323.213-.578.377-.767.492a5.65 5.65 0 01-.296.167c-.018.009-.025.011-.024.01l.2.602c.104-.035.264-.126.449-.238.199-.121.462-.29.787-.505l-.349-.528zm-.679 1.047a.245.245 0 01-.032.073 1.576 1.576 0 01.155-.136l-.391-.498c-.077.06-.145.118-.197.17a.822.822 0 00-.077.088.445.445 0 00-.073.15l.615.153zm.127-.066a4.39 4.39 0 00.331-.29.913.913 0 00.109-.124.522.522 0 00.05-.083.377.377 0 00.035-.157h-.633c0-.058.018-.098.023-.11a.076.076 0 01.012-.02.5.5 0 01-.044.047 3.803 3.803 0 01-.281.244l.398.493zm.525-.654a.47.47 0 00-.232-.413l-.326.543a.166.166 0 01-.075-.13h.633zm-.171-.365a.707.707 0 00-.281-.171l-.2.6c.022.008.03.015.033.018l.448-.447zm-.218-.142a1.39 1.39 0 00-.202-.101l-.235.588a.803.803 0 01.111.056l.326-.543zm-.202-.101a36.636 36.636 0 00-.606-.224l-.216.596c.348.126.541.197.587.216l.235-.588zm-.598-.22c-.881-.346-2.115-.509-3.678-.509v.633c1.534 0 2.675.162 3.446.465l.232-.59zm-3.678-.509c-1.572 0-2.946.186-4.115.565l.195.602c1.091-.353 2.395-.534 3.92-.534v-.633zm-4.113.564c-1.16.369-2.155.935-2.977 1.703l.432.462c.748-.697 1.657-1.219 2.736-1.561l-.191-.604zm-2.977 1.703C98.23 93.74 97.4 96.044 97.4 99h.634c0-2.838.792-4.95 2.332-6.39l-.433-.463zM97.4 99c0 3.001.824 5.558 2.486 7.651l.496-.393c-1.561-1.967-2.348-4.379-2.348-7.258H97.4zm2.486 7.652c1.798 2.253 4.17 3.383 7.09 3.383v-.633c-2.73 0-4.919-1.046-6.595-3.145l-.495.395zm7.09 3.383c1.934 0 4.277-.614 7.016-1.815l-.254-.58c-2.701 1.184-4.951 1.762-6.762 1.762v.633zm6.68-2.344l-.233.202.413.481.237-.206-.417-.477zm-.261.23a3.07 3.07 0 01-.356.326l.396.495c.166-.133.31-.265.429-.395l-.469-.426zm-.348.32c-2.999 2.247-6.088 3.358-9.273 3.358v.633c3.344 0 6.563-1.169 9.653-3.484l-.38-.507zm-9.273 3.358c-2.721 0-4.878-1.021-6.5-3.066l-.496.394c1.747 2.202 4.09 3.305 6.996 3.305v-.633zm-6.499-3.065c-1.508-1.913-2.27-4.294-2.27-7.164h-.633c0 2.988.796 5.514 2.406 7.556l.497-.392zm-2.27-7.164c0-1.478.216-2.704.634-3.69l-.583-.247c-.46 1.086-.684 2.401-.684 3.937h.633zm.633-3.688a13.949 13.949 0 011.534-2.732l-.511-.374a14.582 14.582 0 00-1.605 2.856l.582.25zm1.534-2.732a15.013 15.013 0 011.983-2.213l-.428-.467a15.642 15.642 0 00-2.066 2.306l.511.374zm1.981-2.212a16.746 16.746 0 012.418-1.817l-.333-.538a17.35 17.35 0 00-2.51 1.886l.425.47zm2.419-1.818a17.818 17.818 0 012.714-1.387l-.239-.587a18.43 18.43 0 00-2.81 1.437l.335.537zm2.714-1.387c1.921-.781 3.853-1.17 5.797-1.17v-.633c-2.031 0-4.044.407-6.035 1.216l.238.587zm5.797-1.17c1.103 0 2.016.099 2.745.288l.159-.613c-.798-.207-1.768-.308-2.904-.308v.633zm7.595 20.759l-.045-.313-.271.039v.274h.316zm4.143-.314l-.095-.302-.002.001.097.301zm1.35-.549l.191.253-.357-.523.166.27zm-1.067.816l-.194-.25h-.001l.195.25zm-1.695 1.177l-.155-.276-.003.002.158.274zm-1.256.565l.091.303.007-.002-.098-.301zm-1.286.282l-.045-.313h-.001l.046.313zm-3.265.142l-.223-.224-.541.54h.764v-.316zm.032-.032l.224.224.093-.093v-.131h-.317zm.22-.251l.231.216.008-.008-.239-.208zm.612-.675l.232.216.003-.004-.235-.212zm2.542-3.656l-.276-.156-.001.002.277.154zm1.475-2.872l-.287-.134v.001l.287.133zm2.605-5.994l-.29-.129v.002l.29.127zm1.365-3.06l.289.13.001-.002-.29-.129zm1.036-2.433l-.293-.12-.002.004.295.116zm.408-1.098l-.305-.087-.002.01-.003.01.31.067zm.188-.377l.248.198.411-.515h-.659v.317zm-5.728.66l-.207-.24.327.532-.12-.293zm3.625-2.37l-.095-.302-.005.001.1.3zm5.163-.424l.304-.091-.068-.226h-.236v.317zm1.35 4.55l-.304.09.001.002.303-.091zm1.381 4.614l-.303.091.303-.09zm2.26 7.282l-.301.1.001.002.3-.102zm.894 2.699l-.305.087.005.013.3-.1zm.345.769l-.272.161.001.003.271-.164zm2.605.502l-.12-.293-.002.001.122.292zm.942-.455l.19.253-.357-.522.167.269zm-1.004.769l.192.252.003-.003-.195-.249zm-1.444 1.067l.163.272.009-.006-.172-.266zm-1.287.722l.128.289.003-.001-.131-.288zm-2.966-.738l.289-.129-.001-.002-.288.131zm-1.318-3.86l-.304.088.304-.088zm-1.365-4.535l.301-.097-.132-.413-.353.252.184.258zm-5.744.879l.005-.317h-.005v.317zm-.973 0v-.317h-.196l-.087.175.283.142zm-3.452 5.414l.235.211-.235-.211zm-.283.329l.24.208.005-.007-.245-.201zm4.959-7.925l.007-.316h-.007v.316zm3.107.063l-.006.317h.006v-.317zm1.978-.063l.019.316.404-.025-.121-.386-.302.095zm-2.15-7.014l.303-.092-.249-.824-.345.789.291.126zm-3.155 7.061l-.287-.131-.274.598.638-.16-.077-.307zm-5.102 8.647a10.03 10.03 0 01.328-.009c.207-.003.501-.004.883-.004v-.633c-.383 0-.68.001-.891.004a4.438 4.438 0 00-.41.015l.09.627zm1.211-.013c1.314 0 2.318-.099 2.984-.313l-.194-.603c-.568.183-1.489.283-2.79.283v.633zm2.983-.313c.632-.2 1.113-.392 1.42-.581l-.332-.54c-.237.146-.656.32-1.279.517l.191.604zm1.063-1.103c-.388.293-.745.566-1.07.818l.387.5c.324-.25.678-.521 1.065-.813l-.382-.505zm-1.071.818c-.696.541-1.247.922-1.655 1.151l.31.552c.449-.252 1.029-.655 1.734-1.203l-.389-.5zm-1.658 1.153a6.4 6.4 0 01-1.195.538l.195.602c.441-.143.88-.341 1.316-.591l-.316-.549zm-1.189.536a8.524 8.524 0 01-1.24.272l.089.627c.455-.065.9-.163 1.333-.293l-.182-.606zm-1.241.272c-.627.091-1.493.138-2.607.138v.633c1.126 0 2.027-.047 2.698-.144l-.091-.627zm-2.607.138h-.612v.633h.612v-.633zm-.388.541l.002-.002.002-.002.002-.002.002-.002.001-.001.001-.001.001-.001.001-.001.001-.001.001-.001.001-.001.001-.001.016-.016-.448-.448v.001h-.001v.001h-.001v.001h-.001v.001h-.001v.001h-.001l-.001.001-.001.001-.001.001-.001.001-.001.001-.001.001-.001.001-.001.001-.001.001-.001.001-.001.001-.015.016.447.448zm.125-.256a.3.3 0 01-.014.091c-.005.018-.012.032-.015.04a.206.206 0 01-.018.032c-.005.009-.009.013-.006.01l.029-.035c.033-.038.085-.095.158-.173l-.463-.432c-.074.079-.131.142-.172.188-.019.023-.038.044-.052.063-.007.009-.018.023-.028.039-.005.008-.014.022-.022.041a.308.308 0 00-.031.136h.634zm.142-.043c.132-.153.333-.375.605-.667l-.464-.431c-.273.294-.48.522-.62.683l.479.415zm.608-.671c.281-.314.649-.772 1.1-1.37l-.505-.382a21.848 21.848 0 01-1.066 1.329l.471.423zm1.1-1.37c.462-.612.956-1.395 1.484-2.344l-.554-.308c-.519.934-.997 1.689-1.435 2.27l.505.382zm1.482-2.342a39.147 39.147 0 001.487-2.895l-.574-.266a38.884 38.884 0 01-1.464 2.849l.551.312zm1.487-2.894c.462-.987.903-1.985 1.323-2.994l-.584-.243c-.417 1-.854 1.99-1.313 2.969l.574.268zm1.323-2.994c.418-1.002.846-2.005 1.285-3.008l-.58-.253c-.44 1.006-.87 2.012-1.289 3.018l.584.243zm1.284-3.006c.45-1.014.905-2.034 1.365-3.059l-.578-.26c-.46 1.026-.915 2.047-1.366 3.062l.579.257zm1.366-3.06a64.995 64.995 0 001.041-2.445l-.59-.232c-.227.58-.57 1.386-1.03 2.42l.579.257zm1.039-2.44c.236-.576.386-.972.425-1.153l-.62-.133c-.024.112-.146.448-.391 1.045l.586.24zm.419-1.132a.734.734 0 01.132-.266l-.495-.396a1.386 1.386 0 00-.246.488l.609.174zm-.116-.78h-1.192v.633h1.192v-.634zm-1.192 0c-1.963 0-3.522.22-4.655.682l.239.586c1.022-.417 2.487-.635 4.416-.635v-.634zm-4.328 1.214c1.435-1.248 2.605-2.004 3.518-2.308l-.201-.6c-1.033.343-2.28 1.167-3.732 2.43l.415.478zm3.513-2.307c.84-.266 2.242-.409 4.236-.409v-.633c-2.003 0-3.488.14-4.427.439l.191.603zm4.236-.409h.831v-.633h-.831v.633zm.528-.225c.45 1.495.899 3.011 1.349 4.549l.608-.178c-.45-1.539-.9-3.057-1.35-4.553l-.607.182zm1.35 4.55l.002.01.003.008.003.01.002.009.003.009.003.009.002.009.003.009.003.009.003.009a.03.03 0 00.002.009l.003.009.003.009.002.009.003.009.003.009.002.009a.977.977 0 00.003.009l.003.009.003.009.002.009.003.009.003.009.002.009.003.009.003.009.002.009.003.009.003.009.002.009.003.009.003.009.003.009.002.009.003.009.003.009.002.009.003.009.003.009.002.009.003.009.003.009.003.009a.03.03 0 00.002.009l.003.009.003.009.002.009.003.009.003.009.002.009.003.009.003.009.003.009.002.01.003.008.003.01.002.008.003.01.003.008.002.01.003.008.003.01a.977.977 0 00.005.017l.003.01a6675895392.809 6675895392.809 0 01.005.017l.003.01.003.008.002.01.003.008a.977.977 0 00.003.01l.002.008.003.01.003.008.003.01a.03.03 0 00.002.008l.003.01.003.008.002.01a.977.977 0 00.003.008l.003.01.002.008.003.01.003.008.003.01.002.008.003.01.003.008.002.01.003.008.003.01.002.008.003.01.003.008.003.01a.03.03 0 00.002.008l.003.01a.977.977 0 00.003.009l.002.009.003.009.003.009.002.009.003.009.003.009.002.009.003.009.003.009.003.009a.03.03 0 00.002.009l.003.009.003.009.002.009.003.009.003.009.002.009a.977.977 0 00.003.009l.003.009.003.009.002.009.003.009.003.009.002.009.003.009.003.009.002.009.003.009.003.009.003.009a.03.03 0 00.002.009l.003.009.003.009.002.009.003.009a.977.977 0 00.003.009l.002.009.003.009.003.009.002.009.003.009.003.009.003.009a.977.977 0 00.008.027l.002.01.003.008.003.01a.03.03 0 01.002.008l.003.01.003.008.003.01.002.008.003.01.003.008.002.01.003.008.003.01.002.008.003.01.003.008a.977.977 0 00.005.018l.003.01.003.008.002.01.003.008.003.01.002.008.003.01a.977.977 0 00.003.008l.003.01.002.008.003.01.003.008a.03.03 0 00.002.01l.003.008.003.01.002.008a.977.977 0 00.003.01l.003.008a.03.03 0 01.002.01l.003.009.003.009.003.009a.03.03 0 00.002.009l.003.009.003.009.002.009.003.009.003.009.002.009.003.009.003.009.003.009a.03.03 0 00.002.009l.003.009a.977.977 0 00.003.009l.002.009.003.009.003.009a.03.03 0 01.002.009l.003.009.003.009.003.009a.977.977 0 00.005.018l.003.009.002.009.003.009.003.009.002.009.003.009.003.009a.977.977 0 00.005.018l.011.036.011.036.011.036a.47.47 0 00.01.036l.011.036.011.036.011.036a.47.47 0 01.01.036l.011.036.011.036.043.144.043.145.044.144.043.144.043.144.043.144.043.145.043.144.043.144.044.144.043.144.043.144.043.145.043.144.043.144.044.144.606-.181-.011-.036-.01-.036-.011-.037-.011-.036-.011-.036a.483.483 0 01-.01-.036l-.011-.036-.011-.036-.011-.036-.011-.036-.01-.036-.011-.036-.011-.036-.011-.036-.011-.036-.01-.036-.011-.036-.011-.036-.011-.036-.011-.036a.486.486 0 00-.01-.036l-.011-.036-.011-.037-.011-.035a.486.486 0 01-.01-.037l-.011-.036-.011-.036-.011-.036-.011-.036-.01-.036-.011-.036-.011-.036-.011-.036-.011-.036-.01-.036-.011-.036-.011-.036-.011-.036-.011-.036a.47.47 0 00-.01-.036l-.011-.036-.011-.036-.011-.036-.01-.036-.011-.036-.011-.036-.011-.036-.011-.037-.01-.036-.011-.036-.011-.036-.011-.036-.011-.036a.486.486 0 00-.01-.036l-.011-.036-.011-.036-.011-.036a.483.483 0 01-.01-.036l-.011-.036-.011-.036-.011-.036-.011-.036-.01-.036-.011-.036a7.876 7.876 0 01-.043-.145l-.044-.144-.086-.288-.086-.288-.086-.289-.087-.288-.086-.288-.086-.289-.087-.288-.606.181zm1.381 4.614c1.004 3.348 1.758 5.78 2.262 7.291l.601-.2c-.5-1.502-1.253-3.925-2.257-7.273l-.606.182zm2.263 7.293c.514 1.51.809 2.401.89 2.684l.609-.174c-.087-.303-.388-1.212-.9-2.714l-.599.204zm.894 2.697c.1.301.224.579.373.83l.545-.322a3.658 3.658 0 01-.317-.708l-.601.2zm.374.833c.37.612.969.906 1.731.906v-.633c-.577 0-.952-.208-1.189-.601l-.542.328zm1.731.906c.415 0 .839-.095 1.268-.276l-.245-.584a2.637 2.637 0 01-1.023.227v.633zm1.266-.275c.414-.17.746-.329.988-.479l-.334-.538a6.464 6.464 0 01-.895.431l.241.586zm.631-1.001c-.378.283-.715.541-1.01.773l.391.498c.291-.228.624-.483.999-.765l-.38-.506zm-1.007.77c-.756.578-1.227.926-1.424 1.054l.345.531c.222-.144.714-.508 1.464-1.081l-.385-.504zm-1.414 1.048a2.014 2.014 0 00-.078.047 3.278 3.278 0 00-.157.094 3.278 3.278 0 00-.079.047l-.157.094-.157.094.326.543.079-.047.078-.047.078-.047.079-.047.157-.094.157-.094-.326-.543zm-.628.376a6.183 6.183 0 01-.627.329l.262.576a6.74 6.74 0 00.691-.362l-.326-.543zm-.624.327c-.703.311-1.239.383-1.635.285-.379-.094-.688-.359-.914-.862l-.578.259c.286.637.729 1.066 1.339 1.217.592.147 1.282.018 2.044-.32l-.256-.579zm-2.55-.579c-.356-.783-.79-2.052-1.302-3.817l-.608.176c.513 1.771.958 3.076 1.334 3.903l.576-.262zm-1.302-3.817c-.513-1.78-.969-3.295-1.368-4.544l-.603.193c.396 1.241.851 2.75 1.363 4.527l.608-.176zm-1.853-4.705c-.379.27-1.018.491-1.959.635-.934.143-2.131.206-3.596.185l-.009.633c1.484.021 2.72-.042 3.701-.192.973-.149 1.73-.388 2.231-.746l-.368-.515zm-5.56.82h-.973v.633h.973v-.633zm-1.256.175c-1.176 2.352-2.312 4.128-3.405 5.344l.471.423c1.146-1.274 2.312-3.107 3.5-5.484l-.566-.283zm-3.405 5.344a9.39 9.39 0 00-.292.341l.49.401c.092-.112.182-.218.273-.319l-.471-.423zm-.286.334c-.136.156-.236.271-.303.345l-.068.075-.001.001.012-.01c.004-.003.017-.013.035-.023.009-.005.025-.014.047-.022a.313.313 0 01.358.101c.062.078.068.16.068.195h-.633a.318.318 0 00.304.317.315.315 0 00.172-.042.41.41 0 00.094-.078l.084-.091c.07-.078.173-.196.31-.354l-.479-.414zm5.192-7.401l3.107.063.013-.634-3.107-.062-.013.633zm3.113.063c.656 0 1.322-.022 1.997-.064l-.039-.632c-.663.042-1.316.062-1.958.062v.634zm2.28-.475a684.671 684.671 0 01-2.149-7.011l-.606.183c.952 3.15 1.669 5.49 2.151 7.018l.604-.19zm-2.743-7.046a431.535 431.535 0 01-3.151 7.057l.575.263a431.239 431.239 0 003.157-7.067l-.581-.253zm-2.787 7.495c.062-.015.107-.026.139-.032a.62.62 0 01.031-.007c.002 0 .002 0-.001.001l-.026.001v-.633c-.051 0-.11.013-.137.018a5.2 5.2 0 00-.159.038l.153.614z" fill="#000"/></g><path d="M16.24 116.28v1.48h-4.78V127H9.7v-10.72h6.54zm11.237 5.34c0 .893-.12 1.687-.36 2.38-.227.68-.56 1.26-1 1.74-.427.48-.953.847-1.58 1.1-.613.24-1.3.36-2.06.36a5.23 5.23 0 01-1.96-.36c-.6-.253-1.12-.62-1.56-1.1a5.258 5.258 0 01-1.04-1.74c-.24-.693-.36-1.487-.36-2.38 0-1.187.2-2.187.6-3 .4-.827.973-1.453 1.72-1.88.747-.44 1.633-.66 2.66-.66.973 0 1.827.22 2.56.66.747.427 1.327 1.053 1.74 1.88.427.813.64 1.813.64 3zm-8.1 0c0 .84.107 1.573.32 2.2.227.613.573 1.087 1.04 1.42.467.333 1.06.5 1.78.5s1.313-.167 1.78-.5c.467-.333.807-.807 1.02-1.42.227-.627.34-1.36.34-2.2 0-.853-.113-1.58-.34-2.18-.227-.6-.573-1.06-1.04-1.38-.453-.333-1.047-.5-1.78-.5-1.093 0-1.887.36-2.38 1.08-.493.72-.74 1.713-.74 2.98zm15.19 5.58c-.947 0-1.794-.193-2.54-.58-.734-.387-1.314-.987-1.74-1.8-.414-.813-.62-1.853-.62-3.12 0-1.32.22-2.393.66-3.22.44-.827 1.033-1.433 1.78-1.82.76-.387 1.62-.58 2.58-.58.546 0 1.073.06 1.58.18.506.107.92.24 1.24.4l-.54 1.46a10.48 10.48 0 00-1.12-.34 4.945 4.945 0 00-1.2-.16c-.72 0-1.314.153-1.78.46-.467.307-.814.76-1.04 1.36-.227.6-.34 1.347-.34 2.24 0 .853.113 1.58.34 2.18.226.6.566 1.053 1.02 1.36.453.307 1.02.46 1.7.46.586 0 1.1-.06 1.54-.18a7.53 7.53 0 001.24-.44v1.56c-.36.187-.76.327-1.2.42-.427.107-.947.16-1.56.16zm12.709-9.44h-3.5V127h-1.74v-9.24h-3.46v-1.48h8.7v1.48zm6.056-1.68c.92 0 1.707.2 2.36.6a3.85 3.85 0 011.52 1.7c.36.72.54 1.567.54 2.54v1.06h-7.34c.027 1.213.334 2.14.92 2.78.6.627 1.434.94 2.5.94.68 0 1.28-.06 1.8-.18.534-.133 1.08-.32 1.64-.56v1.54a7.893 7.893 0 01-1.62.52c-.533.12-1.166.18-1.9.18-1.013 0-1.913-.207-2.7-.62-.773-.413-1.38-1.027-1.82-1.84-.426-.827-.64-1.833-.64-3.02 0-1.173.194-2.18.58-3.02.4-.84.954-1.487 1.66-1.94.72-.453 1.553-.68 2.5-.68zm-.02 1.44c-.84 0-1.506.273-2 .82-.48.533-.767 1.28-.86 2.24h5.46c0-.613-.093-1.147-.28-1.6a2.26 2.26 0 00-.86-1.06c-.373-.267-.86-.4-1.46-.4zm15.79 1.46c0 .667-.2 1.187-.6 1.56-.4.373-.914.627-1.54.76v.08a3.56 3.56 0 011.74.72c.493.373.74.96.74 1.76 0 .453-.087.873-.26 1.26a2.51 2.51 0 01-.76 1c-.347.28-.794.5-1.34.66-.547.147-1.207.22-1.98.22h-4.62v-10.72h4.6c.76 0 1.44.087 2.04.26.613.16 1.093.44 1.44.84.36.387.54.92.54 1.6zm-1.48 4.88c0-.613-.234-1.053-.7-1.32-.467-.267-1.154-.4-2.06-.4h-2.62v3.44h2.66c.88 0 1.553-.127 2.02-.38.466-.267.7-.713.7-1.34zm-.3-4.66c0-.507-.187-.873-.56-1.1-.36-.24-.954-.36-1.78-.36h-2.74v2.94h2.42c.866 0 1.526-.12 1.98-.36.453-.24.68-.613.68-1.12zm14.003 2.42c0 .893-.12 1.687-.36 2.38-.227.68-.56 1.26-1 1.74-.427.48-.954.847-1.58 1.1-.614.24-1.3.36-2.06.36a5.23 5.23 0 01-1.96-.36c-.6-.253-1.12-.62-1.56-1.1a5.256 5.256 0 01-1.04-1.74c-.24-.693-.36-1.487-.36-2.38 0-1.187.2-2.187.6-3 .4-.827.973-1.453 1.72-1.88.746-.44 1.633-.66 2.66-.66.973 0 1.826.22 2.56.66.746.427 1.326 1.053 1.74 1.88.426.813.64 1.813.64 3zm-8.1 0c0 .84.106 1.573.32 2.2.226.613.573 1.087 1.04 1.42.466.333 1.06.5 1.78.5s1.313-.167 1.78-.5c.466-.333.806-.807 1.02-1.42.226-.627.34-1.36.34-2.2 0-.853-.114-1.58-.34-2.18-.227-.6-.574-1.06-1.04-1.38-.454-.333-1.047-.5-1.78-.5-1.094 0-1.887.36-2.38 1.08-.494.72-.74 1.713-.74 2.98zm19.57-9.78c-.054.667-.22 1.227-.5 1.68-.268.453-.668.793-1.2 1.02-.534.227-1.228.34-2.08.34-.868 0-1.568-.113-2.1-.34-.52-.227-.9-.56-1.14-1-.24-.453-.388-1.02-.44-1.7h1.64c.066.72.252 1.207.56 1.46.32.24.826.36 1.52.36.612 0 1.092-.127 1.44-.38.36-.267.572-.747.64-1.44h1.66zm-7.02 10.98c0 .12-.008.293-.02.52 0 .213-.008.447-.02.7l-.04.7c-.014.213-.028.387-.04.52l5.74-8.98h2.16V127h-1.64v-7.16c.012-.347.026-.687.04-1.02.012-.347.026-.607.04-.78l-5.7 8.96h-2.18v-10.72h1.66v6.54zm23.545-6.54v9.24h1.56v5.2h-1.7V127h-7.46v3.72h-1.68v-5.2h.86c.613-.853 1.12-1.78 1.52-2.78.413-1.013.72-2.067.92-3.16a18.61 18.61 0 00.34-3.3h5.64zm-4.08 1.38a16.708 16.708 0 01-.42 2.82c-.227.96-.52 1.88-.88 2.76-.347.88-.753 1.64-1.22 2.28h4.9v-7.86h-2.38zm17.061 3.96c0 .893-.12 1.687-.36 2.38-.226.68-.56 1.26-1 1.74-.426.48-.953.847-1.58 1.1-.613.24-1.3.36-2.06.36-.706 0-1.36-.12-1.96-.36-.6-.253-1.12-.62-1.56-1.1a5.268 5.268 0 01-1.04-1.74c-.24-.693-.36-1.487-.36-2.38 0-1.187.2-2.187.6-3 .4-.827.974-1.453 1.72-1.88.747-.44 1.634-.66 2.66-.66.974 0 1.827.22 2.56.66.747.427 1.327 1.053 1.74 1.88.427.813.64 1.813.64 3zm-8.1 0c0 .84.107 1.573.32 2.2.227.613.574 1.087 1.04 1.42.467.333 1.06.5 1.78.5s1.314-.167 1.78-.5c.467-.333.807-.807 1.02-1.42.227-.627.34-1.36.34-2.2 0-.853-.113-1.58-.34-2.18-.226-.6-.573-1.06-1.04-1.38-.453-.333-1.046-.5-1.78-.5-1.093 0-1.886.36-2.38 1.08-.493.72-.74 1.713-.74 2.98zm22.39-5.34V127h-1.58v-6.84c0-.28.006-.573.02-.88.026-.307.053-.607.08-.9h-.06l-3.5 8.62h-1.48l-3.4-8.62h-.06c.026.293.04.593.04.9.013.307.02.62.02.94V127h-1.58v-10.72h2.34l3.38 8.62 3.44-8.62h2.34z" fill="#fff"/><defs><filter id="filter0_di_184_269" x="9.477" y="39.416" width="59.98" height="29.367" filterUnits="userSpaceOnUse" color-interpolation-filters="sRGB"><feFlood flood-opacity="0" result="BackgroundImageFix"/><feColorMatrix in="SourceAlpha" values="0 0 0 0 0 0 0 0 0 0 0 0 0 0 0 0 0 0 127 0" result="hardAlpha"/><feOffset dy=".422"/><feGaussianBlur stdDeviation=".211"/><feComposite in2="hardAlpha" operator="out"/><feColorMatrix values="0 0 0 0 0 0 0 0 0 0 0 0 0 0 0 0 0 0 0.25 0"/><feBlend in2="BackgroundImageFix" result="effect1_dropShadow_184_269"/><feBlend in="SourceGraphic" in2="effect1_dropShadow_184_269" result="shape"/><feColorMatrix in="SourceAlpha" values="0 0 0 0 0 0 0 0 0 0 0 0 0 0 0 0 0 0 127 0" result="hardAlpha"/><feOffset dy=".422"/><feGaussianBlur stdDeviation=".211"/><feComposite in2="hardAlpha" operator="arithmetic" k2="-1" k3="1"/><feColorMatrix values="0 0 0 0 0 0 0 0 0 0 0 0 0 0 0 0 0 0 0.25 0"/><feBlend in2="shape" result="effect2_innerShadow_184_269"/></filter><filter id="filter1_di_184_269" x="77.034" y="32.868" width="96.664" height="46.752" filterUnits="userSpaceOnUse" color-interpolation-filters="sRGB"><feFlood flood-opacity="0" result="BackgroundImageFix"/><feColorMatrix in="SourceAlpha" values="0 0 0 0 0 0 0 0 0 0 0 0 0 0 0 0 0 0 127 0" result="hardAlpha"/><feOffset dy=".422"/><feGaussianBlur stdDeviation=".211"/><feComposite in2="hardAlpha" operator="out"/><feColorMatrix values="0 0 0 0 0 0 0 0 0 0 0 0 0 0 0 0 0 0 0.25 0"/><feBlend in2="BackgroundImageFix" result="effect1_dropShadow_184_269"/><feBlend in="SourceGraphic" in2="effect1_dropShadow_184_269" result="shape"/><feColorMatrix in="SourceAlpha" values="0 0 0 0 0 0 0 0 0 0 0 0 0 0 0 0 0 0 127 0" result="hardAlpha"/><feOffset dy=".422"/><feGaussianBlur stdDeviation=".211"/><feComposite in2="hardAlpha" operator="arithmetic" k2="-1" k3="1"/><feColorMatrix values="0 0 0 0 0 0 0 0 0 0 0 0 0 0 0 0 0 0 0.25 0"/><feBlend in2="shape" result="effect2_innerShadow_184_269"/></filter><filter id="filter2_di_184_269" x=".091" y=".842" width="164.844" height="41.84" filterUnits="userSpaceOnUse" color-interpolation-filters="sRGB"><feFlood flood-opacity="0" result="BackgroundImageFix"/><feColorMatrix in="SourceAlpha" values="0 0 0 0 0 0 0 0 0 0 0 0 0 0 0 0 0 0 127 0" result="hardAlpha"/><feOffset dy=".422"/><feGaussianBlur stdDeviation=".211"/><feComposite in2="hardAlpha" operator="out"/><feColorMatrix values="0 0 0 0 0 0 0 0 0 0 0 0 0 0 0 0 0 0 0.25 0"/><feBlend in2="BackgroundImageFix" result="effect1_dropShadow_184_269"/><feBlend in="SourceGraphic" in2="effect1_dropShadow_184_269" result="shape"/><feColorMatrix in="SourceAlpha" values="0 0 0 0 0 0 0 0 0 0 0 0 0 0 0 0 0 0 127 0" result="hardAlpha"/><feOffset dy=".422"/><feGaussianBlur stdDeviation=".211"/><feComposite in2="hardAlpha" operator="arithmetic" k2="-1" k3="1"/><feColorMatrix values="0 0 0 0 0 0 0 0 0 0 0 0 0 0 0 0 0 0 0.25 0"/><feBlend in2="shape" result="effect2_innerShadow_184_269"/></filter><filter id="filter3_di_184_269" x="30.268" y="51.96" width="4.811" height="4.286" filterUnits="userSpaceOnUse" color-interpolation-filters="sRGB"><feFlood flood-opacity="0" result="BackgroundImageFix"/><feColorMatrix in="SourceAlpha" values="0 0 0 0 0 0 0 0 0 0 0 0 0 0 0 0 0 0 127 0" result="hardAlpha"/><feOffset dy=".422"/><feGaussianBlur stdDeviation=".211"/><feComposite in2="hardAlpha" operator="out"/><feColorMatrix values="0 0 0 0 0 0 0 0 0 0 0 0 0 0 0 0 0 0 0.25 0"/><feBlend in2="BackgroundImageFix" result="effect1_dropShadow_184_269"/><feBlend in="SourceGraphic" in2="effect1_dropShadow_184_269" result="shape"/><feColorMatrix in="SourceAlpha" values="0 0 0 0 0 0 0 0 0 0 0 0 0 0 0 0 0 0 127 0" result="hardAlpha"/><feOffset dy=".422"/><feGaussianBlur stdDeviation=".211"/><feComposite in2="hardAlpha" operator="arithmetic" k2="-1" k3="1"/><feColorMatrix values="0 0 0 0 0 0 0 0 0 0 0 0 0 0 0 0 0 0 0.25 0"/><feBlend in2="shape" result="effect2_innerShadow_184_269"/></filter><filter id="filter4_di_184_269" x="37.12" y="51.96" width="4.811" height="4.286" filterUnits="userSpaceOnUse" color-interpolation-filters="sRGB"><feFlood flood-opacity="0" result="BackgroundImageFix"/><feColorMatrix in="SourceAlpha" values="0 0 0 0 0 0 0 0 0 0 0 0 0 0 0 0 0 0 127 0" result="hardAlpha"/><feOffset dy=".422"/><feGaussianBlur stdDeviation=".211"/><feComposite in2="hardAlpha" operator="out"/><feColorMatrix values="0 0 0 0 0 0 0 0 0 0 0 0 0 0 0 0 0 0 0.25 0"/><feBlend in2="BackgroundImageFix" result="effect1_dropShadow_184_269"/><feBlend in="SourceGraphic" in2="effect1_dropShadow_184_269" result="shape"/><feColorMatrix in="SourceAlpha" values="0 0 0 0 0 0 0 0 0 0 0 0 0 0 0 0 0 0 127 0" result="hardAlpha"/><feOffset dy=".422"/><feGaussianBlur stdDeviation=".211"/><feComposite in2="hardAlpha" operator="arithmetic" k2="-1" k3="1"/><feColorMatrix values="0 0 0 0 0 0 0 0 0 0 0 0 0 0 0 0 0 0 0.25 0"/><feBlend in2="shape" result="effect2_innerShadow_184_269"/></filter><filter id="filter5_di_184_269" x="30.268" y="57.178" width="4.811" height="4.286" filterUnits="userSpaceOnUse" color-interpolation-filters="sRGB"><feFlood flood-opacity="0" result="BackgroundImageFix"/><feColorMatrix in="SourceAlpha" values="0 0 0 0 0 0 0 0 0 0 0 0 0 0 0 0 0 0 127 0" result="hardAlpha"/><feOffset dy=".422"/><feGaussianBlur stdDeviation=".211"/><feComposite in2="hardAlpha" operator="out"/><feColorMatrix values="0 0 0 0 0 0 0 0 0 0 0 0 0 0 0 0 0 0 0.25 0"/><feBlend in2="BackgroundImageFix" result="effect1_dropShadow_184_269"/><feBlend in="SourceGraphic" in2="effect1_dropShadow_184_269" result="shape"/><feColorMatrix in="SourceAlpha" values="0 0 0 0 0 0 0 0 0 0 0 0 0 0 0 0 0 0 127 0" result="hardAlpha"/><feOffset dy=".422"/><feGaussianBlur stdDeviation=".211"/><feComposite in2="hardAlpha" operator="arithmetic" k2="-1" k3="1"/><feColorMatrix values="0 0 0 0 0 0 0 0 0 0 0 0 0 0 0 0 0 0 0.25 0"/><feBlend in2="shape" result="effect2_innerShadow_184_269"/></filter><filter id="filter6_di_184_269" x="37.12" y="57.178" width="4.811" height="4.286" filterUnits="userSpaceOnUse" color-interpolation-filters="sRGB"><feFlood flood-opacity="0" result="BackgroundImageFix"/><feColorMatrix in="SourceAlpha" values="0 0 0 0 0 0 0 0 0 0 0 0 0 0 0 0 0 0 127 0" result="hardAlpha"/><feOffset dy=".422"/><feGaussianBlur stdDeviation=".211"/><feComposite in2="hardAlpha" operator="out"/><feColorMatrix values="0 0 0 0 0 0 0 0 0 0 0 0 0 0 0 0 0 0 0.25 0"/><feBlend in2="BackgroundImageFix" result="effect1_dropShadow_184_269"/><feBlend in="SourceGraphic" in2="effect1_dropShadow_184_269" result="shape"/><feColorMatrix in="SourceAlpha" values="0 0 0 0 0 0 0 0 0 0 0 0 0 0 0 0 0 0 127 0" result="hardAlpha"/><feOffset dy=".422"/><feGaussianBlur stdDeviation=".211"/><feComposite in2="hardAlpha" operator="arithmetic" k2="-1" k3="1"/><feColorMatrix values="0 0 0 0 0 0 0 0 0 0 0 0 0 0 0 0 0 0 0.25 0"/><feBlend in2="shape" result="effect2_innerShadow_184_269"/></filter><filter id="filter7_di_184_269" x="106.476" y="55.401" width="8.113" height="7.173" filterUnits="userSpaceOnUse" color-interpolation-filters="sRGB"><feFlood flood-opacity="0" result="BackgroundImageFix"/><feColorMatrix in="SourceAlpha" values="0 0 0 0 0 0 0 0 0 0 0 0 0 0 0 0 0 0 127 0" result="hardAlpha"/><feOffset dy=".422"/><feGaussianBlur stdDeviation=".211"/><feComposite in2="hardAlpha" operator="out"/><feColorMatrix values="0 0 0 0 0 0 0 0 0 0 0 0 0 0 0 0 0 0 0.25 0"/><feBlend in2="BackgroundImageFix" result="effect1_dropShadow_184_269"/><feBlend in="SourceGraphic" in2="effect1_dropShadow_184_269" result="shape"/><feColorMatrix in="SourceAlpha" values="0 0 0 0 0 0 0 0 0 0 0 0 0 0 0 0 0 0 127 0" result="hardAlpha"/><feOffset dy=".422"/><feGaussianBlur stdDeviation=".211"/><feComposite in2="hardAlpha" operator="arithmetic" k2="-1" k3="1"/><feColorMatrix values="0 0 0 0 0 0 0 0 0 0 0 0 0 0 0 0 0 0 0.25 0"/><feBlend in2="shape" result="effect2_innerShadow_184_269"/></filter><filter id="filter8_di_184_269" x="117.895" y="55.401" width="8.113" height="7.173" filterUnits="userSpaceOnUse" color-interpolation-filters="sRGB"><feFlood flood-opacity="0" result="BackgroundImageFix"/><feColorMatrix in="SourceAlpha" values="0 0 0 0 0 0 0 0 0 0 0 0 0 0 0 0 0 0 127 0" result="hardAlpha"/><feOffset dy=".422"/><feGaussianBlur stdDeviation=".211"/><feComposite in2="hardAlpha" operator="out"/><feColorMatrix values="0 0 0 0 0 0 0 0 0 0 0 0 0 0 0 0 0 0 0.25 0"/><feBlend in2="BackgroundImageFix" result="effect1_dropShadow_184_269"/><feBlend in="SourceGraphic" in2="effect1_dropShadow_184_269" result="shape"/><feColorMatrix in="SourceAlpha" values="0 0 0 0 0 0 0 0 0 0 0 0 0 0 0 0 0 0 127 0" result="hardAlpha"/><feOffset dy=".422"/><feGaussianBlur stdDeviation=".211"/><feComposite in2="hardAlpha" operator="arithmetic" k2="-1" k3="1"/><feColorMatrix values="0 0 0 0 0 0 0 0 0 0 0 0 0 0 0 0 0 0 0.25 0"/><feBlend in2="shape" result="effect2_innerShadow_184_269"/></filter><filter id="filter9_di_184_269" x="106.476" y="64.948" width="8.113" height="7.173" filterUnits="userSpaceOnUse" color-interpolation-filters="sRGB"><feFlood flood-opacity="0" result="BackgroundImageFix"/><feColorMatrix in="SourceAlpha" values="0 0 0 0 0 0 0 0 0 0 0 0 0 0 0 0 0 0 127 0" result="hardAlpha"/><feOffset dy=".422"/><feGaussianBlur stdDeviation=".211"/><feComposite in2="hardAlpha" operator="out"/><feColorMatrix values="0 0 0 0 0 0 0 0 0 0 0 0 0 0 0 0 0 0 0.25 0"/><feBlend in2="BackgroundImageFix" result="effect1_dropShadow_184_269"/><feBlend in="SourceGraphic" in2="effect1_dropShadow_184_269" result="shape"/><feColorMatrix in="SourceAlpha" values="0 0 0 0 0 0 0 0 0 0 0 0 0 0 0 0 0 0 127 0" result="hardAlpha"/><feOffset dy=".422"/><feGaussianBlur stdDeviation=".211"/><feComposite in2="hardAlpha" operator="arithmetic" k2="-1" k3="1"/><feColorMatrix values="0 0 0 0 0 0 0 0 0 0 0 0 0 0 0 0 0 0 0.25 0"/><feBlend in2="shape" result="effect2_innerShadow_184_269"/></filter><filter id="filter10_di_184_269" x="117.895" y="64.616" width="8.113" height="7.173" filterUnits="userSpaceOnUse" color-interpolation-filters="sRGB"><feFlood flood-opacity="0" result="BackgroundImageFix"/><feColorMatrix in="SourceAlpha" values="0 0 0 0 0 0 0 0 0 0 0 0 0 0 0 0 0 0 127 0" result="hardAlpha"/><feOffset dy=".422"/><feGaussianBlur stdDeviation=".211"/><feComposite in2="hardAlpha" operator="out"/><feColorMatrix values="0 0 0 0 0 0 0 0 0 0 0 0 0 0 0 0 0 0 0.25 0"/><feBlend in2="BackgroundImageFix" result="effect1_dropShadow_184_269"/><feBlend in="SourceGraphic" in2="effect1_dropShadow_184_269" result="shape"/><feColorMatrix in="SourceAlpha" values="0 0 0 0 0 0 0 0 0 0 0 0 0 0 0 0 0 0 127 0" result="hardAlpha"/><feOffset dy=".422"/><feGaussianBlur stdDeviation=".211"/><feComposite in2="hardAlpha" operator="arithmetic" k2="-1" k3="1"/><feColorMatrix values="0 0 0 0 0 0 0 0 0 0 0 0 0 0 0 0 0 0 0.25 0"/><feBlend in2="shape" result="effect2_innerShadow_184_269"/></filter><filter id="filter11_d_184_269" x="7.218" y="88.048" width="131.126" height="24.948" filterUnits="userSpaceOnUse" color-interpolation-filters="sRGB"><feFlood flood-opacity="0" result="BackgroundImageFix"/><feColorMatrix in="SourceAlpha" values="0 0 0 0 0 0 0 0 0 0 0 0 0 0 0 0 0 0 127 0" result="hardAlpha"/><feOffset dy=".422"/><feGaussianBlur stdDeviation=".211"/><feComposite in2="hardAlpha" operator="out"/><feColorMatrix values="0 0 0 0 0 0 0 0 0 0 0 0 0 0 0 0 0 0 0.25 0"/><feBlend in2="BackgroundImageFix" result="effect1_dropShadow_184_269"/><feBlend in="SourceGraphic" in2="effect1_dropShadow_184_269" result="shape"/></filter></defs></svg>