<svg width="183" height="124" fill="none" xmlns="http://www.w3.org/2000/svg"><g filter="url(#filter0_di_184_189)"><path d="M36.4 39.688L10.014 67.87l26.384-22.234L59.117 67.87h9.496L36.4 39.688z" fill="#222"/><path d="M36.4 39.688L10.014 67.87l26.384-22.234L59.117 67.87h9.496L36.4 39.688z" stroke="#000" stroke-width=".317"/></g><g filter="url(#filter1_di_184_189)"><path d="M118.618 33.129L77.69 67.87l3.606 3.614 37.322-30.573 29.51 37.799 25.122-4.058-16.347-1.278-38.285-40.245z" fill="#222"/><path d="M118.618 33.129L77.69 67.87l3.606 3.614 37.322-30.573 29.51 37.799 25.122-4.058-16.347-1.278-38.285-40.245z" stroke="#000" stroke-width=".317"/></g><g filter="url(#filter2_di_184_189)"><path d="M70.898 1.312C60.945-2.201 20.152 24.825 1 38.777c7.433 0 21.684-.867 19.232-4.336-3.065-4.335 47.961-29.071 50.666-29.35 2.704-.277 36.782 23.68 38.825 22.124 1.635-1.245 10.578-2.186 14.845-2.501 13.262 6.244 39.787 18.366 39.787 16.898 0-1.834-37.082-16.898-39.787-19.678-2.164-2.223-12.161.927-16.888 2.78-8.114-6.337-26.83-19.889-36.782-23.402z" fill="#222"/><path d="M70.898 1.312C60.945-2.201 20.152 24.825 1 38.777c7.433 0 21.684-.867 19.232-4.336-3.065-4.335 47.961-29.071 50.666-29.35 2.704-.277 36.782 23.68 38.825 22.124 1.635-1.245 10.578-2.186 14.845-2.501 13.262 6.244 39.787 18.366 39.787 16.898 0-1.834-37.082-16.898-39.787-19.678-2.164-2.223-12.161.927-16.888 2.78-8.114-6.337-26.83-19.889-36.782-23.402z" stroke="#000" stroke-width=".317"/></g><g filter="url(#filter3_di_184_189)"><path fill="#222" d="M30.69 52.028h3.967v3.446H30.69z"/><path stroke="#000" stroke-width=".317" d="M30.849 52.187h3.65v3.13h-3.65z"/></g><g filter="url(#filter4_di_184_189)"><path fill="#222" d="M37.542 52.028h3.967v3.446h-3.967z"/><path stroke="#000" stroke-width=".317" d="M37.7 52.187h3.65v3.13H37.7z"/></g><g filter="url(#filter5_di_184_189)"><path fill="#222" d="M30.69 57.253h3.967v3.446H30.69z"/><path stroke="#000" stroke-width=".317" d="M30.849 57.412h3.65v3.13h-3.65z"/></g><g filter="url(#filter6_di_184_189)"><path fill="#222" d="M37.542 57.253h3.967v3.446h-3.967z"/><path stroke="#000" stroke-width=".317" d="M37.7 57.412h3.65v3.13H37.7z"/></g><g filter="url(#filter7_di_184_189)"><path fill="#222" d="M106.898 55.475h7.268v6.338h-7.268z"/><path stroke="#000" stroke-width=".317" d="M107.057 55.633h6.951v6.021h-6.951z"/></g><g filter="url(#filter8_di_184_189)"><path fill="#222" d="M118.317 55.475h7.268v6.338h-7.268z"/><path stroke="#000" stroke-width=".317" d="M118.476 55.633h6.951v6.021h-6.951z"/></g><g filter="url(#filter9_di_184_189)"><path fill="#222" d="M106.898 65.035h7.268v6.338h-7.268z"/><path stroke="#000" stroke-width=".317" d="M107.057 65.193h6.951v6.021h-6.951z"/></g><g filter="url(#filter10_di_184_189)"><path fill="#222" d="M118.317 64.702h7.268v6.338h-7.268z"/><path stroke="#000" stroke-width=".317" d="M118.476 64.86h6.951v6.021h-6.951z"/></g><g filter="url(#filter11_d_184_189)"><path d="M10.716 109.241c.073-.011.492-.016 1.256-.016 1.307 0 2.27-.099 2.887-.298.628-.199 1.078-.382 1.35-.549-.387.293-.743.565-1.068.816-.7.544-1.265.936-1.694 1.177a6.68 6.68 0 01-1.256.565 8.906 8.906 0 01-1.287.282c-.648.094-1.532.141-2.652.141H7.64l.032-.031c0-.01.073-.094.22-.251.135-.157.34-.382.611-.675.272-.303.633-.753 1.083-1.349.45-.597.937-1.366 1.46-2.307a39.188 39.188 0 001.475-2.872c.46-.984.9-1.977 1.318-2.982.418-1.004.847-2.008 1.287-3.013.45-1.015.905-2.035 1.365-3.06a64.75 64.75 0 001.036-2.432c.24-.586.376-.952.408-1.099.042-.146.104-.272.188-.376H16.93c-1.945 0-3.457.22-4.535.659 1.444-1.256 2.652-2.046 3.625-2.37.89-.282 2.333-.424 4.331-.424h.832c.45 1.496.9 3.013 1.35 4.551l1.38 4.614c1.005 3.348 1.758 5.775 2.26 7.281.513 1.507.811 2.407.895 2.7.094.282.21.538.345.769.304.502.79.753 1.46.753.366 0 .748-.084 1.145-.251a6.78 6.78 0 00.942-.455c-.377.282-.712.538-1.005.769-.753.575-1.234.931-1.443 1.067l-.628.376a6.52 6.52 0 01-.66.346c-1.464.648-2.452.402-2.965-.738-.366-.806-.806-2.092-1.318-3.86a170.297 170.297 0 00-1.365-4.536c-.88.628-2.794.921-5.744.879h-.973c-1.182 2.365-2.333 4.169-3.453 5.414a9.671 9.671 0 00-.282.33c-.272.314-.408.465-.408.455zm5.367-8.38l3.107.063c.649 0 1.308-.021 1.977-.063a693.425 693.425 0 01-2.15-7.015 437.026 437.026 0 01-3.154 7.062c.126-.031.2-.047.22-.047zm21.954-12.084l3.107-.015c1.758 0 3.06.256 3.908.769 1.109.659 1.663 1.794 1.663 3.405 0 1.506-.868 2.893-2.605 4.159-.48.345-.946.674-1.396.988 2.521.283 4.19 1.319 5.006 3.107a4.73 4.73 0 01.44 2.025c0 .711-.137 1.355-.409 1.93a7.217 7.217 0 01-1.067 1.663c-.44.524-.947 1.02-1.522 1.491-.565.471-1.151.895-1.758 1.271-1.674 1.015-3.144 1.575-4.41 1.68-.9.073-1.694.109-2.385.109h-3.53c.46-.648.737-1.119.831-1.412.147-.439.22-1.046.22-1.82V90.912h-3.453c1.664-1.423 2.679-2.135 3.045-2.135h4.315zm-.863 9.322a79.75 79.75 0 012.464-.031c.983-.01 1.695 0 2.134.031 1.046-.324 1.658-.947 1.836-1.868a6.85 6.85 0 00.079-1.098c0-2.887-1.805-4.331-5.414-4.331-.377 0-.743.01-1.099.031V98.1zm0 7.815a5.844 5.844 0 01-1.004 3.311h4.378c1.224 0 2.13-.167 2.715-.502.586-.345 1.03-.759 1.334-1.24.303-.491.455-1.14.455-1.946 0-.805-.11-1.496-.33-2.071a4.348 4.348 0 00-.894-1.46 4.399 4.399 0 00-1.334-.957 7.626 7.626 0 00-1.648-.549c-.952-.22-2.176-.33-3.672-.33v5.744zm13.308-15.002c1.736-1.423 2.751-2.135 3.044-2.135h12.962c-.115.01-.455.262-1.02.754-.565.48-.999.831-1.302 1.051-.293.22-.534.33-.722.33h-6.968v7.61h7.611c-.115.011-.303.131-.565.362-.261.22-.549.46-.863.722-.826.7-1.37 1.051-1.632 1.051h-4.55v5.116c0 1.161-.179 2.113-.534 2.856-.136.293-.314.492-.534.596h8.725c.597 0 1.214-.136 1.852-.408l.973-.408c-.534.638-1.674 1.423-3.42 2.354-.754.398-1.262.596-1.523.596H52.004c.941-1.276 1.412-2.526 1.412-3.75v-6.952H51.22a67.738 67.738 0 012.197-1.71v-8.035h-2.934zm42.449 18.313c-.126.011-.466.262-1.02.753-1.078.921-1.758 1.381-2.04 1.381h-5.305c.555-.617.905-1.109 1.052-1.475.23-.586.345-1.344.345-2.275v-6.952H74.288v4.614c0 .993-.047 1.668-.142 2.024-.146.544-.476 1.187-.988 1.93h5.037c-.146.021-.47.251-.973.691-.502.439-.858.737-1.067.894-.47.366-.81.549-1.02.549h-5.32c.774-.606 1.224-1.438 1.35-2.495.042-.366.063-.784.063-1.255V90.912h-2.935l.612-.487c1.329-1.098 2.14-1.648 2.432-1.648h6.858c-.125 0-.444.225-.957.675-.513.45-.874.754-1.083.91-.47.367-.81.55-1.02.55h-.847v7.61h11.675v-7.61H83.03l.596-.487c1.339-1.098 2.16-1.648 2.464-1.648h6.842c-.126 0-.445.225-.958.675-.512.45-.868.754-1.067.91-.48.367-.826.55-1.035.55h-.848v14.359c0 .993-.047 1.668-.141 2.024-.147.565-.47 1.208-.973 1.93h5.022zm19.977-20.761c.763.188 1.245.33 1.443.423.21.094.314.189.314.283 0 .083-.083.204-.251.36a9.702 9.702 0 01-.628.534 63.77 63.77 0 01-.831.612c-.304.22-.591.419-.863.597-.649.428-1.036.664-1.162.706.011-.042.089-.12.236-.236.272-.22.408-.355.408-.408a.153.153 0 00-.079-.14.394.394 0 00-.157-.095 1.045 1.045 0 00-.157-.078 29.872 29.872 0 00-.596-.22c-.826-.325-2.014-.487-3.562-.487-1.549 0-2.888.183-4.018.55-1.119.355-2.071.9-2.856 1.632-1.621 1.517-2.432 3.724-2.432 6.622 0 2.94.806 5.424 2.417 7.454 1.736 2.176 4.017 3.264 6.842 3.264 1.872 0 4.169-.596 6.889-1.789l-.235.204a3.405 3.405 0 01-.393.361c-3.044 2.281-6.198 3.421-9.463 3.421-2.814 0-5.063-1.062-6.748-3.185-1.558-1.978-2.338-4.431-2.338-7.36 0-1.507.22-2.778.66-3.814.45-1.046.972-1.977 1.569-2.793a15.326 15.326 0 012.024-2.26 17.031 17.031 0 012.464-1.852 18.073 18.073 0 012.762-1.412c1.956-.795 3.928-1.193 5.916-1.193 1.119 0 2.061.1 2.825.299zm4.77 20.777c.073-.011.492-.016 1.256-.016 1.307 0 2.27-.099 2.887-.298.628-.199 1.078-.382 1.35-.549-.387.293-.743.565-1.067.816-.701.544-1.266.936-1.695 1.177a6.68 6.68 0 01-1.256.565 8.893 8.893 0 01-1.286.282c-.649.094-1.533.141-2.653.141h-.612l.032-.031c0-.01.073-.094.22-.251.136-.157.34-.382.612-.675.272-.303.633-.753 1.082-1.349.45-.597.937-1.366 1.46-2.307a39.504 39.504 0 001.475-2.872c.46-.984.9-1.977 1.318-2.982.419-1.004.848-2.008 1.287-3.013.45-1.015.905-2.035 1.365-3.06a63.067 63.067 0 001.036-2.432c.241-.586.377-.952.408-1.099.042-.146.105-.272.188-.376h-1.192c-1.946 0-3.458.22-4.536.659 1.444-1.256 2.652-2.046 3.625-2.37.89-.282 2.333-.424 4.332-.424h.831c.45 1.496.9 3.013 1.35 4.551l1.381 4.614c1.004 3.348 1.757 5.775 2.26 7.281.512 1.507.81 2.407.894 2.7.094.282.209.538.345.769.304.502.79.753 1.46.753.366 0 .748-.084 1.145-.251a6.78 6.78 0 00.942-.455c-.377.282-.711.538-1.004.769-.754.575-1.235.931-1.444 1.067l-.628.376a6.517 6.517 0 01-.659.346c-1.465.648-2.453.402-2.966-.738-.366-.806-.805-2.092-1.318-3.86a173.469 173.469 0 00-1.365-4.536c-.879.628-2.794.921-5.744.879h-.973c-1.182 2.365-2.333 4.169-3.452 5.414a9.677 9.677 0 00-.283.33c-.272.314-.408.465-.408.455zm5.367-8.38l3.107.063c.649 0 1.308-.021 1.978-.063a674.854 674.854 0 01-2.15-7.015 431.001 431.001 0 01-3.155 7.062c.126-.031.199-.047.22-.047z" fill="#222"/><path d="M10.716 109.241l-.045-.314-.272.039v.275h.317zm4.143-.314l-.096-.302-.001.001.097.301zm1.35-.549l.19.252-.356-.522.166.27zm-1.068.816l-.193-.251v.001l.193.25zm-1.694 1.177l-.155-.276-.003.001.158.275zm-1.256.565l.091.303.007-.002-.098-.301zm-1.287.282l-.044-.313h-.001l.045.313zm-3.264.141l-.224-.224-.54.541h.764v-.317zm.032-.031l.224.224.092-.093v-.131h-.316zm.22-.251l.231.216.008-.009-.24-.207zm.611-.675l.232.216.004-.005-.236-.211zm2.543-3.656l-.276-.156-.001.002.277.154zm1.475-2.872l-.287-.134v.001l.287.133zm2.605-5.995l-.29-.128v.001l.29.127zm1.365-3.06l.289.13v-.001l-.289-.129zm1.036-2.432l-.293-.12-.002.004.295.116zm.408-1.099l-.305-.087-.003.01-.002.01.31.067zm.188-.376l.247.197.412-.514h-.659v.317zm-5.728.659l-.208-.24.328.533-.12-.293zm3.625-2.37l-.096-.302-.004.002.1.3zm5.163-.424l.303-.09-.067-.226h-.236v.316zm1.35 4.551l-.304.09v.001l.304-.09zm1.38 4.614l-.303.09v.001l.304-.091zm2.26 7.281l-.3.101v.001l.3-.102zm.895 2.7l-.305.087.005.013.3-.1zm.345.769l-.272.161.001.002.271-.163zm2.605.502l-.12-.293-.003.001.123.292zm.942-.455l.19.253-.357-.523.167.27zm-1.005.769l.193.251.003-.002-.196-.249zm-1.443 1.067l.163.271.01-.006-.173-.265zm-1.287.722l.128.289.003-.001-.131-.288zm-2.966-.738l.289-.13v-.001l-.289.131zm-1.318-3.86l-.304.087v.001l.304-.088zm-1.365-4.536l.301-.096-.132-.414-.354.253.185.257zm-5.744.879l.004-.316h-.004v.316zm-.973 0v-.316h-.196l-.087.175.283.141zm-3.453 5.414l.236.212-.236-.212zm-.282.33l.24.207.005-.007-.245-.2zm4.959-7.925l.006-.317h-.006v.317zm3.107.063l-.006.316h.006v-.316zm1.977-.063l.02.316.404-.025-.122-.386-.302.095zm-2.15-7.015l.304-.091-.25-.825-.344.79.29.126zm-3.154 7.062l-.288-.132-.273.599.638-.16-.077-.307zm-5.102 8.646l.085-.004.243-.004c.207-.003.501-.004.883-.004v-.633c-.383 0-.68.001-.891.003a4.82 4.82 0 00-.41.015l.09.627zm1.21-.012c1.315 0 2.319-.099 2.985-.314l-.194-.602c-.568.182-1.49.283-2.79.283v.633zm2.984-.313c.632-.2 1.113-.393 1.42-.582l-.332-.539c-.238.146-.656.32-1.28.517l.192.604zm1.062-1.104c-.387.294-.744.566-1.07.818l.388.501c.323-.25.678-.521 1.065-.814l-.383-.505zm-1.07.819c-.696.54-1.247.921-1.655 1.151l.31.552c.449-.252 1.028-.656 1.734-1.203l-.389-.5zm-1.658 1.152c-.402.231-.8.41-1.196.539l.196.602c.441-.144.88-.341 1.316-.592l-.316-.549zm-1.189.536a8.537 8.537 0 01-1.24.273l.09.627a9.15 9.15 0 001.332-.293l-.182-.607zm-1.241.273c-.627.091-1.493.138-2.607.138v.633c1.126 0 2.027-.047 2.698-.144l-.091-.627zm-2.607.138H7.64v.633h.612v-.633zm-.388.54l.002-.002.002-.002.002-.002.002-.002.001-.001.001-.001.001-.001.002-.001v-.001l.002-.001v-.001l.017-.016-.448-.448v.001h-.001v.001h-.001v.001h-.001v.001h-.001v.001h-.001l-.001.001-.001.001-.001.001-.001.001-.001.001-.001.001-.001.001-.001.001-.001.001-.001.001v.001l-.017.015.448.448zm.124-.255a.315.315 0 01-.046.163l-.007.01a8.217 8.217 0 01.188-.208l-.463-.432a7.77 7.77 0 00-.225.251.547.547 0 00-.05.079c-.003.008-.03.063-.03.137h.633zm.143-.044c.132-.152.333-.374.604-.666l-.464-.431c-.272.293-.48.521-.619.683l.479.414zm.608-.671c.281-.313.648-.771 1.1-1.37l-.506-.381a21.812 21.812 0 01-1.065 1.329l.471.422zm1.1-1.37c.462-.612.956-1.394 1.483-2.344l-.553-.307c-.519.934-.998 1.689-1.436 2.27l.506.381zm1.482-2.341a39.46 39.46 0 001.487-2.895l-.575-.266a38.835 38.835 0 01-1.463 2.849l.551.312zm1.486-2.894c.463-.987.904-1.985 1.324-2.994l-.584-.244a75.383 75.383 0 01-1.313 2.97l.573.268zm1.324-2.994a184.68 184.68 0 011.285-3.008l-.58-.254c-.44 1.006-.87 2.012-1.29 3.018l.585.244zm1.284-3.006c.45-1.015.905-2.034 1.365-3.06l-.578-.258c-.46 1.025-.916 2.046-1.366 3.06l.58.258zm1.365-3.06a64.597 64.597 0 001.041-2.445l-.589-.232a63.99 63.99 0 01-1.03 2.42l.578.257zm1.04-2.44c.236-.576.386-.973.424-1.153l-.619-.133c-.024.112-.146.448-.391 1.044l.586.241zm.42-1.133a.747.747 0 01.13-.266l-.494-.395a1.377 1.377 0 00-.246.487l.61.174zm-.117-.78H16.93v.633h1.193v-.633zm-1.193 0c-1.963 0-3.522.22-4.654.683l.239.586c1.022-.417 2.487-.636 4.415-.636v-.633zm-4.327 1.215c1.435-1.248 2.605-2.004 3.517-2.309l-.2-.6c-1.033.344-2.28 1.168-3.733 2.43l.416.479zm3.513-2.307c.84-.267 2.241-.409 4.235-.409v-.633c-2.002 0-3.488.14-4.427.438l.192.604zm4.235-.409h.832v-.633h-.832v.633zm.529-.225c.45 1.495.9 3.011 1.349 4.548l.608-.178c-.45-1.538-.9-3.056-1.35-4.553l-.607.183zm1.35 4.55l.002.01.003.008.003.01.002.008.003.01.003.008.002.01.003.008.003.01.002.008.003.01.003.008.003.01.002.008.003.01.003.008.002.01.003.008.003.01a1.056 1.056 0 00.005.017l.003.01.002.008.003.01.003.008.002.01.003.008.003.01a1.056 1.056 0 00.005.017l.003.01.003.008.002.01.003.008.003.01.002.008.003.01.003.009.003.009.002.009.003.009.003.009.002.009.003.009.003.009.003.009.002.009.003.009.003.009.002.009.003.009.003.009.002.009.003.009.003.009.002.009.003.009.003.009.003.009.002.009.003.009.003.009.002.009.003.009.003.009.002.009.003.009.003.009.003.009.002.009.003.009.003.009.002.009.003.009.003.009.002.009.003.009.003.009.002.009.003.009.003.009.003.009.002.01.003.008.003.01.002.008.003.01.003.008.002.01.003.008.003.01.002.008.003.01.003.008.003.01.002.008.003.01.003.008.002.01.003.008.003.01.003.008.002.01.003.008.003.01.002.008.003.01.003.008.002.01.003.008.003.01.003.008.002.01.003.008.003.01.002.008.003.01.003.008.002.01.003.008.003.01.002.008.003.01a.305.305 0 00.006.017l.002.01.003.008c0 .004.002.007.003.01l.002.009.003.009.003.009.002.009.003.009.003.009.002.009a8648413195.672 8648413195.672 0 01.009.027l.002.009.003.009.003.009.002.009.003.009.003.009.003.009a1.056 1.056 0 00.005.018l.003.009.002.009.003.009.003.009.002.009.003.009.003.009a1.056 1.056 0 00.005.018l.003.009.003.009.002.009.003.009.003.009.002.009.003.009.003.009.002.009.003.009.003.009.003.009.002.009.003.009.003.009.002.009.003.01.003.008.002.01.003.008.003.01.002.008.003.01.003.008.003.01.002.008.003.01.003.008.002.01.003.008.003.01.002.008.003.01.003.008.003.01.002.008.003.01.003.008.002.01.003.008.003.01.002.008.003.01.003.008.003.01.002.008.003.01.003.008.002.01.003.008.003.01.002.008.003.01.003.008.003.01.002.008.003.01.003.008.002.01.003.008a4.94 4.94 0 00.032.109l.011.036a4.94 4.94 0 01.032.108l.011.036.011.036.01.036c.009.026.036.118.044.144l.043.144.043.145.044.144.043.144.043.144.043.144.043.144.043.145.043.144.044.144.043.144.043.144.043.145.043.144.043.144.607-.182c-.008-.025-.003-.01-.01-.036l-.012-.036-.01-.036-.011-.036c-.008-.025-.003-.01-.01-.036a3.782 3.782 0 00-.023-.072l-.01-.036a4.94 4.94 0 01-.033-.108l-.01-.036a4.94 4.94 0 00-.044-.144l-.01-.037A4.94 4.94 0 0124 97.13l-.01-.036a4.94 4.94 0 00-.044-.144l-.01-.036a4.94 4.94 0 01-.033-.108l-.01-.036a4.94 4.94 0 00-.033-.108l-.01-.036a7.023 7.023 0 01-.044-.145l-.01-.035a4.94 4.94 0 00-.033-.109l-.01-.036a7.023 7.023 0 01-.044-.144l-.01-.036a4.94 4.94 0 00-.033-.108l-.01-.036a7.023 7.023 0 01-.044-.144l-.01-.036a4.94 4.94 0 00-.033-.108l-.011-.036a7.023 7.023 0 01-.032-.109l-.044-.144-.043-.144a315.117 315.117 0 01-.172-.577l-.087-.288-.086-.288-.086-.289a315.117 315.117 0 00-.173-.576l-.607.181zm1.38 4.614c1.005 3.348 1.76 5.779 2.263 7.291l.6-.201c-.5-1.501-1.252-3.924-2.256-7.272l-.607.182zm2.264 7.292c.514 1.511.809 2.401.89 2.685l.608-.174c-.086-.303-.387-1.212-.899-2.715l-.6.204zm.894 2.698c.1.301.224.578.373.83l.545-.322a3.683 3.683 0 01-.318-.708l-.6.2zm.374.832c.37.612.969.907 1.73.907v-.634c-.577 0-.95-.208-1.188-.6l-.542.327zm1.73.907c.416 0 .84-.095 1.27-.276l-.247-.584a2.63 2.63 0 01-1.022.226v.634zm1.266-.275c.415-.17.747-.33.988-.479l-.333-.539a6.37 6.37 0 01-.895.432l.24.586zm.632-1.002c-.378.284-.715.542-1.01.774l.391.498c.29-.229.624-.484.999-.765l-.38-.507zm-1.007.771c-.756.578-1.227.925-1.424 1.053l.345.531c.222-.144.714-.508 1.464-1.081l-.385-.503zm-1.414 1.047l-.079.047-.078.047a3.252 3.252 0 01-.079.047l-.078.048-.157.094-.157.094.326.543.078-.047.079-.047.078-.047.079-.047.157-.095.157-.094-.326-.543zm-.628.377a6.087 6.087 0 01-.627.328l.262.577c.24-.11.471-.23.69-.362l-.325-.543zm-.624.327c-.703.311-1.239.383-1.636.284-.378-.094-.687-.358-.913-.862l-.578.26c.286.636.729 1.065 1.338 1.217.592.147 1.283.018 2.045-.32l-.256-.579zm-2.55-.579c-.356-.784-.79-2.052-1.302-3.818l-.608.177c.513 1.77.957 3.076 1.334 3.903l.576-.262zm-1.302-3.817a170.85 170.85 0 00-1.368-4.544l-.603.193c.396 1.241.85 2.75 1.363 4.526l.608-.175zm-1.854-4.705c-.378.27-1.017.491-1.958.635-.934.143-2.13.205-3.597.185l-.009.633c1.485.021 2.72-.042 3.701-.192.974-.149 1.731-.389 2.232-.746l-.369-.515zm-5.56.82h-.971v.633h.972v-.633zm-1.255.175c-1.176 2.351-2.312 4.128-3.405 5.343l.471.424c1.146-1.275 2.312-3.107 3.5-5.484l-.566-.283zm-3.405 5.343a10.65 10.65 0 00-.292.341l.49.401c.091-.111.182-.217.273-.318l-.47-.424zm-.286.334c-.136.157-.237.272-.303.346l-.069.075c-.007.008-.006.006 0 .001l.012-.01c.004-.003.017-.013.034-.023a.306.306 0 01.048-.023c.018-.006.063-.021.122-.019a.316.316 0 01.304.316h-.634a.316.316 0 00.305.317.32.32 0 00.228-.084 3.08 3.08 0 00.122-.128c.07-.078.173-.196.31-.353l-.48-.415zm5.192-7.401l3.107.063.013-.633-3.108-.063-.012.633zm3.113.063a32.2 32.2 0 001.997-.063l-.04-.632a31.73 31.73 0 01-1.957.062v.633zm2.28-.474a694.922 694.922 0 01-2.15-7.011l-.605.183c.952 3.15 1.669 5.489 2.15 7.018l.605-.19zm-2.743-7.046a433.94 433.94 0 01-3.152 7.056l.576.264c1.068-2.335 2.12-4.69 3.157-7.067l-.58-.253zm-2.787 7.495l.139-.033.03-.006c.003 0 .003 0 0 0-.001 0-.011.002-.026.002v-.634a.68.68 0 00-.137.019 5.475 5.475 0 00-.16.038l.154.614zm22.097-12.438v.317h.002l-.002-.317zm3.107-.015v-.317h-.001l.001.317zm3.908.769l-.164.27.002.002.162-.272zm-.942 7.564l.185.257.002-.002-.187-.255zm-1.396.988l-.181-.26-.69.481.835.094.036-.315zm5.006 3.107l-.288.132v.002l.288-.134zm.031 3.955l-.286-.135-.002.004.288.131zm-1.067 1.663l-.242-.204v.001l.242.203zm-1.522 1.491l-.2-.245-.003.002.203.243zm-1.758 1.271l.164.271.003-.002-.167-.269zm-4.41 1.68l.026.315-.026-.315zm-5.916.109l-.258-.183-.355.5h.613v-.317zm.832-1.412l-.3-.1-.001.003.301.097zm.22-19.035h.316v-.317h-.316v.317zm-3.453 0l-.206-.241-.651.557h.857v-.316zm6.497 7.187h-.316v.327l.326-.01-.01-.317zm2.464-.031v.316h.003l-.003-.316zm2.134.031l-.022.316.059.004.057-.018-.094-.302zm1.836-1.868l.311.06.002-.01-.313-.05zm-6.434-5.398l-.018-.316-.298.018v.298h.316zm-1.004 18.392l-.264-.175-.328.492h.592v-.317zm7.093-.502l.157.275.004-.002-.161-.273zm1.334-1.24l.268.169.001-.002-.27-.167zm-3.75-6.983l-.072.309.005.001.066-.31zm-3.673-.33v-.316h-.316v.316h.316zm.865-11.076l3.107-.016-.003-.633-3.107.016.003.633zm3.105-.016c1.739 0 2.971.256 3.744.724l.328-.542c-.922-.558-2.295-.815-4.072-.815v.633zm3.746.725c.988.587 1.509 1.601 1.509 3.133h.633c0-1.69-.588-2.947-1.818-3.678l-.324.545zm1.509 3.133c0 1.367-.783 2.67-2.475 3.903l.373.511c1.781-1.298 2.735-2.768 2.735-4.414h-.633zm-2.473 3.901c-.48.345-.945.674-1.394.987l.363.519c.451-.315.918-.645 1.4-.991l-.37-.515zm-1.248 1.56c2.448.275 3.997 1.267 4.754 2.925l.576-.263c-.876-1.92-2.664-3-5.259-3.29l-.07.629zm4.755 2.927a4.42 4.42 0 01.41 1.891h.633c0-.766-.156-1.487-.47-2.158l-.573.267zm.41 1.891c0 .67-.128 1.266-.378 1.795l.572.27c.295-.622.439-1.313.439-2.065h-.633zm-.38 1.799a6.896 6.896 0 01-1.021 1.59l.484.409a7.557 7.557 0 001.113-1.737l-.576-.262zm-1.022 1.591c-.425.507-.918.99-1.48 1.449l.401.49c.59-.482 1.111-.992 1.564-1.532l-.485-.407zm-1.482 1.451c-.554.462-1.128.877-1.722 1.245l.334.538c.62-.384 1.218-.817 1.794-1.296l-.406-.487zM43.24 109.3c-1.653 1.001-3.074 1.535-4.272 1.634l.053.631c1.334-.11 2.852-.696 4.547-1.724l-.328-.541zm-4.271 1.634a29.38 29.38 0 01-2.36.109v.633c.701 0 1.505-.037 2.411-.111l-.051-.631zm-2.36.109h-3.53v.633h3.53v-.633zm-3.273.5c.46-.646.764-1.154.876-1.499l-.603-.194c-.078.241-.327.675-.789 1.326l.517.367zm.874-1.496c.163-.486.236-1.132.236-1.92h-.633c0 .759-.073 1.327-.203 1.72l.6.2zm.236-1.92V90.912h-.633v17.215h.633zm-.316-17.532h-3.453v.633h3.453v-.633zm-3.247.557c.829-.709 1.49-1.235 1.985-1.582.248-.174.448-.298.602-.378.078-.04.139-.066.185-.081.049-.017.068-.017.067-.017v-.633c-.173 0-.364.077-.541.168-.191.099-.417.24-.677.423-.52.364-1.198.905-2.032 1.619l.411.481zm2.839-2.058h4.315v-.633h-4.315v.633zm3.462 9.321c.655-.02 1.472-.03 2.454-.03v-.634c-.985 0-1.81.01-2.474.031l.02.633zm2.457-.03c.983-.011 1.683 0 2.109.03l.045-.632c-.454-.032-1.176-.043-2.16-.032l.006.633zm2.225.016c1.135-.352 1.849-1.053 2.053-2.11l-.622-.12c-.151.785-.661 1.329-1.619 1.625l.188.605zm2.055-2.12c.055-.344.082-.727.082-1.148h-.633c0 .395-.025.744-.074 1.048l.625.1zm.082-1.148c0-1.514-.476-2.699-1.472-3.496-.982-.785-2.42-1.152-4.258-1.152v.633c1.77 0 3.04.356 3.862 1.014.81.647 1.235 1.627 1.235 3.001h.633zm-5.73-4.648c-.383 0-.755.01-1.117.032l.037.632c.349-.02.709-.03 1.08-.03v-.634zm-1.416.348V98.1h.634v-7.266h-.633zm0 15.081c0 1.14-.316 2.183-.95 3.136l.526.351a6.161 6.161 0 001.058-3.487h-.633zm-.687 3.628h4.378v-.633H36.17v.633zm4.378 0c1.24 0 2.213-.168 2.872-.544l-.314-.55c-.513.293-1.35.461-2.558.461v.633zm2.876-.546c.62-.366 1.106-.812 1.44-1.344l-.535-.338c-.272.431-.676.812-1.227 1.136l.322.546zm1.442-1.346c.344-.558.503-1.271.503-2.113h-.634c0 .769-.145 1.354-.408 1.78l.54.333zm.503-2.113c0-.833-.114-1.563-.35-2.184l-.592.226c.202.53.308 1.18.308 1.958h.634zm-.35-2.184a4.653 4.653 0 00-.961-1.564l-.46.435c.345.364.622.814.829 1.355l.591-.226zm-.961-1.564a4.674 4.674 0 00-1.43-1.026l-.269.573c.478.224.89.52 1.239.888l.46-.435zm-1.43-1.026a7.95 7.95 0 00-1.715-.573l-.133.62c.564.12 1.09.296 1.58.526l.269-.573zm-1.71-.572c-.985-.227-2.235-.337-3.744-.337v.633c1.483 0 2.681.109 3.601.321l.142-.617zm-4.06-.021v5.744h.633v-5.744h-.633zm13.624-9.258l-.201-.245-.685.561h.886v-.316zm16.006-2.135l.029.316-.029-.632v.316zm-1.02.754l.206.24.002-.002-.208-.238zm-1.302 1.051l-.186-.256-.004.003.19.253zm-7.69.33v-.317h-.316v.317h.316zm0 7.61h-.316v.317h.316v-.316zm7.611 0l.029.316-.029-.632v.317zm-.565.362l.204.242.006-.005-.21-.237zm-.863.722l-.203-.244-.002.002.205.242zm-6.183 1.051v-.317h-.316v.317h.316zm-.533 7.972l-.286-.137-.001.003.287.134zm-.534.596l-.136-.286.136.603v-.317zm10.577-.408l-.122-.292-.002.001.124.291zm.973-.408l.243.203-.365-.495.122.292zm-3.42 2.354l.147.28.001-.001-.149-.279zm-11.535.596l-.255-.188-.372.505h.627v-.317zm1.412-10.702h.317v-.317h-.317v.317zm-2.197 0l-.198-.247-.7.564h.898v-.317zm2.197-1.71l.188.254.129-.094v-.16h-.317zm0-8.035h.317v-.317h-.317v.317zm-2.734.245c.867-.71 1.547-1.238 2.045-1.587.25-.175.447-.3.595-.381.075-.04.131-.066.172-.082.045-.017.051-.013.032-.013v-.633a.74.74 0 00-.255.053c-.078.03-.162.07-.251.119a7.163 7.163 0 00-.657.419c-.517.362-1.212.902-2.082 1.615l.401.49zm2.844-2.063h12.962v-.633H53.526v.633zm12.934-.632a.659.659 0 00-.258.094 2.656 2.656 0 00-.243.163c-.18.133-.414.325-.699.573l.416.477c.28-.243.5-.423.66-.54.08-.06.14-.1.182-.124.055-.032.045-.016-.001-.012l-.057-.63zm-1.197.828c-.564.48-.99.823-1.283 1.036l.372.513c.313-.228.755-.585 1.322-1.067l-.411-.482zm-1.287 1.039c-.282.211-.452.266-.532.266v.633c.296 0 .608-.165.912-.393l-.38-.506zm-.532.266h-6.968v.633h6.968v-.633zm-7.284.317v7.61h.633v-7.61h-.633zm.316 7.927h7.611v-.633h-7.61v.633zm7.583-.632a.858.858 0 00-.37.147 3.136 3.136 0 00-.376.292l.419.475a2.5 2.5 0 01.298-.233c.085-.054.107-.052.086-.05l-.057-.63zm-.74.434c-.262.22-.549.46-.863.721l.406.487.864-.723-.407-.485zm-.865.723c-.408.347-.739.6-.994.764-.128.082-.23.138-.31.173a.68.68 0 01-.092.033c-.023.006-.032.006-.03.006v.634a.98.98 0 00.375-.092c.122-.053.256-.129.4-.222.289-.186.643-.459 1.061-.813l-.41-.483zm-1.427.976h-4.55v.634h4.55v-.634zm-4.867.317v5.116h.633v-5.116h-.633zm0 5.116c0 1.132-.174 2.033-.503 2.719l.571.274c.383-.8.565-1.803.565-2.993h-.633zm-.504 2.722c-.116.249-.249.38-.383.444l.272.572c.306-.145.528-.411.685-.749l-.574-.267zm-.247 1.047h8.725v-.633H55.41v.633zm8.725 0c.646 0 1.305-.148 1.976-.434l-.248-.582c-.605.258-1.18.383-1.728.383v.633zm1.975-.433l.973-.408-.245-.584-.973.408.245.584zm.607-.903c-.49.586-1.58 1.346-3.327 2.278l.298.558c1.747-.93 2.938-1.74 3.515-2.43l-.486-.406zm-3.326 2.277a9.256 9.256 0 01-.913.432c-.248.098-.393.128-.461.128v.633c.194 0 .433-.069.692-.171.27-.105.596-.26.978-.462l-.296-.56zm-1.374.56H52.004v.633h10.012v-.633zm-9.757.504c.97-1.314 1.474-2.629 1.474-3.938H53.1c0 1.139-.438 2.324-1.351 3.562l.51.376zm1.474-3.938v-6.952H53.1v6.952h.633zm-.317-7.269H51.22v.634h2.197v-.634zm-1.998.564a66.533 66.533 0 012.186-1.703l-.376-.51c-.56.412-1.296.986-2.207 1.719l.397.494zm2.315-1.958v-8.034H53.1v8.034h.633zm-.317-8.351h-2.934v.633h2.934v-.633zm39.515 18.63l.026.316-.026-.632v.316zm-1.02.753l.205.241.005-.004-.21-.237zm-7.345 1.381l-.235-.211-.475.528h.71v-.317zm1.052-1.475l.294.118V110l-.294-.116zm.345-9.227h.317v-.317h-.317v.317zm-11.675 0v-.317h-.317v.317h.317zm-.142 6.638l.306.082v-.001l-.306-.081zm-.988 1.93l-.26-.18-.343.497h.603v-.317zm5.037 0l.045.314-.045-.63v.316zm-2.04 1.585l-.19-.253-.004.003.194.25zm-6.34.549l-.195-.249-.722.566h.917v-.317zm1.35-2.495l.314.038v-.002l-.314-.036zm.063-17.952h.316v-.317h-.316v.317zm-2.935 0l-.197-.248-.71.564h.907v-.316zm.612-.487l.197.248.005-.004-.202-.244zm7.25-.063l-.19-.253-.004.003.194.25zm-1.867.55v-.317h-.317v.317h.317zm0 7.61h-.317v.317h.317v-.316zm11.675 0v.317h.317v-.316h-.317zm0-7.61h.317v-.317h-.317v.317zm-2.934 0l-.2-.246-.69.562h.89v-.316zm.596-.487l.2.246v-.001l-.2-.245zm7.281-.063l.192.252.005-.003-.197-.249zm-1.883.55v-.317h-.316v.317h.316zm-.141 16.383l-.306-.081v.001l.306.08zm-.973 1.93l-.26-.181-.346.498h.606v-.317zm4.995-.315a.667.667 0 00-.263.092 2.476 2.476 0 00-.248.165c-.18.133-.412.326-.692.574l.42.474a9.89 9.89 0 01.649-.539c.08-.059.14-.098.181-.122.054-.03.047-.017.006-.013l-.053-.631zm-1.199.828a15.71 15.71 0 01-1.29 1.014c-.163.11-.294.187-.395.235-.109.053-.152.056-.15.056v.633c.144 0 .292-.054.424-.117.14-.067.3-.163.476-.283a15.8 15.8 0 001.346-1.057l-.411-.481zm-1.834 1.305h-5.305v.633h5.305v-.633zm-5.069.528c.558-.621.941-1.148 1.11-1.569l-.588-.235c-.125.311-.442.768-.993 1.381l.471.423zm1.11-1.571c.25-.636.368-1.438.368-2.391h-.634c0 .909-.112 1.624-.323 2.159l.59.232zm.368-2.391v-6.952h-.634v6.952h.634zm-.317-7.269H74.288v.634h11.675v-.634zm-11.992.317v4.614h.633v-4.614h-.633zm0 4.614c0 .997-.049 1.633-.13 1.943l.612.162c.106-.401.151-1.115.151-2.105h-.633zm-.13 1.942c-.133.494-.44 1.104-.944 1.832l.521.36c.523-.757.874-1.434 1.034-2.028l-.611-.164zm-.683 2.329h5.037v-.633h-5.037v.633zm4.992-.63a.774.774 0 00-.247.089 2.31 2.31 0 00-.244.154c-.175.124-.39.3-.645.522l.417.477c.247-.217.445-.376.594-.482a1.79 1.79 0 01.176-.113c.048-.025.057-.023.039-.02l-.09-.627zm-1.136.765c-.503.44-.85.731-1.049.88l.38.506c.22-.165.584-.47 1.086-.909l-.417-.477zm-1.053.883a4.193 4.193 0 01-.564.383c-.157.085-.237.1-.262.1v.633c.185 0 .379-.076.562-.175.192-.103.41-.252.653-.441l-.39-.5zm-.826.483h-5.32v.633h5.32v-.633zm-5.125.566c.847-.664 1.335-1.575 1.47-2.707l-.63-.075c-.116.98-.528 1.733-1.23 2.283l.39.499zm1.47-2.709c.043-.381.064-.812.064-1.291h-.633c0 .462-.02.868-.06 1.219l.628.072zm.064-1.291V90.912h-.633v16.697h.633zm-.316-17.014h-2.935v.633h2.934v-.633zm-2.738.564l.612-.486-.394-.496-.612.487.394.495zm.617-.49a22.243 22.243 0 011.58-1.218c.197-.133.354-.227.475-.287.132-.066.18-.07.175-.07v-.633c-.151 0-.314.064-.458.136a4.924 4.924 0 00-.547.33 22.83 22.83 0 00-1.629 1.254l.404.488zm2.23-1.575h6.858v-.633h-6.858v.633zm6.858-.633a.62.62 0 00-.273.076c-.075.038-.157.09-.243.15-.173.122-.39.3-.65.527l.418.476c.253-.222.451-.382.597-.485a1.46 1.46 0 01.164-.103c.046-.023.034-.008-.013-.008v-.633zm-1.166.753c-.513.45-.866.746-1.064.895l.38.507c.22-.165.59-.476 1.102-.926l-.418-.476zm-1.068.898a4.235 4.235 0 01-.564.384c-.157.084-.237.099-.262.099v.633c.185 0 .379-.076.562-.175.192-.103.41-.252.653-.44l-.39-.5zm-.826.483h-.847v.633h.847v-.633zm-1.164.317v7.61h.633v-7.61h-.633zm.317 7.927h11.675v-.633H74.288v.633zm11.992-.316v-7.611h-.634v7.61h.634zm-.317-7.928H83.03v.633h2.934v-.633zm-2.734.562l.596-.486-.4-.491-.597.486.4.491zm.597-.487a21.853 21.853 0 011.595-1.217c.2-.134.36-.228.482-.288.134-.065.187-.07.186-.07v-.634c-.153 0-.317.063-.464.135a4.952 4.952 0 00-.556.33c-.423.283-.972.703-1.645 1.254l.402.49zm2.263-1.576h6.842v-.633h-6.842v.633zm6.842-.633a.62.62 0 00-.274.076c-.074.038-.156.09-.242.15-.173.122-.39.3-.65.527l.417.476c.253-.222.452-.382.598-.485a1.47 1.47 0 01.163-.103c.047-.023.034-.008-.012-.008v-.633zm-1.166.753c-.514.45-.864.749-1.055.9l.393.497c.206-.163.567-.471 1.08-.92l-.418-.477zm-1.05.896a4.44 4.44 0 01-.577.385c-.16.084-.242.1-.267.1v.633c.184 0 .379-.076.564-.174a5.02 5.02 0 00.663-.44l-.383-.504zm-.844.485h-.848v.633h.848v-.633zm-1.164.317v14.359h.633v-14.36h-.633zm0 14.359c0 .997-.049 1.633-.131 1.943l.612.162c.106-.401.152-1.115.152-2.105h-.633zm-.132 1.944c-.133.516-.435 1.124-.926 1.829l.52.362c.514-.739.86-1.417 1.02-2.032l-.614-.159zm-.666 2.327h5.022v-.633h-5.022v.633zm24.999-21.078l-.08.306.004.001.076-.307zm1.443.423l-.135.287.005.002.13-.289zm-.565 1.177l.19.254.007-.005-.197-.249zm-1.694 1.209l-.174-.266-.001.001.175.265zm-1.162.706l-.307-.077-.14.56.547-.183-.1-.3zm.236-.236l.195.25.004-.003-.199-.247zm.329-.549l-.224.224.028.028.033.02.163-.272zm-.157-.094l-.163.272.03.017.033.011.1-.3zm-.753-.298l-.116.295.008.002.108-.297zm-7.58.063l.096.301h.002l-.098-.301zm-2.856 1.632l-.216-.232.216.232zm-.015 14.076l-.248.197v.001l.248-.198zm13.731 1.475l.208.238-.335-.528.127.29zm-.235.204l-.207-.24-.015.013-.013.014.235.213zm-.393.361l.19.254.008-.007-.198-.247zm-16.21.236l-.25.196h.001l.248-.196zm-1.68-11.174l-.29-.125-.001.002.291.123zm3.594-5.053l-.212-.235-.002.002.214.233zm2.464-1.852l.166.27h.001l-.167-.27zm2.762-1.412l-.119-.293h-.001l.12.293zm8.665-.587c.773.19 1.22.325 1.384.402l.271-.572c-.234-.11-.749-.259-1.504-.445l-.151.615zm1.389.405c.044.02.078.038.105.053a.343.343 0 01.049.035c.019.017-.026-.015-.026-.094h.633c0-.174-.098-.3-.183-.377a1.236 1.236 0 00-.318-.195l-.26.578zm.128-.006c0-.031.007-.05.008-.05 0-.002-.003.005-.014.022-.025.035-.07.087-.145.158l.433.462a1.72 1.72 0 00.231-.258.59.59 0 00.12-.334h-.633zm-.151.13a9.71 9.71 0 01-.608.516l.393.496c.256-.202.472-.385.648-.55l-.433-.462zm-.602.51c-.249.188-.525.39-.827.61l.371.513c.305-.22.584-.426.836-.615l-.38-.507zm-.827.61c-.3.217-.583.413-.851.588l.347.53c.277-.181.569-.383.875-.605l-.371-.513zm-.852.588c-.323.214-.578.378-.767.492a5.65 5.65 0 01-.296.168l-.024.01.2.601c.104-.034.264-.125.449-.238.199-.12.462-.289.787-.504l-.349-.529zm-.679 1.048a.247.247 0 01-.032.073 1.597 1.597 0 01.155-.136l-.391-.499a2.36 2.36 0 00-.197.17.812.812 0 00-.077.088.444.444 0 00-.073.15l.615.154zm.127-.066c.139-.112.251-.21.331-.29.039-.039.078-.081.109-.124a.519.519 0 00.05-.084.376.376 0 00.035-.157h-.633c0-.057.018-.097.023-.11a.076.076 0 01.012-.02.5.5 0 01-.044.048 3.807 3.807 0 01-.281.244l.398.493zm.525-.655a.47.47 0 00-.232-.412l-.326.543a.165.165 0 01-.075-.13h.633zm-.171-.365a.707.707 0 00-.281-.17l-.2.6c.022.008.03.015.033.018l.448-.448zm-.218-.142a1.4 1.4 0 00-.202-.1l-.235.588a.803.803 0 01.111.055l.326-.543zm-.202-.1a36.636 36.636 0 00-.606-.224l-.216.595c.348.127.541.198.587.216l.235-.587zm-.598-.221c-.881-.346-2.115-.508-3.678-.508v.633c1.534 0 2.675.162 3.446.465l.232-.59zm-3.678-.508c-1.572 0-2.946.185-4.115.564l.195.603c1.091-.354 2.395-.534 3.92-.534v-.633zm-4.113.564c-1.16.368-2.155.935-2.977 1.702l.432.463c.748-.697 1.657-1.219 2.736-1.562l-.191-.603zm-2.977 1.702C98.23 93.86 97.4 96.162 97.4 99.12h.634c0-2.838.792-4.95 2.332-6.391l-.433-.463zM97.4 99.12c0 3.001.824 5.558 2.486 7.651l.496-.394c-1.561-1.966-2.348-4.379-2.348-7.257H97.4zm2.486 7.652c1.798 2.252 4.17 3.383 7.09 3.383v-.633c-2.73 0-4.919-1.046-6.595-3.145l-.495.395zm7.09 3.383c1.934 0 4.277-.615 7.016-1.816l-.254-.58c-2.701 1.184-4.951 1.763-6.762 1.763v.633zm6.68-2.344l-.233.202.413.481.237-.207-.417-.476zm-.261.229c-.09.1-.208.209-.356.327l.396.494a3.73 3.73 0 00.429-.395l-.469-.426zm-.348.321c-2.999 2.246-6.088 3.358-9.273 3.358v.633c3.344 0 6.563-1.17 9.653-3.484l-.38-.507zm-9.273 3.358c-2.721 0-4.878-1.022-6.5-3.066l-.496.393c1.747 2.203 4.09 3.306 6.996 3.306v-.633zm-6.499-3.066c-1.508-1.912-2.27-4.293-2.27-7.163h-.633c0 2.988.796 5.514 2.406 7.556l.497-.393zm-2.27-7.163c0-1.478.216-2.704.634-3.69l-.583-.247c-.46 1.085-.684 2.401-.684 3.937h.633zm.633-3.689a13.948 13.948 0 011.534-2.731l-.511-.374a14.58 14.58 0 00-1.605 2.855l.582.25zm1.534-2.731a15.013 15.013 0 011.983-2.213l-.428-.467a15.647 15.647 0 00-2.066 2.306l.511.374zm1.981-2.212a16.76 16.76 0 012.418-1.817l-.333-.539a17.343 17.343 0 00-2.51 1.886l.425.47zm2.419-1.818a17.809 17.809 0 012.714-1.388l-.239-.586a18.43 18.43 0 00-2.81 1.437l.335.537zm2.714-1.388c1.921-.78 3.853-1.169 5.797-1.169v-.633c-2.031 0-4.044.406-6.035 1.216l.238.586zm5.797-1.169c1.103 0 2.016.098 2.745.288l.159-.613c-.798-.208-1.768-.308-2.904-.308v.633zm7.595 20.759l-.045-.314-.271.039v.275h.316zm4.143-.314l-.095-.302-.002.001.097.301zm1.35-.549l.191.252-.357-.522.166.27zm-1.067.816l-.194-.251-.001.001.195.25zm-1.695 1.177l-.155-.276-.003.001.158.275zm-1.256.565l.091.303.007-.002-.098-.301zm-1.286.282l-.045-.313h-.001l.046.313zm-3.265.141l-.223-.224-.541.541h.764v-.317zm.032-.031l.224.224.093-.093v-.131h-.317zm.22-.251l.231.216.008-.009-.239-.207zm.612-.675l.232.216.003-.005-.235-.211zm2.542-3.656l-.276-.156-.001.002.277.154zm1.475-2.872l-.287-.134v.001l.287.133zm2.605-5.995l-.29-.128v.001l.29.127zm1.365-3.06l.289.13.001-.001-.29-.129zm1.036-2.432l-.293-.12-.002.004.295.116zm.408-1.099l-.305-.087-.002.01-.003.01.31.067zm.188-.376l.248.197.411-.514h-.659v.317zm-5.728.659l-.207-.24.327.533-.12-.293zm3.625-2.37l-.095-.302-.005.002.1.3zm5.163-.424l.304-.09-.068-.226h-.236v.316zm1.35 4.551l-.304.09.001.001.303-.09zm1.381 4.614l-.303.09v.001l.303-.091zm2.26 7.281l-.301.101.001.001.3-.102zm.894 2.7l-.305.087.005.013.3-.1zm.345.769l-.272.161.001.002.271-.163zm2.605.502l-.12-.293-.002.001.122.292zm.942-.455l.19.253-.357-.523.167.27zm-1.004.769l.192.251.003-.002-.195-.249zm-1.444 1.067l.163.271.009-.006-.172-.265zm-1.287.722l.128.289.003-.001-.131-.288zm-2.966-.738l.289-.13-.001-.001-.288.131zm-1.318-3.86l-.304.087v.001l.304-.088zm-1.365-4.536l.301-.096-.132-.414-.353.253.184.257zm-5.744.879l.005-.316h-.005v.316zm-.973 0v-.316h-.196l-.087.175.283.141zm-3.452 5.414l.235.212-.235-.212zm-.283.33l.24.207.005-.007-.245-.2zm4.959-7.925l.007-.317h-.007v.317zm3.107.063l-.006.316h.006v-.316zm1.978-.063l.019.316.404-.025-.121-.386-.302.095zm-2.15-7.015l.303-.091-.249-.825-.345.79.291.126zm-3.155 7.062l-.287-.132-.274.599.638-.16-.077-.307zm-5.102 8.646l.085-.004.243-.004c.207-.003.501-.004.883-.004v-.633c-.383 0-.68.001-.891.003a4.845 4.845 0 00-.41.015l.09.627zm1.211-.012c1.314 0 2.318-.099 2.984-.314l-.194-.602c-.568.182-1.489.283-2.79.283v.633zm2.983-.313c.632-.2 1.113-.393 1.42-.582l-.332-.539c-.237.146-.656.32-1.279.517l.191.604zm1.063-1.104c-.388.294-.745.566-1.07.818l.387.501c.324-.25.678-.521 1.065-.814l-.382-.505zm-1.071.819c-.696.54-1.247.921-1.655 1.151l.31.552c.449-.252 1.029-.656 1.734-1.203l-.389-.5zm-1.658 1.152c-.401.231-.8.41-1.195.539l.195.602c.441-.144.88-.341 1.316-.592l-.316-.549zm-1.189.536a8.526 8.526 0 01-1.24.273l.089.627c.455-.065.9-.163 1.333-.293l-.182-.607zm-1.241.273c-.627.091-1.493.138-2.607.138v.633c1.126 0 2.027-.047 2.698-.144l-.091-.627zm-2.607.138h-.612v.633h.612v-.633zm-.388.54l.002-.002a.002.002 0 00.002-.002.002.002 0 00.002-.002l.002-.002.001-.001.001-.001.001-.001h.001l.001-.001.001-.001.001-.001.001-.001.016-.016-.448-.448v.001h-.001l-.001.001-.001.001v.001h-.001l-.001.001-.001.001-.001.001-.001.001-.001.001-.001.001-.001.001-.001.001-.001.001-.001.001-.001.001-.001.001-.015.015.447.448zm.125-.255a.306.306 0 01-.014.091c-.005.018-.012.032-.015.04a.274.274 0 01-.018.032c-.005.008-.009.013-.006.01a6.912 6.912 0 01.187-.208l-.463-.432c-.074.079-.131.142-.172.188a1.14 1.14 0 00-.052.063c-.007.009-.018.023-.028.039a.32.32 0 00-.053.177h.634zm.142-.044c.132-.152.333-.374.605-.666l-.464-.431c-.273.293-.48.521-.62.683l.479.414zm.608-.671a21.7 21.7 0 001.1-1.37l-.505-.381a22.171 22.171 0 01-1.066 1.329l.471.422zm1.1-1.37c.462-.612.956-1.394 1.484-2.344l-.554-.307c-.519.934-.997 1.689-1.435 2.27l.505.381zm1.482-2.341a39.147 39.147 0 001.487-2.895l-.574-.266a38.884 38.884 0 01-1.464 2.849l.551.312zm1.487-2.894c.462-.987.903-1.985 1.323-2.994l-.584-.244a74.947 74.947 0 01-1.313 2.97l.574.268zm1.323-2.994a184.68 184.68 0 011.285-3.008l-.58-.254c-.44 1.006-.87 2.012-1.289 3.018l.584.244zm1.284-3.006c.45-1.015.905-2.034 1.365-3.06l-.578-.258c-.46 1.025-.915 2.046-1.366 3.06l.579.258zm1.366-3.06a65.067 65.067 0 001.041-2.445l-.59-.232c-.227.58-.57 1.385-1.03 2.42l.579.257zm1.039-2.44c.236-.576.386-.973.425-1.153l-.62-.133c-.024.112-.146.448-.391 1.044l.586.241zm.419-1.133a.734.734 0 01.132-.266l-.495-.395a1.386 1.386 0 00-.246.487l.609.174zm-.116-.78h-1.192v.633h1.192v-.633zm-1.192 0c-1.963 0-3.522.22-4.655.683l.239.586c1.022-.417 2.487-.636 4.416-.636v-.633zm-4.328 1.215c1.435-1.248 2.605-2.004 3.518-2.309l-.201-.6c-1.033.344-2.28 1.168-3.732 2.43l.415.479zm3.513-2.307c.84-.267 2.242-.409 4.236-.409v-.633c-2.003 0-3.488.14-4.427.438l.191.604zm4.236-.409h.831v-.633h-.831v.633zm.528-.225c.45 1.495.899 3.011 1.349 4.548l.608-.178c-.45-1.538-.9-3.056-1.35-4.553l-.607.183zm1.35 4.55l.002.01a.977.977 0 00.003.008l.003.01.002.008.003.01.003.008.002.01.003.008.003.01.003.008a.03.03 0 00.002.01l.003.008.003.01.002.008.003.01.003.008.002.01.003.008.003.01a.977.977 0 00.003.008l.002.01.003.008.003.01.002.008.003.01.003.008.002.01.003.008.003.01.002.008.003.01.003.008.003.01.002.008.003.01.003.008.002.01a.977.977 0 00.003.009l.003.009.002.009.003.009.003.009.003.009a.03.03 0 00.002.009l.003.009.003.009.002.009.003.009.003.009.002.009.003.009.003.009.003.009.002.009.003.009.003.009.002.009.003.009.003.009.002.009.003.009.003.009.003.009a.03.03 0 00.002.009l.003.009.003.009a1335150782.473 1335150782.473 0 00.005.018l.003.009.002.009.003.009.003.009.002.009a.977.977 0 00.003.009l.003.009.003.009a.03.03 0 00.002.009l.003.009.003.009.002.009.003.009.003.009.002.01.003.008.003.01.003.008.002.01.003.008.003.01.002.008.003.01a.977.977 0 00.003.008l.002.01.003.008.003.01.003.008a.03.03 0 00.002.01l.003.008.003.01.002.008a.977.977 0 00.003.01l.003.008.002.01.003.008.003.01.002.008.003.01.003.008.003.01a.03.03 0 00.002.008l.003.01.003.008.002.01.003.008.003.01.002.008.003.01.003.008a.977.977 0 00.003.01l.002.008.003.01.003.008.002.01.003.008.003.01.002.008.003.01.003.009.003.009a.03.03 0 00.002.009l.003.009.003.009.002.009.003.009.003.009.002.009a.977.977 0 00.003.009l.003.009.002.009.003.009.003.009.003.009a.03.03 0 00.002.009l.003.009.003.009.002.009.003.009.003.009a.03.03 0 01.002.009l.003.009.003.009.003.009a.03.03 0 00.002.009l.003.009a.977.977 0 00.003.009l.002.009.003.009.003.009.002.009.003.009.003.009.003.009a.03.03 0 00.002.009l.003.009.003.009.002.009.003.009.003.009.002.009.003.009.003.009.003.009.002.01.003.008.003.01a.03.03 0 00.002.008l.003.01.003.008.002.01.003.008.003.01.002.008.003.01.003.008.003.01a.03.03 0 00.002.008l.003.01.003.008.002.01.003.008a.977.977 0 00.003.01l.002.008.003.01.003.008.003.01a.03.03 0 00.002.008l.003.01.003.008.002.01a.977.977 0 00.003.008l.003.01a.03.03 0 01.002.008l.003.01.003.008.003.01a.03.03 0 00.002.008l.003.01.003.008.002.01.003.008.003.01.002.008.003.01.003.008a.03.03 0 01.002.01l.003.008.011.037.011.036.011.036.01.036.011.036.011.036.011.036.01.036.011.036.011.036.043.144.043.144.044.145.043.144.043.144.043.144.043.144.043.144.043.145.044.144.043.144.043.144.043.144.043.145.043.144.044.144.606-.182-.011-.036-.01-.036-.011-.036-.011-.036-.011-.036a.497.497 0 01-.01-.036l-.011-.036-.011-.036-.011-.036-.011-.036-.01-.036-.011-.036-.011-.036-.011-.036-.011-.036-.01-.037-.011-.035-.011-.037-.011-.036-.011-.036a.497.497 0 00-.01-.036l-.011-.036-.011-.036-.011-.036a.486.486 0 01-.01-.036l-.011-.036-.011-.036-.011-.036-.011-.036-.01-.036-.011-.036-.011-.036-.011-.036-.011-.036-.01-.036-.011-.036-.011-.036-.011-.037-.011-.035a.486.486 0 00-.01-.037l-.011-.036-.011-.036-.011-.036-.01-.036-.011-.036-.011-.036-.011-.036-.011-.036-.01-.036-.011-.036-.011-.036-.011-.036-.011-.036a.486.486 0 00-.01-.036l-.011-.036-.011-.036-.011-.036a.486.486 0 01-.01-.036l-.011-.036-.011-.036-.011-.036-.011-.037-.01-.036-.011-.036a7.876 7.876 0 01-.043-.144l-.044-.144-.086-.288-.086-.289-.086-.288-.087-.288-.086-.289-.086-.288-.087-.288-.606.181zm1.381 4.614c1.004 3.348 1.758 5.779 2.262 7.291l.601-.201c-.5-1.501-1.253-3.924-2.257-7.272l-.606.182zm2.263 7.292c.514 1.511.809 2.401.89 2.685l.609-.174c-.087-.303-.388-1.212-.9-2.715l-.599.204zm.894 2.698c.1.301.224.578.373.83l.545-.322a3.658 3.658 0 01-.317-.708l-.601.2zm.374.832c.37.612.969.907 1.731.907v-.634c-.577 0-.952-.208-1.189-.6l-.542.327zm1.731.907c.415 0 .839-.095 1.268-.276l-.245-.584a2.635 2.635 0 01-1.023.226v.634zm1.266-.275c.414-.17.746-.33.988-.479l-.334-.539a6.333 6.333 0 01-.895.432l.241.586zm.631-1.002c-.378.284-.715.542-1.01.774l.391.498c.291-.229.624-.484.999-.765l-.38-.507zm-1.007.771c-.756.578-1.227.925-1.424 1.053l.345.531c.222-.144.714-.508 1.464-1.081l-.385-.503zm-1.414 1.047l-.078.047a3.278 3.278 0 01-.079.047 3.227 3.227 0 01-.078.047l-.079.048-.157.094-.157.094.326.543.079-.047.078-.047a8.12 8.12 0 01.157-.094l.157-.095.157-.094-.326-.543zm-.628.377a5.983 5.983 0 01-.627.328l.262.577c.241-.11.471-.23.691-.362l-.326-.543zm-.624.327c-.703.311-1.239.383-1.635.284-.379-.094-.688-.358-.914-.862l-.578.26c.286.636.729 1.065 1.339 1.217.592.147 1.282.018 2.044-.32l-.256-.579zm-2.55-.579c-.356-.784-.79-2.052-1.302-3.818l-.608.177c.513 1.77.958 3.076 1.334 3.903l.576-.262zm-1.302-3.817c-.513-1.78-.969-3.295-1.368-4.544l-.603.193c.396 1.241.851 2.75 1.363 4.526l.608-.175zm-1.853-4.705c-.379.27-1.018.491-1.959.635-.934.143-2.131.205-3.596.185l-.009.633c1.484.021 2.72-.042 3.701-.192.973-.149 1.73-.389 2.231-.746l-.368-.515zm-5.56.82h-.973v.633h.973v-.633zm-1.256.175c-1.176 2.351-2.312 4.128-3.405 5.343l.471.424c1.146-1.275 2.312-3.107 3.5-5.484l-.566-.283zm-3.405 5.343c-.097.109-.195.223-.292.341l.49.401c.092-.111.182-.217.273-.318l-.471-.424zm-.286.334a24.647 24.647 0 01-.371.421l-.001.001.012-.01c.004-.003.017-.013.035-.023a.292.292 0 01.047-.023c.018-.006.063-.021.122-.019a.317.317 0 01.304.316h-.633a.317.317 0 00.532.233 2.733 2.733 0 00.122-.128c.07-.078.173-.196.31-.353l-.479-.415zm5.192-7.401l3.107.063.013-.633-3.107-.063-.013.633zm3.113.063c.656 0 1.322-.021 1.997-.063l-.039-.632c-.663.041-1.316.062-1.958.062v.633zm2.28-.474a688.462 688.462 0 01-2.149-7.011l-.606.183c.952 3.15 1.669 5.489 2.151 7.018l.604-.19zm-2.743-7.046a428.802 428.802 0 01-3.151 7.056l.575.264a432.798 432.798 0 003.157-7.067l-.581-.253zm-2.787 7.495l.139-.033.031-.006h-.001c-.001 0-.011.002-.026.002v-.634a.681.681 0 00-.137.019 5.2 5.2 0 00-.159.038l.153.614z" fill="#000"/></g><path d="M45.826 116.386v.75h-2.422v4.681h-.891v-5.431h3.313zm5.693 2.705c0 .453-.06.855-.182 1.206a2.43 2.43 0 01-.507.882 2.121 2.121 0 01-.8.557 2.859 2.859 0 01-1.044.182c-.358 0-.689-.061-.993-.182a2.254 2.254 0 01-.79-.557 2.677 2.677 0 01-.527-.882 3.676 3.676 0 01-.183-1.206c0-.601.102-1.108.304-1.52.203-.419.494-.736.872-.952.378-.223.827-.335 1.347-.335.494 0 .926.112 1.297.335.379.216.673.533.882.952.216.412.324.919.324 1.52zm-4.104 0c0 .426.054.797.163 1.115.114.311.29.55.526.719.237.169.538.254.902.254.365 0 .666-.085.902-.254a1.43 1.43 0 00.517-.719c.115-.318.172-.689.172-1.115 0-.432-.057-.8-.172-1.104a1.432 1.432 0 00-.527-.699c-.23-.169-.53-.254-.902-.254-.554 0-.956.183-1.206.547-.25.365-.375.868-.375 1.51zm7.696 2.827c-.48 0-.909-.098-1.287-.294a2.096 2.096 0 01-.881-.912c-.21-.412-.314-.939-.314-1.58 0-.669.11-1.213.334-1.632.223-.419.523-.726.902-.922a2.84 2.84 0 011.307-.294c.277 0 .544.031.8.092.257.054.466.121.629.202l-.274.74a5.225 5.225 0 00-.567-.172 2.514 2.514 0 00-.608-.081c-.365 0-.666.077-.902.233a1.374 1.374 0 00-.527.689c-.115.304-.172.682-.172 1.135 0 .432.057.8.172 1.104.115.304.287.534.517.689.23.155.516.233.86.233.298 0 .558-.03.781-.091.23-.061.44-.135.628-.223v.79a2.367 2.367 0 01-.608.213 3.31 3.31 0 01-.79.081zm6.44-4.782h-1.774v4.681h-.882v-4.681h-1.753v-.75h4.408v.75zm3.068-.852c.466 0 .864.102 1.195.304.338.203.595.49.77.862.183.364.274.793.274 1.287v.537h-3.719c.014.614.169 1.084.466 1.408.304.318.727.476 1.267.476.344 0 .648-.03.912-.091.27-.067.547-.162.83-.284v.781c-.276.121-.55.209-.82.263-.27.061-.591.091-.963.091-.513 0-.969-.104-1.368-.314a2.234 2.234 0 01-.922-.932c-.216-.419-.324-.929-.324-1.53 0-.595.098-1.105.294-1.53a2.32 2.32 0 01.841-.983c.365-.23.787-.345 1.267-.345zm-.01.73c-.426 0-.764.138-1.014.415-.243.271-.388.649-.436 1.135h2.767c0-.31-.048-.581-.142-.81a1.141 1.141 0 00-.436-.537c-.189-.136-.436-.203-.74-.203zm7.999.74c0 .337-.102.601-.304.79a1.61 1.61 0 01-.78.385v.041c.337.047.631.168.881.364.25.189.375.487.375.892 0 .23-.044.443-.132.638-.08.196-.21.365-.385.507a1.929 1.929 0 01-.679.334 3.883 3.883 0 01-1.003.112h-2.34v-5.431h2.33c.385 0 .73.044 1.034.131.31.081.554.223.73.426.182.196.273.466.273.811zm-.75 2.472c0-.311-.118-.534-.355-.669-.236-.135-.584-.202-1.043-.202h-1.328v1.742h1.348c.446 0 .787-.064 1.023-.192.237-.135.355-.361.355-.679zm-.152-2.361c0-.257-.095-.442-.284-.557-.182-.122-.483-.183-.901-.183h-1.389v1.49h1.226c.44 0 .774-.061 1.004-.182a.602.602 0 00.344-.568zm7.095 1.226c0 .453-.061.855-.183 1.206a2.428 2.428 0 01-.506.882 2.121 2.121 0 01-.8.557c-.311.121-.66.182-1.044.182-.359 0-.69-.061-.993-.182a2.255 2.255 0 01-.79-.557 2.68 2.68 0 01-.528-.882 3.676 3.676 0 01-.182-1.206c0-.601.101-1.108.304-1.52.203-.419.493-.736.871-.952.379-.223.828-.335 1.348-.335.493 0 .925.112 1.297.335.378.216.672.533.882.952.216.412.324.919.324 1.52zm-4.104 0c0 .426.054.797.162 1.115.115.311.29.55.527.719.236.169.537.254.902.254s.665-.085.902-.254a1.43 1.43 0 00.516-.719c.115-.318.173-.689.173-1.115 0-.432-.058-.8-.173-1.104a1.432 1.432 0 00-.526-.699c-.23-.169-.53-.254-.902-.254-.554 0-.956.183-1.206.547-.25.365-.375.868-.375 1.51zm9.915-4.955c-.027.338-.112.622-.254.851-.135.23-.338.402-.608.517-.27.115-.621.172-1.053.172-.44 0-.794-.057-1.065-.172a1.158 1.158 0 01-.577-.507c-.122-.229-.196-.516-.223-.861h.83c.035.365.13.612.285.74.162.121.418.182.77.182.31 0 .554-.064.73-.192.182-.135.29-.379.324-.73h.84zm-3.557 5.563c0 .061-.003.149-.01.264 0 .108-.004.226-.01.354l-.02.355a7.287 7.287 0 01-.02.263l2.907-4.549h1.095v5.431h-.831v-3.628l.02-.516c.007-.176.013-.308.02-.396l-2.888 4.54h-1.104v-5.431h.841v3.313zm11.93-3.313v4.681h.79v2.635h-.862v-1.885h-3.78v1.885h-.85v-2.635h.436c.31-.432.567-.902.77-1.408a8.157 8.157 0 00.466-1.601 9.422 9.422 0 00.172-1.672h2.857zm-2.068.699a8.517 8.517 0 01-.213 1.429 9.388 9.388 0 01-.445 1.398 5.16 5.16 0 01-.618 1.155h2.482v-3.982h-1.206zm8.644 2.006c0 .453-.06.855-.182 1.206a2.428 2.428 0 01-.507.882 2.12 2.12 0 01-.8.557 2.859 2.859 0 01-1.044.182c-.358 0-.69-.061-.993-.182a2.254 2.254 0 01-.79-.557 2.678 2.678 0 01-.527-.882 3.676 3.676 0 01-.183-1.206c0-.601.102-1.108.304-1.52.203-.419.493-.736.872-.952.378-.223.827-.335 1.347-.335.493 0 .926.112 1.297.335.379.216.672.533.882.952.216.412.324.919.324 1.52zm-4.104 0c0 .426.054.797.163 1.115.114.311.29.55.526.719.237.169.537.254.902.254s.666-.085.902-.254a1.43 1.43 0 00.517-.719c.115-.318.172-.689.172-1.115 0-.432-.057-.8-.172-1.104a1.431 1.431 0 00-.527-.699c-.23-.169-.53-.254-.902-.254-.554 0-.956.183-1.206.547-.25.365-.375.868-.375 1.51zm11.344-2.705v5.431H106v-3.466c0-.141.004-.29.01-.445l.041-.456h-.03l-1.774 4.367h-.75l-1.722-4.367h-.031c.014.148.021.3.021.456.007.155.01.314.01.476v3.435h-.801v-5.431h1.186l1.712 4.367 1.743-4.367h1.186z" fill="#222"/><defs><filter id="filter0_di_184_189" x="9.477" y="39.468" width="59.98" height="29.405" filterUnits="userSpaceOnUse" color-interpolation-filters="sRGB"><feFlood flood-opacity="0" result="BackgroundImageFix"/><feColorMatrix in="SourceAlpha" values="0 0 0 0 0 0 0 0 0 0 0 0 0 0 0 0 0 0 127 0" result="hardAlpha"/><feOffset dy=".422"/><feGaussianBlur stdDeviation=".211"/><feComposite in2="hardAlpha" operator="out"/><feColorMatrix values="0 0 0 0 0 0 0 0 0 0 0 0 0 0 0 0 0 0 0.25 0"/><feBlend in2="BackgroundImageFix" result="effect1_dropShadow_184_189"/><feBlend in="SourceGraphic" in2="effect1_dropShadow_184_189" result="shape"/><feColorMatrix in="SourceAlpha" values="0 0 0 0 0 0 0 0 0 0 0 0 0 0 0 0 0 0 127 0" result="hardAlpha"/><feOffset dy=".422"/><feGaussianBlur stdDeviation=".211"/><feComposite in2="hardAlpha" operator="arithmetic" k2="-1" k3="1"/><feColorMatrix values="0 0 0 0 0 0 0 0 0 0 0 0 0 0 0 0 0 0 0.25 0"/><feBlend in2="shape" result="effect2_innerShadow_184_189"/></filter><filter id="filter1_di_184_189" x="77.034" y="32.911" width="96.664" height="46.814" filterUnits="userSpaceOnUse" color-interpolation-filters="sRGB"><feFlood flood-opacity="0" result="BackgroundImageFix"/><feColorMatrix in="SourceAlpha" values="0 0 0 0 0 0 0 0 0 0 0 0 0 0 0 0 0 0 127 0" result="hardAlpha"/><feOffset dy=".422"/><feGaussianBlur stdDeviation=".211"/><feComposite in2="hardAlpha" operator="out"/><feColorMatrix values="0 0 0 0 0 0 0 0 0 0 0 0 0 0 0 0 0 0 0.25 0"/><feBlend in2="BackgroundImageFix" result="effect1_dropShadow_184_189"/><feBlend in="SourceGraphic" in2="effect1_dropShadow_184_189" result="shape"/><feColorMatrix in="SourceAlpha" values="0 0 0 0 0 0 0 0 0 0 0 0 0 0 0 0 0 0 127 0" result="hardAlpha"/><feOffset dy=".422"/><feGaussianBlur stdDeviation=".211"/><feComposite in2="hardAlpha" operator="arithmetic" k2="-1" k3="1"/><feColorMatrix values="0 0 0 0 0 0 0 0 0 0 0 0 0 0 0 0 0 0 0.25 0"/><feBlend in2="shape" result="effect2_innerShadow_184_189"/></filter><filter id="filter2_di_184_189" x=".091" y=".842" width="164.844" height="41.895" filterUnits="userSpaceOnUse" color-interpolation-filters="sRGB"><feFlood flood-opacity="0" result="BackgroundImageFix"/><feColorMatrix in="SourceAlpha" values="0 0 0 0 0 0 0 0 0 0 0 0 0 0 0 0 0 0 127 0" result="hardAlpha"/><feOffset dy=".422"/><feGaussianBlur stdDeviation=".211"/><feComposite in2="hardAlpha" operator="out"/><feColorMatrix values="0 0 0 0 0 0 0 0 0 0 0 0 0 0 0 0 0 0 0.25 0"/><feBlend in2="BackgroundImageFix" result="effect1_dropShadow_184_189"/><feBlend in="SourceGraphic" in2="effect1_dropShadow_184_189" result="shape"/><feColorMatrix in="SourceAlpha" values="0 0 0 0 0 0 0 0 0 0 0 0 0 0 0 0 0 0 127 0" result="hardAlpha"/><feOffset dy=".422"/><feGaussianBlur stdDeviation=".211"/><feComposite in2="hardAlpha" operator="arithmetic" k2="-1" k3="1"/><feColorMatrix values="0 0 0 0 0 0 0 0 0 0 0 0 0 0 0 0 0 0 0.25 0"/><feBlend in2="shape" result="effect2_innerShadow_184_189"/></filter><filter id="filter3_di_184_189" x="30.268" y="52.028" width="4.811" height="4.291" filterUnits="userSpaceOnUse" color-interpolation-filters="sRGB"><feFlood flood-opacity="0" result="BackgroundImageFix"/><feColorMatrix in="SourceAlpha" values="0 0 0 0 0 0 0 0 0 0 0 0 0 0 0 0 0 0 127 0" result="hardAlpha"/><feOffset dy=".422"/><feGaussianBlur stdDeviation=".211"/><feComposite in2="hardAlpha" operator="out"/><feColorMatrix values="0 0 0 0 0 0 0 0 0 0 0 0 0 0 0 0 0 0 0.25 0"/><feBlend in2="BackgroundImageFix" result="effect1_dropShadow_184_189"/><feBlend in="SourceGraphic" in2="effect1_dropShadow_184_189" result="shape"/><feColorMatrix in="SourceAlpha" values="0 0 0 0 0 0 0 0 0 0 0 0 0 0 0 0 0 0 127 0" result="hardAlpha"/><feOffset dy=".422"/><feGaussianBlur stdDeviation=".211"/><feComposite in2="hardAlpha" operator="arithmetic" k2="-1" k3="1"/><feColorMatrix values="0 0 0 0 0 0 0 0 0 0 0 0 0 0 0 0 0 0 0.25 0"/><feBlend in2="shape" result="effect2_innerShadow_184_189"/></filter><filter id="filter4_di_184_189" x="37.12" y="52.028" width="4.811" height="4.291" filterUnits="userSpaceOnUse" color-interpolation-filters="sRGB"><feFlood flood-opacity="0" result="BackgroundImageFix"/><feColorMatrix in="SourceAlpha" values="0 0 0 0 0 0 0 0 0 0 0 0 0 0 0 0 0 0 127 0" result="hardAlpha"/><feOffset dy=".422"/><feGaussianBlur stdDeviation=".211"/><feComposite in2="hardAlpha" operator="out"/><feColorMatrix values="0 0 0 0 0 0 0 0 0 0 0 0 0 0 0 0 0 0 0.25 0"/><feBlend in2="BackgroundImageFix" result="effect1_dropShadow_184_189"/><feBlend in="SourceGraphic" in2="effect1_dropShadow_184_189" result="shape"/><feColorMatrix in="SourceAlpha" values="0 0 0 0 0 0 0 0 0 0 0 0 0 0 0 0 0 0 127 0" result="hardAlpha"/><feOffset dy=".422"/><feGaussianBlur stdDeviation=".211"/><feComposite in2="hardAlpha" operator="arithmetic" k2="-1" k3="1"/><feColorMatrix values="0 0 0 0 0 0 0 0 0 0 0 0 0 0 0 0 0 0 0.25 0"/><feBlend in2="shape" result="effect2_innerShadow_184_189"/></filter><filter id="filter5_di_184_189" x="30.268" y="57.253" width="4.811" height="4.291" filterUnits="userSpaceOnUse" color-interpolation-filters="sRGB"><feFlood flood-opacity="0" result="BackgroundImageFix"/><feColorMatrix in="SourceAlpha" values="0 0 0 0 0 0 0 0 0 0 0 0 0 0 0 0 0 0 127 0" result="hardAlpha"/><feOffset dy=".422"/><feGaussianBlur stdDeviation=".211"/><feComposite in2="hardAlpha" operator="out"/><feColorMatrix values="0 0 0 0 0 0 0 0 0 0 0 0 0 0 0 0 0 0 0.25 0"/><feBlend in2="BackgroundImageFix" result="effect1_dropShadow_184_189"/><feBlend in="SourceGraphic" in2="effect1_dropShadow_184_189" result="shape"/><feColorMatrix in="SourceAlpha" values="0 0 0 0 0 0 0 0 0 0 0 0 0 0 0 0 0 0 127 0" result="hardAlpha"/><feOffset dy=".422"/><feGaussianBlur stdDeviation=".211"/><feComposite in2="hardAlpha" operator="arithmetic" k2="-1" k3="1"/><feColorMatrix values="0 0 0 0 0 0 0 0 0 0 0 0 0 0 0 0 0 0 0.25 0"/><feBlend in2="shape" result="effect2_innerShadow_184_189"/></filter><filter id="filter6_di_184_189" x="37.12" y="57.253" width="4.811" height="4.291" filterUnits="userSpaceOnUse" color-interpolation-filters="sRGB"><feFlood flood-opacity="0" result="BackgroundImageFix"/><feColorMatrix in="SourceAlpha" values="0 0 0 0 0 0 0 0 0 0 0 0 0 0 0 0 0 0 127 0" result="hardAlpha"/><feOffset dy=".422"/><feGaussianBlur stdDeviation=".211"/><feComposite in2="hardAlpha" operator="out"/><feColorMatrix values="0 0 0 0 0 0 0 0 0 0 0 0 0 0 0 0 0 0 0.25 0"/><feBlend in2="BackgroundImageFix" result="effect1_dropShadow_184_189"/><feBlend in="SourceGraphic" in2="effect1_dropShadow_184_189" result="shape"/><feColorMatrix in="SourceAlpha" values="0 0 0 0 0 0 0 0 0 0 0 0 0 0 0 0 0 0 127 0" result="hardAlpha"/><feOffset dy=".422"/><feGaussianBlur stdDeviation=".211"/><feComposite in2="hardAlpha" operator="arithmetic" k2="-1" k3="1"/><feColorMatrix values="0 0 0 0 0 0 0 0 0 0 0 0 0 0 0 0 0 0 0.25 0"/><feBlend in2="shape" result="effect2_innerShadow_184_189"/></filter><filter id="filter7_di_184_189" x="106.476" y="55.475" width="8.113" height="7.182" filterUnits="userSpaceOnUse" color-interpolation-filters="sRGB"><feFlood flood-opacity="0" result="BackgroundImageFix"/><feColorMatrix in="SourceAlpha" values="0 0 0 0 0 0 0 0 0 0 0 0 0 0 0 0 0 0 127 0" result="hardAlpha"/><feOffset dy=".422"/><feGaussianBlur stdDeviation=".211"/><feComposite in2="hardAlpha" operator="out"/><feColorMatrix values="0 0 0 0 0 0 0 0 0 0 0 0 0 0 0 0 0 0 0.25 0"/><feBlend in2="BackgroundImageFix" result="effect1_dropShadow_184_189"/><feBlend in="SourceGraphic" in2="effect1_dropShadow_184_189" result="shape"/><feColorMatrix in="SourceAlpha" values="0 0 0 0 0 0 0 0 0 0 0 0 0 0 0 0 0 0 127 0" result="hardAlpha"/><feOffset dy=".422"/><feGaussianBlur stdDeviation=".211"/><feComposite in2="hardAlpha" operator="arithmetic" k2="-1" k3="1"/><feColorMatrix values="0 0 0 0 0 0 0 0 0 0 0 0 0 0 0 0 0 0 0.25 0"/><feBlend in2="shape" result="effect2_innerShadow_184_189"/></filter><filter id="filter8_di_184_189" x="117.895" y="55.475" width="8.113" height="7.182" filterUnits="userSpaceOnUse" color-interpolation-filters="sRGB"><feFlood flood-opacity="0" result="BackgroundImageFix"/><feColorMatrix in="SourceAlpha" values="0 0 0 0 0 0 0 0 0 0 0 0 0 0 0 0 0 0 127 0" result="hardAlpha"/><feOffset dy=".422"/><feGaussianBlur stdDeviation=".211"/><feComposite in2="hardAlpha" operator="out"/><feColorMatrix values="0 0 0 0 0 0 0 0 0 0 0 0 0 0 0 0 0 0 0.25 0"/><feBlend in2="BackgroundImageFix" result="effect1_dropShadow_184_189"/><feBlend in="SourceGraphic" in2="effect1_dropShadow_184_189" result="shape"/><feColorMatrix in="SourceAlpha" values="0 0 0 0 0 0 0 0 0 0 0 0 0 0 0 0 0 0 127 0" result="hardAlpha"/><feOffset dy=".422"/><feGaussianBlur stdDeviation=".211"/><feComposite in2="hardAlpha" operator="arithmetic" k2="-1" k3="1"/><feColorMatrix values="0 0 0 0 0 0 0 0 0 0 0 0 0 0 0 0 0 0 0.25 0"/><feBlend in2="shape" result="effect2_innerShadow_184_189"/></filter><filter id="filter9_di_184_189" x="106.476" y="65.035" width="8.113" height="7.182" filterUnits="userSpaceOnUse" color-interpolation-filters="sRGB"><feFlood flood-opacity="0" result="BackgroundImageFix"/><feColorMatrix in="SourceAlpha" values="0 0 0 0 0 0 0 0 0 0 0 0 0 0 0 0 0 0 127 0" result="hardAlpha"/><feOffset dy=".422"/><feGaussianBlur stdDeviation=".211"/><feComposite in2="hardAlpha" operator="out"/><feColorMatrix values="0 0 0 0 0 0 0 0 0 0 0 0 0 0 0 0 0 0 0.25 0"/><feBlend in2="BackgroundImageFix" result="effect1_dropShadow_184_189"/><feBlend in="SourceGraphic" in2="effect1_dropShadow_184_189" result="shape"/><feColorMatrix in="SourceAlpha" values="0 0 0 0 0 0 0 0 0 0 0 0 0 0 0 0 0 0 127 0" result="hardAlpha"/><feOffset dy=".422"/><feGaussianBlur stdDeviation=".211"/><feComposite in2="hardAlpha" operator="arithmetic" k2="-1" k3="1"/><feColorMatrix values="0 0 0 0 0 0 0 0 0 0 0 0 0 0 0 0 0 0 0.25 0"/><feBlend in2="shape" result="effect2_innerShadow_184_189"/></filter><filter id="filter10_di_184_189" x="117.895" y="64.702" width="8.113" height="7.182" filterUnits="userSpaceOnUse" color-interpolation-filters="sRGB"><feFlood flood-opacity="0" result="BackgroundImageFix"/><feColorMatrix in="SourceAlpha" values="0 0 0 0 0 0 0 0 0 0 0 0 0 0 0 0 0 0 127 0" result="hardAlpha"/><feOffset dy=".422"/><feGaussianBlur stdDeviation=".211"/><feComposite in2="hardAlpha" operator="out"/><feColorMatrix values="0 0 0 0 0 0 0 0 0 0 0 0 0 0 0 0 0 0 0.25 0"/><feBlend in2="BackgroundImageFix" result="effect1_dropShadow_184_189"/><feBlend in="SourceGraphic" in2="effect1_dropShadow_184_189" result="shape"/><feColorMatrix in="SourceAlpha" values="0 0 0 0 0 0 0 0 0 0 0 0 0 0 0 0 0 0 127 0" result="hardAlpha"/><feOffset dy=".422"/><feGaussianBlur stdDeviation=".211"/><feComposite in2="hardAlpha" operator="arithmetic" k2="-1" k3="1"/><feColorMatrix values="0 0 0 0 0 0 0 0 0 0 0 0 0 0 0 0 0 0 0.25 0"/><feBlend in2="shape" result="effect2_innerShadow_184_189"/></filter><filter id="filter11_d_184_189" x="7.218" y="88.165" width="131.126" height="24.949" filterUnits="userSpaceOnUse" color-interpolation-filters="sRGB"><feFlood flood-opacity="0" result="BackgroundImageFix"/><feColorMatrix in="SourceAlpha" values="0 0 0 0 0 0 0 0 0 0 0 0 0 0 0 0 0 0 127 0" result="hardAlpha"/><feOffset dy=".422"/><feGaussianBlur stdDeviation=".211"/><feComposite in2="hardAlpha" operator="out"/><feColorMatrix values="0 0 0 0 0 0 0 0 0 0 0 0 0 0 0 0 0 0 0.25 0"/><feBlend in2="BackgroundImageFix" result="effect1_dropShadow_184_189"/><feBlend in="SourceGraphic" in2="effect1_dropShadow_184_189" result="shape"/></filter></defs></svg>