<svg width="28" height="28" fill="none" xmlns="http://www.w3.org/2000/svg"><path d="M16.568 1.5c2.658.27 5.14 1.404 7.037 3.215C25.502 6.526 26.7 8.906 27 11.46M16.568 6.518a6.602 6.602 0 013.378 1.747 6.197 6.197 0 011.773 3.271m5.216 8.681v3.764c.001.35-.073.695-.219 1.015a2.5 2.5 0 01-.626.844 2.633 2.633 0 01-.928.528 2.704 2.704 0 01-1.07.122 26.467 26.467 0 01-11.254-3.851 24.968 24.968 0 01-7.824-7.527A24.226 24.226 0 011.011 4.234a2.42 2.42 0 01.125-1.027 2.49 2.49 0 01.546-.89c.244-.258.541-.463.872-.604a2.71 2.71 0 011.052-.214h3.912a2.67 2.67 0 011.726.607c.48.397.793.948.882 1.55.165 1.205.471 2.388.913 3.526.175.449.213.937.109 1.406-.104.47-.346.9-.696 1.241l-1.656 1.593c1.856 3.14 4.56 5.741 7.824 7.527l1.656-1.593c.355-.337.802-.57 1.29-.67.488-.1.995-.063 1.462.105 1.183.425 2.412.72 3.664.879a2.637 2.637 0 011.625.862c.414.47.634 1.07.618 1.684z" stroke="#fff" stroke-width="2" stroke-linecap="round" stroke-linejoin="round"/></svg>