<svg width="21" height="29" fill="none" xmlns="http://www.w3.org/2000/svg"><path d="M5.206 4.701c.552 0 1.082.294 1.472.816.39.522.61 1.231.61 1.97 0 .739-.22 1.447-.61 1.97-.39.522-.92.815-1.472.815-1.156 0-2.083-1.24-2.083-2.785 0-1.546.937-2.786 2.083-2.786zM18.74 15.844V4.464c0-2.172-1.322-3.941-2.946-3.941-.78 0-1.53.418-2.082 1.156l-1.302 1.74a1.368 1.368 0 00-.53-.11c-.428 0-.802.166-1.125.445l2.873 3.844a3.473 3.473 0 00.26-2.2l1.302-1.755a.822.822 0 01.442-.312.663.663 0 01.497.068.976.976 0 01.385.426c.094.19.144.412.144.64v11.379H9.526a6.177 6.177 0 01-.853-1.003l-1.458-2.16a2.104 2.104 0 00-.718-.695 1.906 1.906 0 00-1.041-.32c-1.291 0-2.333 1.392-2.333 3.133v1.045H0V24.2c0 1.532.937 2.785 2.082 2.785 0 .766.469 1.393 1.041 1.393H17.7c.573 0 1.041-.627 1.041-1.393 1.146 0 2.083-1.253 2.083-2.785v-8.357H18.74zm0 8.357H2.082v-5.572h16.659v5.572z" fill="#000"/></svg>