<svg width="25" height="30" fill="none" xmlns="http://www.w3.org/2000/svg"><path d="M0 29.738V9.951L12.5.06 25 9.952v19.785H0zm3.125-3.298h18.75V11.601L12.5 4.181l-9.375 7.42V26.44zm1.563-1.649H6.25v-2.473h12.5v2.473h1.563v-6.595c0-.907-.307-1.683-.92-2.33-.612-.646-1.347-.968-2.206-.967H11.72v5.77H6.25v-7.42H4.687v11.542zm4.296-4.946c.547 0 1.01-.2 1.388-.598.378-.4.566-.887.566-1.463 0-.577-.19-1.065-.568-1.464a1.83 1.83 0 00-1.386-.597c-.546 0-1.009.2-1.387.599-.378.399-.567.886-.566 1.462 0 .577.19 1.065.567 1.464.379.4.84.598 1.386.597z" fill="#000"/></svg>