<svg width="21" height="20" fill="none" xmlns="http://www.w3.org/2000/svg"><path d="M19.382.002c-.247.02-.49.085-.718.191h-.003c-.22.097-1.262.585-2.847 1.325l-5.68 2.663-8.082 3.791.048-.02s-.276.101-.565.321a1.653 1.653 0 00-.45.486 1.547 1.547 0 00-.214.95c.07.62.43.99.688 1.195.262.207.511.304.511.304h.006l3.757 1.409c.169.602 1.145 4.176 1.38 4.999.138.492.273.799.441 1.034.082.12.177.22.292.3a.82.82 0 00.19.091l-.04-.01c.012.003.022.014.03.017.03.01.052.013.09.02.596.2 1.073-.211 1.073-.211l.027-.024 2.218-2.248 3.718 3.175.085.04c.775.379 1.56.168 1.974-.204.418-.374.58-.853.58-.853l.027-.077 2.873-16.385c.082-.405.102-.783.012-1.15a1.543 1.543 0 00-.6-.898 1.328 1.328 0 00-.821-.231zm-.078 1.756c-.003.054.006.048-.015.152v.01l-2.847 16.214c-.012.023-.033.074-.09.124-.06.053-.107.087-.357-.024l-4.547-3.88L8.7 17.14l.577-4.103 7.43-7.709c.305-.317.203-.384.203-.384.022-.388-.462-.113-.462-.113L7.08 11.29l-.003-.016-4.49-1.684v-.003l-.012-.003a.195.195 0 00.024-.01l.024-.014.024-.009 8.085-3.791c2.04-.957 4.096-1.92 5.677-2.664.938-.44 1.877-.876 2.817-1.31.063-.028.033-.029.078-.029z" fill="#4D4D4D"/></svg>