<svg width="28" height="17" fill="none" xmlns="http://www.w3.org/2000/svg"><path fill-rule="evenodd" clip-rule="evenodd" d="M27.648 13.838a13.022 13.022 0 00-2.456-3.386c-.334-.372-.683-.73-1.047-1.073l-.044-.043c-.135-.13-.269-.26-.4-.394a33.85 33.85 0 003.482-5.982l.038-.084.026-.09c.127-.414.27-1.202-.239-1.915-.527-.736-1.37-.868-1.936-.868h-2.6a2.606 2.606 0 00-1.537.417 2.556 2.556 0 00-.996 1.23 19.923 19.923 0 01-2.09 3.736V2.38c0-.389-.036-1.04-.459-1.588-.504-.658-1.234-.788-1.74-.788h-4.126a2.113 2.113 0 00-1.459.538 2.061 2.061 0 00-.68 1.383l-.004.051v.052c0 .554.222.963.4 1.22.08.115.164.22.219.286l.011.015c.058.071.096.118.135.17.101.135.246.346.288.887v1.683a22.466 22.466 0 01-2.026-4.332l-.01-.025-.008-.024c-.142-.365-.367-.895-.82-1.299C7.044.134 6.419.003 5.85.003H3.213c-.575 0-1.268.132-1.785.67-.508.53-.566 1.165-.566 1.501v.153l.033.149a22.075 22.075 0 004.397 9.16 11.677 11.677 0 003.916 3.759 11.849 11.849 0 005.214 1.602l.048.003h.048c.84 0 1.716-.072 2.374-.505.887-.585.958-1.481.958-1.93v-1.3c.228.184.51.428.856.757.419.413.752.772 1.037 1.085l.153.167c.222.244.44.486.64.683.25.248.558.521.945.723.42.218.86.318 1.328.318h2.639c.556 0 1.353-.13 1.914-.773.61-.699.565-1.556.373-2.172l-.035-.11-.052-.105zm-6.617.121a30.019 30.019 0 00-1.107-1.158l-.004-.004c-1.57-1.494-2.302-1.753-2.82-1.753-.276 0-.58.03-.778.274a.877.877 0 00-.17.398c-.028.167-.04.337-.038.507v2.343c0 .291-.048.413-.184.502-.182.12-.57.217-1.401.217a10.096 10.096 0 01-4.47-1.385 9.948 9.948 0 01-3.341-3.243l-.01-.015-.01-.014a20.373 20.373 0 01-4.1-8.481c.004-.149.037-.239.09-.294.054-.057.187-.137.525-.137H5.85c.293 0 .446.064.556.161.122.112.231.3.36.636.648 1.88 1.523 3.64 2.352 4.932.414.646.822 1.184 1.19 1.565.183.19.363.347.535.459.165.107.354.193.548.193a.87.87 0 00.336-.06.602.602 0 00.289-.266c.12-.214.153-.53.153-.945V4.538c-.062-.935-.347-1.461-.625-1.835a6.491 6.491 0 00-.173-.22l-.016-.019a3.035 3.035 0 01-.14-.182.442.442 0 01-.099-.245.356.356 0 01.123-.234c.07-.06.16-.092.252-.088h4.159c.238 0 .318.057.358.11.058.075.107.23.107.554V7.55c0 .614.286 1.03.703 1.03.479 0 .825-.286 1.428-.883l.01-.011.01-.01a21.662 21.662 0 003.285-5.394l.005-.014a.838.838 0 01.334-.42.855.855 0 01.522-.134h2.66c.362 0 .48.091.519.145.04.057.07.18 0 .42a32.136 32.136 0 01-3.504 5.94l-.01.013c-.132.202-.28.426-.3.682-.023.276.097.526.309.796.154.224.472.531.795.843l.03.03c.337.326.704.68.998 1.023l.008.008.008.01c.876.862 1.605 1.86 2.158 2.953.088.297.034.45-.035.53-.08.09-.26.176-.6.176h-2.64a1.064 1.064 0 01-.516-.12 2.258 2.258 0 01-.525-.415c-.166-.164-.345-.361-.565-.603l-.17-.187h-.001z" fill="#fff"/></svg>