<svg width="39" height="24" fill="none" xmlns="http://www.w3.org/2000/svg"><path d="M38.152 2.19c.071-.237.106-.456.096-.65-.023-.567-.412-.978-1.328-.978h-4.09c-1.033 0-1.51.625-1.788 1.252 0 0-2.55 5.248-5.489 8.71-.953 1.001-1.437.976-1.953.976-.277 0-.975-.334-.975-1.252V2.147c0-1.084-.27-1.584-1.144-1.584h-7.264c-.636 0-.967.5-.967 1.001 0 1.042 1.403 1.292 1.563 4.213v5.66c0 1.376-.24 1.626-.755 1.626-1.39 0-4.128-4.688-5.961-10.832C7.7 1.021 7.303.563 6.27.563H2.14C.949.563.75 1.147.75 1.772c0 1.126.938 7.217 6.055 14.22C10.515 21.07 15.405 24 19.733 24c2.622 0 2.89-.667 2.89-1.71v-4.643c.002-1.252.288-1.46 1.122-1.46.596 0 1.81.391 4.153 3.125C30.602 22.466 31.092 24 32.642 24h4.09c.95 0 1.496-.398 1.518-1.172a2.408 2.408 0 00-.087-.662c-.304-.9-1.694-3.1-3.429-5.197-.96-1.161-1.909-2.311-2.345-2.936-.292-.408-.403-.695-.389-.97.014-.29.164-.565.39-.949-.042 0 5.246-7.423 5.762-9.925z" fill="#fff"/></svg>