<svg width="25" height="25" viewBox="0 0 25 25" fill="none" xmlns="http://www.w3.org/2000/svg">
<g id="instagram / 24 / Outline">
<path id="Vector" d="M18.2023 5.96C17.965 5.96 17.733 6.03038 17.5356 6.16224C17.3383 6.29409 17.1845 6.48151 17.0936 6.70078C17.0028 6.92005 16.9791 7.16133 17.0254 7.39411C17.0717 7.62689 17.186 7.84071 17.3538 8.00853C17.5216 8.17635 17.7354 8.29064 17.9682 8.33694C18.201 8.38324 18.4423 8.35948 18.6615 8.26866C18.8808 8.17783 19.0682 8.02402 19.2001 7.82668C19.3319 7.62935 19.4023 7.39734 19.4023 7.16C19.4023 6.84174 19.2759 6.53652 19.0508 6.31147C18.8258 6.08643 18.5206 5.96 18.2023 5.96ZM22.8023 8.38C22.7829 7.5503 22.6275 6.7294 22.3423 5.95C22.088 5.28313 21.6923 4.67928 21.1823 4.18C20.6871 3.66743 20.0819 3.27418 19.4123 3.03C18.635 2.73616 17.8132 2.57721 16.9823 2.56C15.9223 2.5 15.5823 2.5 12.8623 2.5C10.1423 2.5 9.8023 2.5 8.7423 2.56C7.91146 2.57721 7.08965 2.73616 6.3123 3.03C5.64398 3.27665 5.03924 3.66956 4.5423 4.18C4.02973 4.67518 3.63648 5.28044 3.3923 5.95C3.09847 6.72734 2.93951 7.54915 2.9223 8.38C2.8623 9.44 2.8623 9.78 2.8623 12.5C2.8623 15.22 2.8623 15.56 2.9223 16.62C2.93951 17.4508 3.09847 18.2727 3.3923 19.05C3.63648 19.7196 4.02973 20.3248 4.5423 20.82C5.03924 21.3304 5.64398 21.7234 6.3123 21.97C7.08965 22.2638 7.91146 22.4228 8.7423 22.44C9.8023 22.5 10.1423 22.5 12.8623 22.5C15.5823 22.5 15.9223 22.5 16.9823 22.44C17.8132 22.4228 18.635 22.2638 19.4123 21.97C20.0819 21.7258 20.6871 21.3326 21.1823 20.82C21.6945 20.3226 22.0906 19.7182 22.3423 19.05C22.6275 18.2706 22.7829 17.4497 22.8023 16.62C22.8023 15.56 22.8623 15.22 22.8623 12.5C22.8623 9.78 22.8623 9.44 22.8023 8.38ZM21.0023 16.5C20.995 17.1348 20.8801 17.7637 20.6623 18.36C20.5026 18.7952 20.2462 19.1884 19.9123 19.51C19.588 19.8405 19.1955 20.0964 18.7623 20.26C18.166 20.4778 17.5371 20.5927 16.9023 20.6C15.9023 20.65 15.5323 20.66 12.9023 20.66C10.2723 20.66 9.9023 20.66 8.9023 20.6C8.2432 20.6123 7.5869 20.5109 6.9623 20.3C6.54809 20.1281 6.17366 19.8728 5.8623 19.55C5.53039 19.2287 5.27715 18.8352 5.1223 18.4C4.87816 17.7952 4.74275 17.1519 4.7223 16.5C4.7223 15.5 4.6623 15.13 4.6623 12.5C4.6623 9.87 4.6623 9.5 4.7223 8.5C4.72679 7.85106 4.84525 7.20795 5.0723 6.6C5.24835 6.17791 5.51857 5.80166 5.8623 5.5C6.16612 5.15617 6.54159 4.8831 6.9623 4.7C7.57186 4.48004 8.2143 4.36508 8.8623 4.36C9.8623 4.36 10.2323 4.3 12.8623 4.3C15.4923 4.3 15.8623 4.3 16.8623 4.36C17.4971 4.36728 18.126 4.48225 18.7223 4.7C19.1767 4.86865 19.5846 5.14285 19.9123 5.5C20.24 5.80718 20.4961 6.18273 20.6623 6.6C20.8846 7.20893 20.9996 7.85178 21.0023 8.5C21.0523 9.5 21.0623 9.87 21.0623 12.5C21.0623 15.13 21.0523 15.5 21.0023 16.5ZM12.8623 7.37C11.8481 7.37198 10.8573 7.67453 10.015 8.23942C9.17265 8.80431 8.51668 9.6062 8.12994 10.5438C7.74319 11.4813 7.64303 12.5125 7.8421 13.5069C8.04117 14.5014 8.53054 15.4145 9.24838 16.131C9.96622 16.8474 10.8803 17.335 11.8752 17.5321C12.87 17.7293 13.901 17.6271 14.8378 17.2385C15.7746 16.85 16.5752 16.1924 17.1384 15.349C17.7017 14.5056 18.0023 13.5142 18.0023 12.5C18.0036 11.8251 17.8715 11.1566 17.6135 10.533C17.3556 9.90931 16.9769 9.34281 16.4992 8.86605C16.0215 8.38929 15.4543 8.01168 14.8301 7.75493C14.206 7.49818 13.5372 7.36736 12.8623 7.37ZM12.8623 15.83C12.2037 15.83 11.5599 15.6347 11.0123 15.2688C10.4646 14.9029 10.0378 14.3828 9.78579 13.7743C9.53375 13.1659 9.4678 12.4963 9.59629 11.8503C9.72478 11.2044 10.0419 10.611 10.5076 10.1453C10.9733 9.67963 11.5667 9.36247 12.2127 9.23398C12.8586 9.1055 13.5282 9.17144 14.1366 9.42348C14.7451 9.67552 15.2652 10.1023 15.6311 10.65C15.997 11.1976 16.1923 11.8414 16.1923 12.5C16.1923 12.9373 16.1062 13.3703 15.9388 13.7743C15.7715 14.1784 15.5262 14.5454 15.217 14.8547C14.9078 15.1639 14.5407 15.4092 14.1366 15.5765C13.7326 15.7439 13.2996 15.83 12.8623 15.83Z" fill="white"/>
</g>
</svg>
