<svg width="41" height="41" viewBox="0 0 41 41" fill="none" xmlns="http://www.w3.org/2000/svg">
<path d="M34.2812 9.67188C34.2812 11.3028 32.959 12.625 31.3281 12.625C29.6972 12.625 28.375 11.3028 28.375 9.67188C28.375 8.0409 29.6972 6.71875 31.3281 6.71875C32.959 6.71875 34.2812 8.0409 34.2812 9.67188Z" fill="white"/>
<path fill-rule="evenodd" clip-rule="evenodd" d="M20.5 30.3438C25.9365 30.3438 30.3438 25.9365 30.3438 20.5C30.3438 15.0635 25.9365 10.6562 20.5 10.6562C15.0635 10.6562 10.6562 15.0635 10.6562 20.5C10.6562 25.9365 15.0635 30.3438 20.5 30.3438ZM20.5 26.4062C23.762 26.4062 26.4062 23.762 26.4062 20.5C26.4062 17.238 23.762 14.5938 20.5 14.5938C17.238 14.5938 14.5938 17.238 14.5938 20.5C14.5938 23.762 17.238 26.4062 20.5 26.4062Z" fill="white"/>
<path fill-rule="evenodd" clip-rule="evenodd" d="M0.8125 19.7125C0.8125 13.0969 0.8125 9.78902 2.09998 7.26224C3.23249 5.03956 5.03956 3.23249 7.26224 2.09998C9.78902 0.8125 13.0969 0.8125 19.7125 0.8125H21.2875C27.9031 0.8125 31.211 0.8125 33.7377 2.09998C35.9604 3.23249 37.7675 5.03956 38.8999 7.26224C40.1875 9.78902 40.1875 13.0969 40.1875 19.7125V21.2875C40.1875 27.9031 40.1875 31.211 38.8999 33.7377C37.7675 35.9604 35.9604 37.7675 33.7377 38.8999C31.211 40.1875 27.9031 40.1875 21.2875 40.1875H19.7125C13.0969 40.1875 9.78902 40.1875 7.26224 38.8999C5.03956 37.7675 3.23249 35.9604 2.09998 33.7377C0.8125 31.211 0.8125 27.9031 0.8125 21.2875V19.7125ZM19.7125 4.75H21.2875C24.6604 4.75 26.953 4.75307 28.7252 4.89785C30.4516 5.03889 31.3344 5.29454 31.9503 5.60832C33.4319 6.36333 34.6366 7.56805 35.3916 9.04975C35.7054 9.66558 35.9612 10.5484 36.1021 12.2748C36.2468 14.047 36.25 16.3396 36.25 19.7125V21.2875C36.25 24.6604 36.2468 26.953 36.1021 28.7252C35.9612 30.4516 35.7054 31.3344 35.3916 31.9503C34.6366 33.4319 33.4319 34.6366 31.9503 35.3916C31.3344 35.7054 30.4516 35.9612 28.7252 36.1021C26.953 36.2468 24.6604 36.25 21.2875 36.25H19.7125C16.3396 36.25 14.047 36.2468 12.2748 36.1021C10.5484 35.9612 9.66558 35.7054 9.04975 35.3916C7.56805 34.6366 6.36333 33.4319 5.60832 31.9503C5.29454 31.3344 5.03889 30.4516 4.89785 28.7252C4.75307 26.953 4.75 24.6604 4.75 21.2875V19.7125C4.75 16.3396 4.75307 14.047 4.89785 12.2748C5.03889 10.5484 5.29454 9.66558 5.60832 9.04975C6.36333 7.56805 7.56805 6.36333 9.04975 5.60832C9.66558 5.29454 10.5484 5.03889 12.2748 4.89785C14.047 4.75307 16.3396 4.75 19.7125 4.75Z" fill="white"/>
</svg>
