<svg width="25" height="43" viewBox="0 0 25 43" fill="none" xmlns="http://www.w3.org/2000/svg">
<path d="M12.5 22.1659C18.3706 22.1659 23.1455 17.3911 23.1455 11.5257C23.1455 5.64983 18.3706 0.875 12.5 0.875C6.62934 0.875 1.85451 5.64983 1.85451 11.5205C1.85451 17.3911 6.62934 22.1659 12.5 22.1659ZM12.5 7.11617C14.9331 7.11617 16.9097 9.09277 16.9097 11.5259C16.9097 13.9536 14.9331 15.9302 12.5 15.9302C10.0723 15.9302 8.09024 13.9536 8.09024 11.5259C8.09024 9.09277 10.0723 7.11617 12.5 7.11617ZM16.8076 30.8512C18.9776 30.3569 21.0669 29.4975 22.9898 28.289C24.4454 27.3706 24.8858 25.4478 23.9673 23.9869C23.0487 22.526 21.126 22.0854 19.6649 23.0039C15.3037 25.7484 9.69086 25.7432 5.32957 23.0039C3.86867 22.0854 1.94578 22.526 1.02725 23.9869C0.108907 25.4423 0.5493 27.3706 2.00494 28.289C3.92764 29.4975 6.01711 30.3569 8.18696 30.8512L2.24119 36.8022C1.02199 38.0214 1.02199 39.9925 2.24119 41.2119C2.85342 41.8189 3.64838 42.125 4.44334 42.125C5.24356 42.125 6.03852 41.8189 6.65094 41.2119L12.5 35.3629L18.349 41.2119C19.5684 42.4311 21.5396 42.4311 22.7588 41.2119C23.978 39.9927 23.978 38.0161 22.7588 36.8022L16.8076 30.8512Z" fill="white"/>
</svg>
