<svg width="12" height="21" viewBox="0 0 12 21" fill="none" xmlns="http://www.w3.org/2000/svg">
<g id="Group">
<path id="Vector" d="M4.95854 14.5649C3.42754 14.4049 2.04654 14.0249 0.864541 13.0939C0.717541 12.9779 0.565541 12.8659 0.432541 12.7369C-0.0854588 12.2369 -0.137459 11.6629 0.272541 11.0729C0.622541 10.5669 1.21054 10.4319 1.82154 10.7229C1.93954 10.7779 2.05154 10.8489 2.16054 10.9239C4.36354 12.4479 7.39054 12.4899 9.60154 10.9929C9.82154 10.8229 10.0555 10.6849 10.3265 10.6149C10.8545 10.4789 11.3465 10.6739 11.6295 11.1389C11.9535 11.6689 11.9495 12.1889 11.5505 12.5999C10.9395 13.2329 10.2035 13.6899 9.38654 14.0089C8.61354 14.3109 7.76654 14.4629 6.92954 14.5629C7.05554 14.7019 7.11554 14.7699 7.19454 14.8499C8.33154 15.9999 9.47454 17.1469 10.6085 18.3009C10.9945 18.6949 11.0755 19.1819 10.8625 19.6399C10.6295 20.1399 10.1095 20.4689 9.59854 20.4339C9.27554 20.4109 9.02354 20.2489 8.79854 20.0219C7.94054 19.1519 7.06654 18.2979 6.22554 17.4119C5.98054 17.1539 5.86254 17.2029 5.64654 17.4269C4.78354 18.3219 3.90654 19.2029 3.02254 20.0799C2.62654 20.4729 2.15454 20.5439 1.69454 20.3199C1.20654 20.0799 0.894541 19.5789 0.919541 19.0739C0.935541 18.7319 1.10254 18.4719 1.33554 18.2379C2.46154 17.1059 3.58354 15.9709 4.70654 14.8379C4.78054 14.7619 4.85054 14.6819 4.95854 14.5649Z" fill="white"/>
<path id="Vector_2" d="M5.89165 10.623C3.15965 10.613 0.919645 8.33297 0.934645 5.57697C0.950645 2.79097 3.19265 0.546971 5.95165 0.553971C8.71565 0.560971 10.9346 2.83897 10.9216 5.65397C10.9066 8.40397 8.65165 10.632 5.89165 10.623ZM8.37465 5.58297C8.37649 5.26093 8.31467 4.9417 8.19274 4.64362C8.0708 4.34555 7.89116 4.07452 7.66414 3.8461C7.43711 3.61768 7.16718 3.43638 6.86986 3.31263C6.57254 3.18887 6.25369 3.1251 5.93165 3.12497C5.60657 3.12466 5.28469 3.18912 4.9848 3.31459C4.68491 3.44007 4.41303 3.62403 4.18504 3.85575C3.95704 4.08747 3.7775 4.3623 3.6569 4.66418C3.5363 4.96606 3.47707 5.28894 3.48265 5.61397C3.48303 5.93614 3.54714 6.25506 3.67127 6.55235C3.79541 6.84965 3.97712 7.11946 4.20595 7.34624C4.43478 7.57303 4.70621 7.75231 5.00461 7.87377C5.30301 7.99524 5.62248 8.05648 5.94465 8.05397C6.26681 8.05281 6.58555 7.98783 6.88245 7.8628C7.17936 7.73776 7.44856 7.55514 7.6745 7.32548C7.90043 7.09583 8.07863 6.82369 8.19881 6.52478C8.31898 6.22587 8.37874 5.90611 8.37465 5.58397V5.58297Z" fill="white"/>
</g>
</svg>
