<svg width="28" height="28" viewBox="0 0 28 28" fill="none" xmlns="http://www.w3.org/2000/svg">
<path d="M16.5677 1.50012C19.2257 1.76955 21.7084 2.90366 23.6054 4.71489C25.5024 6.52611 26.6999 8.90597 27 11.4609M16.5677 6.51813C17.8503 6.76143 19.0272 7.36997 19.9457 8.26479C20.8642 9.1596 21.4819 10.2994 21.7187 11.5361M26.9348 20.2173V23.9808C26.9363 24.3302 26.8619 24.676 26.7164 24.9961C26.5709 25.3163 26.3575 25.6036 26.0899 25.8398C25.8223 26.076 25.5063 26.2558 25.1623 26.3678C24.8183 26.4797 24.4537 26.5213 24.092 26.4898C20.0793 26.0704 16.2248 24.7513 12.8382 22.6385C9.68741 20.7124 7.0161 18.1426 5.01397 15.1115C2.81012 11.8387 1.43862 8.1126 1.01058 4.23494C0.977997 3.88803 1.02085 3.53839 1.13642 3.20828C1.252 2.87818 1.43775 2.57484 1.68186 2.31758C1.92597 2.06032 2.22308 1.85478 2.55429 1.71404C2.8855 1.5733 3.24354 1.50045 3.60561 1.50012H7.51772C8.15058 1.49413 8.7641 1.70972 9.24395 2.10671C9.7238 2.50371 10.0372 3.05501 10.1258 3.65787C10.2909 4.86227 10.5971 6.04484 11.0386 7.18302C11.2141 7.63204 11.252 8.12003 11.148 8.58917C11.044 9.05831 10.8024 9.48893 10.4518 9.83002L8.79567 11.4232C10.652 14.5639 13.3552 17.1644 16.6199 18.9503L18.276 17.357C18.6306 17.0197 19.0782 16.7873 19.5659 16.6872C20.0535 16.5872 20.5608 16.6237 21.0275 16.7925C22.2106 17.2172 23.4399 17.5118 24.6919 17.6707C25.3253 17.7566 25.9038 18.0636 26.3174 18.5331C26.7309 19.0027 26.9507 19.6021 26.9348 20.2173Z" stroke="white" stroke-width="2" stroke-linecap="round" stroke-linejoin="round"/>
</svg>
