<svg width="21" height="21" viewBox="0 0 21 21" fill="none" xmlns="http://www.w3.org/2000/svg">
<path id="Vector" d="M19.3817 0.502048C19.1347 0.522054 18.8922 0.586565 18.6638 0.693064H18.6607C18.4414 0.789857 17.3989 1.27811 15.8139 2.01819L10.1342 4.68128C6.0586 6.59145 2.05229 8.47249 2.05229 8.47249L2.1 8.45193C2.1 8.45193 1.82378 8.55301 1.53525 8.77315C1.357 8.89942 1.20362 9.06465 1.08438 9.25882C0.942808 9.4901 0.828936 9.84386 0.871253 10.2096C0.9405 10.8281 1.30058 11.199 1.5591 11.4037C1.8207 11.611 2.06999 11.7078 2.06999 11.7078H2.07615L5.83316 13.1168C6.00166 13.719 6.97804 17.2926 7.21271 18.1158C7.3512 18.6075 7.48585 18.915 7.65435 19.1497C7.73591 19.2696 7.83131 19.3698 7.94596 19.4504C8.00555 19.489 8.0691 19.5194 8.13523 19.5412L8.09676 19.5309C8.1083 19.5343 8.11753 19.5446 8.126 19.548C8.15677 19.5574 8.17755 19.5609 8.21679 19.5677C8.81154 19.7682 9.28934 19.357 9.28934 19.357L9.31627 19.333L11.5345 17.0845L15.2522 20.2598L15.3369 20.3001C16.1117 20.6787 16.8965 20.468 17.3112 20.0962C17.729 19.7219 17.8913 19.2431 17.8913 19.2431L17.9182 19.166L20.7912 2.78054C20.8728 2.37624 20.8935 1.99763 20.8035 1.63016C20.7107 1.25825 20.4964 0.938394 20.2026 0.733323C19.956 0.566389 19.6699 0.485814 19.3817 0.502048ZM19.3039 2.25803C19.3009 2.31199 19.3101 2.306 19.2886 2.40964V2.41906L16.4425 18.634C16.4302 18.6572 16.4094 18.7077 16.3525 18.7583C16.2925 18.8114 16.2448 18.8448 15.9947 18.7343L11.4475 14.8531L8.70074 17.6404L9.2778 13.5374L16.7072 5.82824C17.0134 5.5113 16.9111 5.44449 16.9111 5.44449C16.9326 5.05561 16.4487 5.33057 16.4487 5.33057L7.08037 11.7917L7.07729 11.7746L2.58703 10.0914V10.088L2.57549 10.0854C2.58336 10.0825 2.59107 10.0791 2.59857 10.0751L2.62319 10.0614L2.64705 10.052C2.64705 10.052 6.65643 8.17097 10.732 6.26081C12.7724 5.30401 14.8283 4.34036 16.4094 3.59686C17.3472 3.15744 18.2858 2.72058 19.2255 2.2863C19.2886 2.25888 19.2586 2.25803 19.3039 2.25803Z" fill="white"/>
</svg>
