<svg width="40" height="34" viewBox="0 0 40 34" fill="none" xmlns="http://www.w3.org/2000/svg">
<path d="M15.377 31.3984C14.1953 31.3984 14.3027 30.9688 13.9805 29.8945L10.543 18.6152L36.8613 3.14648" fill="#C8DAEA"/>
<path d="M15.377 31.3984C16.1289 31.3984 16.5586 30.9688 17.0957 30.5391L21.9297 25.9199L15.9141 22.2676" fill="#A9C9DD"/>
<path d="M15.9141 22.2676L30.416 32.9023C31.9199 33.8691 33.209 33.332 33.6387 31.3984L39.5469 3.68359C40.084 1.32031 38.5801 0.246092 36.9688 0.998045L2.48633 14.3184C0.230475 15.1777 0.230475 16.5742 2.05665 17.1113L10.9727 19.9043L31.3828 6.90625C32.3496 6.36914 33.209 6.58398 32.5645 7.33594" fill="#F6FBFE"/>
</svg>
