<svg width="28" height="17" viewBox="0 0 28 17" fill="none" xmlns="http://www.w3.org/2000/svg">
<path id="Vector" fill-rule="evenodd" clip-rule="evenodd" d="M27.6477 13.8381C27.0184 12.5867 26.1892 11.4435 25.1919 10.4524C24.8583 10.0801 24.509 9.72188 24.145 9.37861L24.101 9.33634C23.9658 9.20672 23.8324 9.07534 23.7008 8.94225C25.0641 7.07013 26.2308 5.06571 27.1827 2.96005L27.2209 2.87552L27.2475 2.78642C27.3736 2.37177 27.517 1.58358 27.008 0.870789C26.4805 0.135151 25.6372 0.00264431 25.0715 0.00264431H22.4722C21.928 -0.0218475 21.3898 0.124297 20.9348 0.420163C20.4798 0.716029 20.1312 1.14645 19.9389 1.64983C19.3795 2.96535 18.6791 4.21796 17.8497 5.38628V2.37862C17.8497 1.99024 17.8127 1.33913 17.3905 0.790828C16.8861 0.132866 16.1562 0.00264431 15.6495 0.00264431H11.5244C10.9861 -0.00958588 10.4637 0.183083 10.0653 0.540751C9.66694 0.898419 9.42312 1.39369 9.38436 1.92399L9.38089 1.97539V2.02679C9.38089 2.58081 9.60299 2.98975 9.78113 3.24676C9.86095 3.36214 9.9454 3.46723 9.99977 3.53348L10.0113 3.54833C10.0692 3.61915 10.1073 3.66599 10.1455 3.71853C10.2473 3.85332 10.3919 4.0635 10.4336 4.60495V6.28755C9.6055 4.91831 8.92654 3.46636 8.40803 1.95597L8.39877 1.93084L8.38952 1.90685C8.24839 1.54246 8.02282 1.01243 7.57051 0.608061C7.04302 0.134009 6.41835 0.00264431 5.85037 0.00264431H3.2129C2.63797 0.00264431 1.94506 0.135151 1.42797 0.673172C0.920144 1.2032 0.862305 1.83831 0.862305 2.17415V2.32722L0.894695 2.47571C1.62498 5.82352 3.12988 8.95905 5.29164 11.6369C6.27997 13.1759 7.62174 14.4633 9.20812 15.3945C10.7945 16.3257 12.5808 16.8746 14.4222 16.9966L14.4696 17H14.5182C15.358 17 16.2337 16.928 16.8919 16.4951C17.7792 15.9103 17.8497 15.0136 17.8497 14.5658V13.2658C18.0776 13.4486 18.3599 13.6931 18.7057 14.022C19.1245 14.4355 19.4577 14.7942 19.7434 15.1072L19.8961 15.274C20.1182 15.5184 20.3368 15.7595 20.5358 15.9571C20.7856 16.205 21.0945 16.478 21.4809 16.6802C21.9008 16.8983 22.3415 16.9977 22.8089 16.9977H25.4475C26.0039 16.9977 26.8009 16.8675 27.362 16.2255C27.9728 15.5264 27.9265 14.6686 27.7345 14.0529L27.6998 13.9421L27.6477 13.8381ZM21.0309 13.9592C20.6724 13.5635 20.3032 13.1772 19.9238 12.8009L19.9204 12.7975C18.3506 11.3034 17.6184 11.0441 17.1001 11.0441C16.8237 11.0441 16.5194 11.0738 16.3216 11.3182C16.2325 11.4348 16.1741 11.5714 16.1516 11.7157C16.1237 11.8833 16.1113 12.0531 16.1145 12.2229V14.5658C16.1145 14.8571 16.066 14.9793 15.9295 15.0684C15.7478 15.1883 15.3603 15.2854 14.5286 15.2854C12.9487 15.1793 11.4168 14.7043 10.059 13.8997C8.70113 13.095 7.55608 11.9836 6.71796 10.6568L6.70871 10.642L6.69714 10.6283C4.68331 8.1531 3.27981 5.24948 2.59749 2.14673C2.60211 1.99823 2.6345 1.90799 2.68771 1.85316C2.74208 1.79605 2.87511 1.71609 3.2129 1.71609H5.85037C6.14304 1.71609 6.29573 1.78006 6.40563 1.87715C6.52825 1.9891 6.63699 2.17758 6.76655 2.51341C7.41435 4.39363 8.28888 6.15276 9.11829 7.4447C9.53242 8.09124 9.93961 8.62926 10.3075 9.00964C10.4914 9.19927 10.6707 9.3569 10.8431 9.46885C11.0085 9.57622 11.197 9.66189 11.3914 9.66189C11.4932 9.66189 11.6123 9.65047 11.7268 9.60135C11.8505 9.54741 11.9523 9.45411 12.016 9.33634C12.1352 9.12159 12.1687 8.80517 12.1687 8.39052V4.53756C12.1074 3.60316 11.8217 3.07656 11.5441 2.70303C11.4879 2.62832 11.43 2.55481 11.3706 2.48257L11.3555 2.46429C11.3062 2.40513 11.2591 2.34416 11.2144 2.28152C11.1574 2.21167 11.1232 2.12647 11.1161 2.03707C11.1251 1.9463 11.169 1.86239 11.2387 1.80251C11.3084 1.74262 11.3986 1.7113 11.4909 1.71495H15.6495C15.8878 1.71495 15.9676 1.77206 16.0081 1.82575C16.066 1.9 16.1145 2.05421 16.1145 2.37862V7.55093C16.1145 8.16549 16.4014 8.58128 16.8179 8.58128C17.2968 8.58128 17.6427 8.29457 18.2465 7.69829L18.2569 7.68687L18.2662 7.67659C19.6207 6.04571 20.7275 4.22865 21.5514 2.28267L21.5561 2.26896C21.618 2.09703 21.7352 1.94982 21.8897 1.84979C22.0443 1.74976 22.2277 1.7024 22.4121 1.71495H25.0727C25.4336 1.71495 25.5516 1.80633 25.5909 1.86002C25.6314 1.91713 25.6604 2.03936 25.5909 2.27924C24.6407 4.3769 23.4661 6.3682 22.087 8.21918L22.0778 8.23288C21.9448 8.43507 21.7978 8.65896 21.777 8.91483C21.7539 9.19127 21.8742 9.44143 22.0859 9.71101C22.2397 9.9349 22.5578 10.2422 22.8806 10.554L22.9107 10.5837C23.2484 10.9104 23.6152 11.2645 23.909 11.6072L23.9171 11.6152L23.9252 11.6244C24.8013 12.4873 25.5299 13.485 26.0826 14.5783C26.1705 14.8753 26.1173 15.0284 26.0479 15.1072C25.9681 15.1986 25.7888 15.2843 25.4487 15.2843H22.8089C22.629 15.2886 22.4509 15.2473 22.2918 15.1643C22.0967 15.0523 21.9197 14.9122 21.7666 14.7485C21.6012 14.5852 21.4219 14.3876 21.2021 14.1465L21.032 13.9592H21.0309Z" fill="white"/>
</svg>
