<svg width="39" height="24" viewBox="0 0 39 24" fill="none" xmlns="http://www.w3.org/2000/svg">
<path d="M38.1516 2.18906C38.2234 1.95313 38.2578 1.73438 38.2484 1.53906C38.225 0.973438 37.8359 0.5625 36.9203 0.5625H32.8297C31.7969 0.5625 31.3203 1.1875 31.0422 1.81406C31.0422 1.81406 28.4922 7.0625 25.5531 10.5234C24.6 11.525 24.1156 11.5 23.6 11.5C23.3234 11.5 22.625 11.1656 22.625 10.2484V2.14687C22.625 1.0625 22.3547 0.5625 21.4812 0.5625H14.2172C13.5812 0.5625 13.25 1.0625 13.25 1.56406C13.25 2.60625 14.6531 2.85625 14.8125 5.77656V11.4375C14.8125 12.8125 14.5734 13.0625 14.0578 13.0625C12.6672 13.0625 9.92969 8.375 8.09687 2.23125C7.7 1.02188 7.30312 0.5625 6.27031 0.5625H2.14063C0.948438 0.5625 0.75 1.14688 0.75 1.77188C0.75 2.89844 1.6875 8.98906 6.80469 15.9922C10.5156 21.0703 15.4047 24 19.7328 24C22.3547 24 22.6234 23.3328 22.6234 22.2906V17.6469C22.625 16.3953 22.9109 16.1875 23.7453 16.1875C24.3406 16.1875 25.5547 16.5781 27.8984 19.3125C30.6016 22.4656 31.0922 24 32.6422 24H36.7328C37.6828 24 38.2281 23.6016 38.25 22.8281C38.2547 22.6313 38.2266 22.4109 38.1625 22.1656C37.8594 21.2656 36.4687 19.0656 34.7344 16.9688C33.7734 15.8078 32.825 14.6578 32.3891 14.0328C32.0969 13.625 31.9859 13.3375 32 13.0625C32.0141 12.7734 32.1641 12.4984 32.3891 12.1141C32.3484 12.1141 37.6359 4.69063 38.1516 2.18906Z" fill="white"/>
</svg>
