<svg width="25" height="24" fill="none" xmlns="http://www.w3.org/2000/svg"><path d="M18.202 5.46a1.2 1.2 0 100 2.4 1.2 1.2 0 000-2.4zm4.6 2.42a7.588 7.588 0 00-.46-2.43 4.94 4.94 0 00-1.16-1.77 4.7 4.7 0 00-1.77-1.15 7.3 7.3 0 00-2.43-.47c-1.06-.06-1.4-.06-4.12-.06s-3.06 0-4.12.06a7.3 7.3 0 00-2.43.47 4.78 4.78 0 00-1.77 1.15 4.7 4.7 0 00-1.15 1.77 7.3 7.3 0 00-.47 2.43c-.06 1.06-.06 1.4-.06 4.12s0 3.06.06 4.12a7.3 7.3 0 00.47 2.43 4.7 4.7 0 001.15 1.77 4.78 4.78 0 001.77 1.15 7.3 7.3 0 002.43.47c1.06.06 1.4.06 4.12.06s3.06 0 4.12-.06a7.3 7.3 0 002.43-.47 4.7 4.7 0 001.77-1.15 4.85 4.85 0 001.16-1.77c.286-.78.44-1.6.46-2.43 0-1.06.06-1.4.06-4.12s0-3.06-.06-4.12zm-1.8 8.12a5.61 5.61 0 01-.34 1.86 3.06 3.06 0 01-.75 1.15 3.19 3.19 0 01-1.15.75 5.61 5.61 0 01-1.86.34c-1 .05-1.37.06-4 .06s-3 0-4-.06a5.73 5.73 0 01-1.94-.3 3.27 3.27 0 01-1.1-.75 3 3 0 01-.74-1.15 5.54 5.54 0 01-.4-1.9c0-1-.06-1.37-.06-4s0-3 .06-4a5.54 5.54 0 01.35-1.9 3 3 0 01.79-1.1 3.14 3.14 0 011.1-.8 5.73 5.73 0 011.9-.34c1 0 1.37-.06 4-.06s3 0 4 .06a5.61 5.61 0 011.86.34 3.06 3.06 0 011.19.8c.328.307.584.683.75 1.1.223.609.338 1.252.34 1.9.05 1 .06 1.37.06 4s-.01 3-.06 4zm-8.14-9.13a5.13 5.13 0 105.14 5.13 5.12 5.12 0 00-5.14-5.13zm0 8.46a3.33 3.33 0 110-6.66 3.33 3.33 0 010 6.66z" fill="#4D4D4D"/></svg>