<svg width="41" height="41" fill="none" xmlns="http://www.w3.org/2000/svg"><path d="M34.281 9.672a2.953 2.953 0 11-5.906 0 2.953 2.953 0 015.906 0z" fill="#fff"/><path fill-rule="evenodd" clip-rule="evenodd" d="M20.5 30.344c5.436 0 9.844-4.408 9.844-9.844 0-5.437-4.408-9.844-9.844-9.844-5.437 0-9.844 4.407-9.844 9.844 0 5.436 4.407 9.844 9.844 9.844zm0-3.938a5.906 5.906 0 100-11.812 5.906 5.906 0 000 11.812z" fill="#fff"/><path fill-rule="evenodd" clip-rule="evenodd" d="M.813 19.712c0-6.615 0-9.923 1.287-12.45A11.812 11.812 0 017.262 2.1C9.79.812 13.097.812 19.712.812h1.576c6.615 0 9.923 0 12.45 1.288A11.812 11.812 0 0138.9 7.262c1.288 2.527 1.288 5.835 1.288 12.45v1.576c0 6.615 0 9.923-1.288 12.45a11.81 11.81 0 01-5.162 5.162c-2.527 1.288-5.835 1.288-12.45 1.288h-1.576c-6.615 0-9.923 0-12.45-1.288A11.812 11.812 0 012.1 33.738C.812 31.21.812 27.903.812 21.288v-1.576zm18.9-14.962h1.575c3.372 0 5.665.003 7.437.148 1.727.14 2.61.397 3.225.71a7.876 7.876 0 013.442 3.442c.313.616.57 1.498.71 3.225.145 1.772.148 4.065.148 7.437v1.576c0 3.372-.003 5.665-.148 7.437-.14 1.727-.397 2.61-.71 3.225a7.876 7.876 0 01-3.442 3.442c-.616.313-1.498.57-3.225.71-1.772.145-4.065.148-7.438.148h-1.575c-3.372 0-5.665-.003-7.437-.148-1.727-.14-2.61-.397-3.225-.71a7.876 7.876 0 01-3.442-3.442c-.313-.616-.57-1.498-.71-3.225-.145-1.772-.148-4.065-.148-7.438v-1.575c0-3.372.003-5.665.148-7.437.14-1.727.397-2.61.71-3.225A7.876 7.876 0 019.05 5.608c.616-.313 1.498-.57 3.225-.71 1.772-.145 4.065-.148 7.437-.148z" fill="#fff"/></svg>