<svg width="376" height="288" fill="none" xmlns="http://www.w3.org/2000/svg"><g filter="url(#filter0_di_140_2)"><path d="M79.245 91.096l-56.828 65.631 56.828-51.78 48.932 51.78h20.453l-69.385-65.63z" fill="#fff"/><path d="M79.245 91.096l-56.828 65.631 56.828-51.78 48.932 51.78h20.453l-69.385-65.63z" stroke="#000" stroke-width=".777"/></g><g filter="url(#filter1_di_140_2)"><path d="M256.331 75.821l-88.154 80.906 7.766 8.414 80.388-71.197 63.559 88.025 54.11-9.45-35.21-2.977-82.459-93.72z" fill="#fff"/><path d="M256.331 75.821l-88.154 80.906 7.766 8.414 80.388-71.197 63.559 88.025 54.11-9.45-35.21-2.977-82.459-93.72z" stroke="#000" stroke-width=".777"/></g><g filter="url(#filter2_di_140_2)"><path d="M153.549 1.726C132.112-6.454 44.251 56.483 3 88.975c16.009 0 46.705-2.02 41.424-10.097-6.602-10.097 103.3-67.702 109.125-68.349 5.825-.647 79.222 55.145 83.624 51.52 3.521-2.9 22.783-5.091 31.974-5.825 28.565 14.542 85.695 42.77 85.695 39.353 0-4.272-79.87-39.353-85.695-45.825-4.661-5.178-26.192 2.157-36.376 6.472-17.475-14.757-57.785-46.316-79.222-54.498z" fill="#fff"/><path d="M153.549 1.726C132.112-6.454 44.251 56.483 3 88.975c16.009 0 46.705-2.02 41.424-10.097-6.602-10.097 103.3-67.702 109.125-68.349 5.825-.647 79.222 55.145 83.624 51.52 3.521-2.9 22.783-5.091 31.974-5.825 28.565 14.542 85.695 42.77 85.695 39.353 0-4.272-79.87-39.353-85.695-45.825-4.661-5.178-26.192 2.157-36.376 6.472-17.475-14.757-57.785-46.316-79.222-54.498z" stroke="#000" stroke-width=".777"/></g><g filter="url(#filter3_di_140_2)"><path fill="#fff" d="M66.948 119.834h8.544v8.026h-8.544z"/><path stroke="#000" stroke-width=".777" d="M67.336 120.222h7.767v7.249h-7.767z"/></g><g filter="url(#filter4_di_140_2)"><path fill="#fff" d="M81.705 119.834h8.544v8.026h-8.544z"/><path stroke="#000" stroke-width=".777" d="M82.093 120.222h7.767v7.249h-7.767z"/></g><g filter="url(#filter5_di_140_2)"><path fill="#fff" d="M66.948 132.002h8.544v8.026h-8.544z"/><path stroke="#000" stroke-width=".777" d="M67.336 132.39h7.767v7.249h-7.767z"/></g><g filter="url(#filter6_di_140_2)"><path fill="#fff" d="M81.705 132.002h8.544v8.026h-8.544z"/><path stroke="#000" stroke-width=".777" d="M82.093 132.39h7.767v7.249h-7.767z"/></g><g filter="url(#filter7_di_140_2)"><path fill="#fff" d="M231.089 127.86h15.654v14.759h-15.654z"/><path stroke="#000" stroke-width=".777" d="M231.477 128.248h14.878v13.982h-14.878z"/></g><g filter="url(#filter8_di_140_2)"><path fill="#fff" d="M255.684 127.86h15.654v14.759h-15.654z"/><path stroke="#000" stroke-width=".777" d="M256.072 128.248h14.878v13.982h-14.878z"/></g><g filter="url(#filter9_di_140_2)"><path fill="#fff" d="M231.089 150.123h15.654v14.759h-15.654z"/><path stroke="#000" stroke-width=".777" d="M231.477 150.511h14.878v13.982h-14.878z"/></g><g filter="url(#filter10_di_140_2)"><path fill="#fff" d="M255.684 149.348h15.654v14.759h-15.654z"/><path stroke="#000" stroke-width=".777" d="M256.072 149.736h14.878v13.982h-14.878z"/></g><g filter="url(#filter11_d_140_2)"><path d="M24.687 254.245c.18-.026 1.206-.039 3.08-.039 3.207 0 5.568-.244 7.082-.731 1.54-.488 2.643-.937 3.31-1.347-.95.718-1.822 1.385-2.617 2.001-1.72 1.334-3.105 2.297-4.158 2.887a16.317 16.317 0 01-3.079 1.386 21.595 21.595 0 01-3.156.693c-1.591.231-3.76.346-6.505.346h-1.502l.077-.077c0-.026.18-.231.54-.616a67.99 67.99 0 011.5-1.655c.668-.744 1.553-1.848 2.656-3.31 1.104-1.463 2.297-3.349 3.58-5.659a95.814 95.814 0 003.618-7.044c1.13-2.412 2.207-4.85 3.234-7.313a453.37 453.37 0 013.156-7.39c1.103-2.49 2.22-4.992 3.349-7.506 1.129-2.541 1.976-4.53 2.54-5.967.59-1.437.924-2.335 1.001-2.694a2.61 2.61 0 01.462-.924H39.93c-4.773 0-8.481.539-11.125 1.617 3.542-3.08 6.506-5.017 8.892-5.812 2.181-.693 5.722-1.04 10.624-1.04h2.04c1.103 3.67 2.207 7.391 3.31 11.163l3.388 11.316c2.463 8.212 4.31 14.165 5.542 17.861 1.258 3.695 1.989 5.902 2.194 6.62a9.75 9.75 0 00.847 1.886c.744 1.232 1.938 1.848 3.58 1.848.898 0 1.835-.205 2.81-.616 1-.41 1.77-.783 2.31-1.116a135.73 135.73 0 00-2.464 1.886c-1.848 1.411-3.028 2.284-3.541 2.617l-1.54.924c-.513.308-1.052.59-1.617.847-3.592 1.591-6.017.988-7.275-1.809-.898-1.976-1.976-5.132-3.233-9.469-1.257-4.362-2.374-8.071-3.349-11.124-2.155 1.539-6.851 2.258-14.088 2.155H34.85c-2.9 5.8-5.723 10.226-8.468 13.28-.232.257-.462.526-.693.808-.668.77-1.001 1.142-1.001 1.117zM37.85 233.69l7.621.154c1.591 0 3.208-.051 4.85-.154-1.18-3.747-2.938-9.482-5.273-17.206-2.54 5.825-5.12 11.599-7.737 17.321.308-.077.488-.115.539-.115zm53.85-29.639l7.622-.038c4.311 0 7.505.628 9.584 1.886 2.72 1.617 4.08 4.401 4.08 8.353 0 3.695-2.13 7.095-6.39 10.2a319.83 319.83 0 01-3.425 2.425c6.184.693 10.277 3.233 12.279 7.621.718 1.54 1.077 3.195 1.077 4.966 0 1.745-.333 3.323-1 4.734-.642 1.412-1.514 2.772-2.618 4.08a28.052 28.052 0 01-3.734 3.657 38.072 38.072 0 01-4.311 3.118c-4.105 2.489-7.71 3.862-10.816 4.119-2.207.179-4.157.269-5.85.269h-8.661c1.129-1.591 1.809-2.746 2.04-3.464.359-1.078.539-2.566.539-4.465v-42.226h-8.469c4.08-3.49 6.57-5.235 7.468-5.235H91.7zm-2.117 22.864a197.25 197.25 0 016.043-.077c2.412-.025 4.157 0 5.235.077 2.566-.795 4.067-2.322 4.504-4.58.128-.796.192-1.694.192-2.695 0-7.082-4.426-10.623-13.28-10.623-.923 0-1.822.025-2.694.077v17.821zm0 19.169c0 2.951-.821 5.659-2.463 8.122h10.74c3.002 0 5.222-.41 6.659-1.232 1.437-.846 2.527-1.86 3.272-3.04.744-1.207 1.116-2.798 1.116-4.773 0-1.976-.27-3.67-.808-5.081-.539-1.412-1.271-2.605-2.194-3.58a10.759 10.759 0 00-3.272-2.348 18.726 18.726 0 00-4.042-1.347c-2.335-.539-5.337-.809-9.007-.809v14.088zm32.641-36.798c4.26-3.49 6.749-5.235 7.468-5.235h31.794c-.283.026-1.117.642-2.502 1.848-1.386 1.18-2.451 2.04-3.195 2.579-.719.539-1.309.808-1.771.808h-17.09v18.669h18.669c-.283.025-.745.32-1.386.885-.642.539-1.347 1.129-2.117 1.771-2.027 1.719-3.362 2.579-4.003 2.579h-11.163v12.548c0 2.848-.436 5.183-1.309 7.005-.333.719-.77 1.206-1.308 1.463h21.401c1.463 0 2.977-.334 4.542-1.001l2.387-1c-1.309 1.565-4.106 3.489-8.392 5.773-1.847.975-3.092 1.463-3.733 1.463h-24.558c2.309-3.131 3.464-6.197 3.464-9.2V233.19h-5.389c2.233-1.797 4.029-3.195 5.389-4.196v-19.708h-7.198zm104.12 44.92c-.307.026-1.141.642-2.501 1.848-2.644 2.258-4.312 3.387-5.004 3.387h-13.011c1.36-1.514 2.22-2.72 2.579-3.618.565-1.437.847-3.298.847-5.582V233.19h-28.638v11.316c0 2.438-.115 4.093-.346 4.966-.359 1.334-1.168 2.912-2.425 4.734h12.356c-.36.051-1.155.616-2.387 1.694-1.232 1.078-2.104 1.809-2.617 2.194-1.155.898-1.989 1.347-2.502 1.347h-13.049c1.899-1.488 3.002-3.528 3.31-6.12.103-.898.154-1.925.154-3.08v-40.955h-7.198l1.502-1.193c3.258-2.695 5.247-4.042 5.966-4.042h16.821c-.308 0-1.091.552-2.348 1.655-1.258 1.104-2.143 1.848-2.656 2.233-1.155.898-1.989 1.347-2.502 1.347h-2.079v18.669h28.638v-18.669h-7.198l1.463-1.193c3.284-2.695 5.299-4.042 6.043-4.042h16.782c-.307 0-1.09.552-2.348 1.655-1.257 1.104-2.129 1.848-2.617 2.233-1.18.898-2.027 1.347-2.54 1.347h-2.079v35.22c0 2.438-.115 4.093-.346 4.966-.36 1.385-1.155 2.963-2.387 4.734h12.317zm49.001-50.925c1.873.462 3.053.809 3.541 1.04.513.231.77.462.77.693 0 .205-.206.5-.616.885-.411.385-.924.821-1.54 1.309-.616.461-1.296.962-2.04 1.501a53.757 53.757 0 01-2.117 1.462c-1.591 1.053-2.54 1.63-2.848 1.733.025-.103.218-.296.577-.578.667-.539 1.001-.872 1.001-1.001a.377.377 0 00-.193-.346.954.954 0 00-.385-.231 2.605 2.605 0 00-.385-.192 82.218 82.218 0 00-1.462-.539c-2.027-.796-4.94-1.194-8.738-1.194-3.798 0-7.082.45-9.854 1.348-2.746.872-5.081 2.207-7.005 4.003-3.978 3.721-5.967 9.135-5.967 16.243 0 7.211 1.976 13.306 5.928 18.284 4.26 5.338 9.854 8.006 16.783 8.006 4.593 0 10.226-1.462 16.898-4.388-.206.18-.398.347-.578.501a8.329 8.329 0 01-.962.885c-7.468 5.594-15.204 8.391-23.211 8.391-6.903 0-12.42-2.604-16.551-7.814-3.824-4.85-5.735-10.867-5.735-18.052 0-3.696.538-6.813 1.616-9.354 1.104-2.566 2.387-4.85 3.849-6.851a37.545 37.545 0 014.966-5.543 41.75 41.75 0 016.043-4.542 44.392 44.392 0 016.775-3.465c4.798-1.95 9.635-2.925 14.511-2.925 2.746 0 5.055.244 6.929.731zm11.701 50.964c.18-.026 1.206-.039 3.079-.039 3.208 0 5.569-.244 7.083-.731 1.54-.488 2.643-.937 3.31-1.347-.949.718-1.822 1.385-2.617 2.001-1.72 1.334-3.105 2.297-4.157 2.887a16.323 16.323 0 01-3.08 1.386 21.57 21.57 0 01-3.156.693c-1.591.231-3.759.346-6.505.346h-1.501l.077-.077c0-.026.179-.231.539-.616a68.48 68.48 0 011.501-1.655c.667-.744 1.552-1.848 2.656-3.31 1.103-1.463 2.296-3.349 3.579-5.659a95.94 95.94 0 003.619-7.044 187.103 187.103 0 003.233-7.313 446.434 446.434 0 013.156-7.39c1.104-2.49 2.22-4.992 3.349-7.506 1.129-2.541 1.976-4.53 2.54-5.967.591-1.437.924-2.335 1.001-2.694.103-.359.257-.667.462-.924h-2.925c-4.773 0-8.481.539-11.124 1.617 3.541-3.08 6.505-5.017 8.891-5.812 2.181-.693 5.723-1.04 10.624-1.04h2.04c1.104 3.67 2.207 7.391 3.31 11.163l3.388 11.316c2.463 8.212 4.311 14.165 5.542 17.861 1.258 3.695 1.989 5.902 2.195 6.62.23.693.513 1.322.846 1.886.745 1.232 1.938 1.848 3.58 1.848.898 0 1.835-.205 2.81-.616 1.001-.41 1.771-.783 2.309-1.116-.923.693-1.744 1.321-2.463 1.886-1.848 1.411-3.028 2.284-3.541 2.617l-1.54.924c-.513.308-1.052.59-1.617.847-3.592 1.591-6.017.988-7.275-1.809-.898-1.976-1.975-5.132-3.233-9.469-1.257-4.362-2.373-8.071-3.349-11.124-2.155 1.539-6.851 2.258-14.088 2.155h-2.386c-2.9 5.8-5.723 10.226-8.468 13.28-.231.257-.462.526-.693.808-.667.77-1.001 1.142-1.001 1.117zm13.164-20.555l7.622.154c1.591 0 3.207-.051 4.85-.154-1.181-3.747-2.939-9.482-5.274-17.206a1059.483 1059.483 0 01-7.737 17.321c.308-.077.488-.115.539-.115z" fill="#fff"/><path d="M24.687 254.245l-.11-.769-.667.095v.674h.777zm10.162-.77l-.235-.741-.003.001.238.74zm3.31-1.347l.469.619-.876-1.281.407.662zm-2.617 2.001l-.476-.614v.001l.475.613zm-4.158 2.887l-.38-.677-.007.004.387.673zm-3.079 1.386l.223.744.009-.003.008-.003-.24-.738zm-3.156.693l-.11-.769h-.002l.112.769zm-8.007.346l-.549-.549-1.326 1.326h1.875v-.777zm.077-.077l.55.549.227-.227v-.322h-.777zm.54-.616l.567.53.01-.01.01-.011-.588-.509zm1.5-1.655l.57.529.009-.011-.579-.518zm6.236-8.969l-.676-.383-.003.006.68.377zm3.618-7.044l-.703-.329-.002.003.705.326zm6.39-14.703l-.71-.315-.002.003.712.312zm3.349-7.506l.708.318.002-.003-.71-.315zm2.54-5.967l-.718-.295-.005.011.723.284zm1.001-2.694l-.747-.213-.007.025-.005.025.76.163zm.462-.924l.607.485 1.009-1.262h-1.616v.777zm-14.05 1.617l-.51-.586.804 1.305-.294-.719zm8.892-5.812l-.235-.741-.01.004.245.737zm12.664-1.04l.744-.223-.167-.553h-.577v.776zm3.31 11.163l-.745.218.001.005.744-.223zm3.388 11.316l-.745.223v.001l.745-.224zm5.542 17.861l-.737.245.002.005.735-.25zm2.194 6.62l-.746.214.004.016.005.016.737-.246zm.847 1.886l-.669.396.004.006.665-.402zm6.39 1.232l-.295-.718-.007.002.302.716zm2.31-1.116l.465.621-.874-1.282.408.661zm-2.464 1.886l.471.617.009-.006-.48-.611zm-3.541 2.617l.4.666.011-.007.012-.007-.423-.652zm-3.157 1.771l.315.71.007-.003-.322-.707zm-7.275-1.809l.709-.319-.002-.003-.707.322zm-3.233-9.469l-.746.215v.001l.746-.216zm-3.349-11.124l.74-.236-.324-1.016-.867.62.451.632zm-14.088 2.155l.011-.776h-.01v.776zm-2.386 0v-.776h-.48l-.215.429.695.347zm-8.468 13.28l.577.52v-.001l-.577-.519zm-.693.808l.587.509.007-.008.007-.009-.601-.492zM37.85 233.69l.016-.777h-.016v.777zm7.621.154l-.015.776.008.001h.007v-.777zm4.85-.154l.049.775.99-.062-.298-.946-.74.233zm-5.273-17.206l.743-.225-.61-2.021-.845 1.936.712.31zm-7.737 17.321l-.706-.323-.672 1.468 1.567-.391-.189-.754zm-12.515 21.208c-.006.001.047-.004.208-.009.144-.005.342-.008.596-.012.509-.006 1.23-.009 2.165-.009v-1.554c-.938 0-1.666.004-2.184.01-.484.006-.852.015-1.005.037l.22 1.537zm2.97-.03c3.223 0 5.685-.242 7.32-.769l-.476-1.479c-1.394.449-3.653.694-6.845.694v1.554zm7.316-.768c1.55-.491 2.73-.963 3.483-1.426l-.814-1.323c-.582.358-1.609.784-3.138 1.268l.47 1.481zm2.607-2.707c-.951.72-1.826 1.389-2.624 2.007l.951 1.228c.793-.614 1.663-1.279 2.61-1.996l-.937-1.239zm-2.625 2.008c-1.709 1.326-3.059 2.261-4.06 2.823l.76 1.354c1.102-.618 2.523-1.608 4.253-2.95l-.953-1.227zm-4.068 2.827a15.47 15.47 0 01-2.932 1.32l.48 1.477a16.974 16.974 0 003.227-1.451l-.775-1.346zm-2.915 1.315c-.989.296-2.003.519-3.043.668l.22 1.537a22.36 22.36 0 003.27-.717l-.447-1.488zm-3.045.668c-1.537.223-3.663.338-6.393.338v1.554c2.76 0 4.972-.116 6.616-.355l-.223-1.537zm-6.393.338h-1.502v1.554h1.502v-1.554zm-.952 1.326l.019-.019.01-.01.01-.009.038-.039-1.099-1.098-.019.019-.01.01-.01.009a.37.37 0 00-.018.02l-.01.009-.01.01 1.099 1.098zm.304-.626a.765.765 0 01-.113.399l-.017.025c.009-.011.03-.038.073-.086.081-.093.209-.233.387-.424l-1.136-1.06c-.18.194-.322.349-.42.461a3.678 3.678 0 00-.13.155.882.882 0 00-.122.195.77.77 0 00-.075.335h1.553zm.35-.107c.324-.375.817-.919 1.483-1.636l-1.139-1.057a73.237 73.237 0 00-1.519 1.675l1.174 1.018zm1.492-1.646c.689-.768 1.59-1.892 2.697-3.361l-1.24-.935c-1.099 1.457-1.969 2.54-2.614 3.26l1.157 1.036zm2.697-3.361c1.133-1.501 2.346-3.42 3.64-5.748l-1.359-.755c-1.272 2.291-2.446 4.144-3.52 5.568l1.24.935zm3.636-5.743a96.818 96.818 0 003.647-7.101l-1.41-.652a95.212 95.212 0 01-3.589 6.987l1.352.766zm3.646-7.097a187.705 187.705 0 003.247-7.344l-1.434-.598a185.424 185.424 0 01-3.22 7.283l1.407.659zm3.247-7.344a451.008 451.008 0 013.15-7.378l-1.422-.623a456.967 456.967 0 00-3.162 7.403l1.434.598zm3.15-7.375c1.102-2.488 2.218-4.989 3.346-7.502l-1.417-.637c-1.13 2.516-2.246 5.019-3.35 7.51l1.42.629zm3.348-7.505c1.13-2.544 1.983-4.545 2.553-5.998l-1.446-.568c-.558 1.422-1.4 3.398-2.527 5.935l1.42.631zm2.549-5.987c.579-1.41.947-2.383 1.042-2.826l-1.52-.326c-.058.275-.358 1.099-.96 2.562l1.438.59zm1.029-2.776c.078-.273.189-.486.322-.652l-1.214-.97a3.377 3.377 0 00-.602 1.196l1.494.426zm-.285-1.914H39.93v1.554h2.925v-1.554zm-2.925 0c-4.815 0-8.64.542-11.418 1.675l.587 1.438c2.508-1.023 6.1-1.559 10.83-1.559v-1.554zm-10.615 2.98c3.52-3.06 6.39-4.916 8.628-5.662l-.491-1.473c-2.535.845-5.593 2.864-9.156 5.963l1.02 1.172zm8.617-5.658c2.06-.654 5.498-1.003 10.389-1.003v-1.553c-4.912 0-8.556.344-10.86 1.075l.471 1.481zm10.389-1.003h2.04v-1.553h-2.04v1.553zm1.296-.553a1556.43 1556.43 0 013.309 11.157l1.49-.436a1539.446 1539.446 0 00-3.311-11.168l-1.488.447zm3.31 11.162l.053.176a39.67 39.67 0 00.106.354l.053.177a29.766 29.766 0 01.106.354c.012.039.04.137.053.176l.052.177.053.177.053.177.053.177.053.176a39.67 39.67 0 00.106.354l.053.177a39.726 39.726 0 01.106.354c.012.039.04.137.053.176.012.04.04.138.053.177l.053.177.053.177a59.701 59.701 0 01.105.354l.053.176.053.177.053.177.053.177.053.177.053.176a39.726 39.726 0 00.106.354l.053.177.423 1.414a7590.195 7590.195 0 00.847 2.83l.423 1.414 1.489-.445-.053-.177-.053-.177a29.766 29.766 0 01-.106-.354l-.053-.176-.053-.177-.053-.177-.053-.177a39.726 39.726 0 01-.053-.177c-.012-.039-.04-.137-.053-.176a39.67 39.67 0 00-.106-.354l-.053-.177a39.726 39.726 0 01-.105-.354l-.053-.176-.053-.177-.053-.177-.053-.177a59.701 59.701 0 01-.053-.177l-.053-.176a59.701 59.701 0 00-.106-.354l-.053-.177-.053-.177a29.766 29.766 0 01-.053-.177 39.726 39.726 0 00-.159-.53l-.052-.177a39.67 39.67 0 01-.106-.354l-.424-1.414-.423-1.415-.423-1.414-.424-1.415-1.488.446zm3.388 11.317c2.463 8.212 4.314 14.175 5.55 17.882l1.473-.491c-1.228-3.683-3.072-9.627-5.536-17.838l-1.487.447zm5.551 17.887c1.26 3.705 1.984 5.889 2.183 6.584l1.493-.427c-.212-.742-.951-2.972-2.205-6.658l-1.471.501zm2.192 6.616c.247.739.551 1.419.915 2.035l1.338-.79a8.993 8.993 0 01-.779-1.736l-1.474.491zm.92 2.042c.906 1.501 2.375 2.223 4.244 2.223v-1.554c-1.416 0-2.334-.51-2.915-1.472l-1.33.803zm4.244 2.223c1.018 0 2.057-.233 3.111-.677l-.603-1.432c-.896.378-1.73.555-2.508.555v1.554zm3.105-.674c1.016-.417 1.831-.808 2.423-1.175l-.817-1.321c-.487.301-1.211.655-2.196 1.059l.59 1.437zm1.548-2.457c-.927.696-1.753 1.328-2.477 1.897l.96 1.222c.713-.56 1.529-1.186 2.45-1.876l-.933-1.243zm-2.469 1.891c-1.855 1.417-3.01 2.269-3.493 2.583l.847 1.303c.543-.354 1.75-1.247 3.59-2.652l-.944-1.234zm-3.469 2.568l-.192.116-.193.115-.192.116-.193.115-.385.231-.024.015a.298.298 0 00-.024.014l-.024.015a.298.298 0 00-.024.014.3.3 0 01-.024.014l-.024.015-.024.014-.024.015-.024.014-.024.015a.298.298 0 00-.024.014.3.3 0 01-.025.014l-.023.015a.3.3 0 01-.025.014l-.024.015-.024.014.8 1.332.192-.115.192-.116.193-.115.192-.116.024-.014.024-.015.025-.014.024-.014.024-.015.024-.014.024-.015.024-.014.024-.015.024-.014a.188.188 0 01.024-.014l.024-.015.024-.014.024-.015.024-.014.024-.015a.283.283 0 00.024-.014l.024-.015a.298.298 0 00.024-.014.3.3 0 01.025-.014l.024-.015.024-.014.024-.015a.298.298 0 00.024-.014l.024-.015a.298.298 0 00.024-.014.3.3 0 01.024-.014l.024-.015.024-.014.024-.015.024-.014.024-.015-.799-1.332zm-1.54.924a15.4 15.4 0 01-1.538.806l.643 1.414c.59-.268 1.155-.564 1.695-.888l-.8-1.332zm-1.531.803c-1.723.763-3.038.939-4.011.697-.93-.231-1.686-.879-2.241-2.115l-1.417.637c.702 1.562 1.786 2.614 3.283 2.986 1.452.361 3.145.043 5.015-.785l-.63-1.42zm-6.254-1.421c-.873-1.922-1.939-5.033-3.194-9.363l-1.492.432c1.26 4.343 2.35 7.545 3.272 9.574l1.414-.643zm-3.194-9.362c-1.258-4.367-2.377-8.083-3.355-11.145l-1.48.472c.973 3.044 2.087 6.745 3.343 11.103l1.492-.43zm-4.546-11.541c-.929.663-2.496 1.204-4.805 1.558-2.29.35-5.226.504-8.82.453l-.023 1.553c3.642.052 6.672-.103 9.078-.471 2.387-.365 4.245-.953 5.473-1.829l-.903-1.264zm-13.637 2.011h-2.385v1.553h2.386v-1.553zm-3.081.429c-2.884 5.769-5.67 10.127-8.351 13.108l1.155 1.038c2.811-3.126 5.67-7.621 8.585-13.451l-1.389-.695zm-8.35 13.107c-.24.267-.48.545-.717.836l1.202.984c.223-.273.446-.533.669-.78l-1.155-1.04zm-.703.82c-.333.384-.58.665-.742.846a8.542 8.542 0 01-.17.185c-.018.019-.015.016-.001.003l.03-.025c.01-.008.04-.032.085-.057a.758.758 0 01.415-.102.775.775 0 01.745.775H23.91a.776.776 0 00.748.777.774.774 0 00.42-.105c.078-.044.132-.094.14-.1a7.189 7.189 0 00.297-.314c.172-.191.425-.48.76-.866L25.1 252.62zm12.734-18.154l7.622.154.031-1.553-7.621-.154-.032 1.553zm7.637.155c1.608 0 3.24-.052 4.899-.156l-.097-1.55a77.487 77.487 0 01-4.802.152v1.554zm5.591-1.164c-1.179-3.742-2.936-9.474-5.27-17.198l-1.487.45c2.335 7.724 4.094 13.463 5.276 17.214l1.481-.466zm-6.726-17.283a1067.363 1067.363 0 01-7.731 17.308l1.413.646a1069.57 1069.57 0 007.742-17.333l-1.424-.621zM37.5 234.559c.151-.038.263-.064.34-.081l.076-.015h-.001a.38.38 0 01-.064.004v-1.554c-.125 0-.27.032-.336.046-.102.022-.234.054-.391.093l.377 1.507zm54.201-30.508v.777h.004l-.004-.777zm7.622-.038v-.777h-.004l.004.777zm9.584 1.886l-.402.664.005.004.397-.668zm-2.31 18.553l.453.631.005-.003-.458-.628zm-3.425 2.425l-.445-.637-1.69 1.179 2.048.23.087-.772zm12.279 7.621l-.707.323.003.006.704-.329zm.077 9.7l-.703-.332-.005.011.708.321zm-2.618 4.08l-.594-.5-.001.001.595.499zm-3.734 3.657l-.491-.601-.006.004.497.597zm-4.311 3.118l.403.664.007-.004-.41-.66zm-10.816 4.119l.063.774h.001l-.064-.774zm-14.511.269l-.634-.45-.87 1.227h1.504v-.777zm2.04-3.464l-.737-.246-.003.008.74.238zm.539-46.691h.776v-.777h-.776v.777zm-8.469 0l-.504-.59-1.599 1.367h2.103v-.777zm15.936 17.629h-.777v.802l.802-.025-.025-.777zm6.043-.077v.777h.008l-.008-.777zm5.235.077l-.055.775.146.011.139-.044-.23-.742zm4.504-4.58l.762.147.003-.012.001-.011-.766-.124zm-15.782-13.241l-.046-.776-.73.043v.733h.776zm-2.463 45.112l-.647-.431-.805 1.208h1.452v-.777zm17.398-1.232l.385.675.009-.005-.394-.67zm3.272-3.04l.657.414.004-.007-.661-.407zm-9.2-17.129l-.174.757.011.002.163-.759zm-9.007-.809v-.776h-.777v.776h.777zm2.121-27.168l7.621-.039-.007-1.553-7.622.039.008 1.553zm7.618-.039c4.264 0 7.286.628 9.182 1.774l.804-1.329c-2.261-1.368-5.629-1.998-9.986-1.998v1.553zm9.187 1.778c2.424 1.44 3.7 3.928 3.7 7.685h1.554c0-4.147-1.444-7.228-4.46-9.021l-.794 1.336zm3.7 7.685c0 3.352-1.92 6.547-6.07 9.572l.915 1.256c4.369-3.185 6.709-6.791 6.709-10.828h-1.554zm-6.065 9.569a318.052 318.052 0 01-3.418 2.419l.889 1.274a321.344 321.344 0 003.434-2.431l-.905-1.262zm-3.06 3.828c6.003.672 9.804 3.105 11.659 7.172l1.413-.645c-2.148-4.709-6.533-7.358-12.899-8.071l-.173 1.544zm11.662 7.178c.668 1.432 1.005 2.975 1.005 4.637h1.553c0-1.879-.382-3.647-1.151-5.294l-1.407.657zm1.005 4.637c0 1.644-.314 3.106-.927 4.402l1.405.664c.721-1.527 1.075-3.22 1.075-5.066h-1.553zm-.932 4.413c-.609 1.34-1.441 2.641-2.504 3.901l1.188 1.001c1.144-1.357 2.057-2.777 2.731-4.259l-1.415-.643zm-2.505 3.902a27.287 27.287 0 01-3.63 3.555l.983 1.202a28.802 28.802 0 003.837-3.758l-1.19-.999zm-3.636 3.559a37.312 37.312 0 01-4.223 3.055l.819 1.32a39.103 39.103 0 004.399-3.181l-.995-1.194zm-4.216 3.051c-4.054 2.457-7.54 3.766-10.478 4.008l.128 1.549c3.272-.271 6.997-1.708 11.155-4.229l-.805-1.328zm-10.477 4.008c-2.192.179-4.12.267-5.788.267v1.554c1.72 0 3.692-.091 5.914-.272l-.126-1.549zm-5.788.267h-8.66v1.554h8.66v-1.554zm-8.027 1.226c1.125-1.584 1.874-2.829 2.146-3.676l-1.479-.475c-.19.59-.8 1.655-1.934 3.252l1.267.899zm2.144-3.668c.397-1.192.578-2.776.578-4.71H81.34c0 1.863-.178 3.256-.5 4.219l1.475.491zm.578-4.71v-42.226H81.34v42.226h1.553zm-.776-43.003h-8.469v1.554h8.469v-1.554zm-7.964 1.367c2.033-1.739 3.654-3.029 4.868-3.88.608-.426 1.1-.732 1.479-.927.189-.098.339-.162.452-.2.12-.04.168-.041.164-.041v-1.553c-.424 0-.891.188-1.328.413-.467.241-1.022.59-1.659 1.036-1.274.894-2.938 2.221-4.985 3.972l1.01 1.18zm6.963-5.048H91.7v-1.553H81.116v1.553zm8.493 22.864c1.605-.051 3.61-.077 6.018-.077v-1.553c-2.417 0-4.44.025-6.068.077l.05 1.553zm6.026-.077c2.41-.026 4.128.001 5.172.075l.11-1.549c-1.112-.08-2.884-.105-5.298-.079l.016 1.553zm5.457.042c2.784-.863 4.536-2.583 5.036-5.175l-1.525-.294c-.372 1.924-1.623 3.258-3.971 3.986l.46 1.483zm5.04-5.198c.137-.845.203-1.786.203-2.819h-1.554c0 .969-.062 1.825-.182 2.571l1.533.248zm.203-2.819c0-3.712-1.169-6.62-3.612-8.574-2.409-1.927-5.935-2.826-10.445-2.826v1.553c4.344 0 7.458.873 9.475 2.486 1.984 1.587 3.028 3.992 3.028 7.361h1.554zm-14.056-11.4c-.939 0-1.852.026-2.74.078l.09 1.551c.857-.05 1.74-.076 2.65-.076v-1.553zm-3.472.854v17.821h1.554v-17.821h-1.554zm0 36.99c0 2.797-.775 5.355-2.333 7.691l1.293.862c1.727-2.591 2.594-5.448 2.594-8.553h-1.554zm-1.686 8.899H97.86v-1.554H87.12v1.554zm10.739 0c3.043 0 5.429-.411 7.044-1.334l-.77-1.349c-1.259.719-3.313 1.129-6.274 1.129v1.554zm7.053-1.339c1.523-.898 2.713-1.993 3.535-3.296l-1.314-.829c-.667 1.057-1.658 1.99-3.009 2.786l.788 1.339zm3.539-3.303c.844-1.368 1.232-3.115 1.232-5.18h-1.554c0 1.886-.356 3.32-1 4.365l1.322.815zm1.232-5.18c0-2.043-.279-3.836-.86-5.358l-1.451.554c.496 1.3.757 2.895.757 4.804h1.554zm-.86-5.358c-.571-1.495-1.353-2.779-2.356-3.837l-1.127 1.068c.845.892 1.525 1.995 2.032 3.323l1.451-.554zm-2.356-3.837a11.518 11.518 0 00-3.505-2.517l-.66 1.406a9.984 9.984 0 013.038 2.179l1.127-1.068zm-3.505-2.517a19.489 19.489 0 00-4.21-1.404l-.325 1.519c1.383.296 2.674.727 3.875 1.291l.66-1.406zm-4.197-1.401c-2.414-.557-5.481-.828-9.182-.828v1.553c3.638 0 6.576.268 8.832.788l.35-1.513zm-9.959-.052v14.088h1.554v-14.088h-1.554zm33.418-22.71l-.492-.601-1.681 1.378h2.173v-.777zm39.262-5.235l.07.774-.07-1.55v.776zm-2.502 1.848l.503.591.007-.005-.51-.586zm-3.195 2.579l-.456-.629-.01.007.466.622zm-18.861.808v-.777h-.777v.777h.777zm0 18.669h-.777v.776h.777v-.776zm18.669 0l.07.773-.07-1.55v.777zm-1.386.885l.499.595.007-.006.007-.006-.513-.583zm-2.117 1.771l-.497-.597-.006.004.503.593zm-15.166 2.579v-.777h-.777v.777h.777zm-1.309 19.553l-.7-.335-.004.008.704.327zm-1.308 1.463l-.334-.701.334 1.478v-.777zm25.943-1.001l-.3-.716-.005.002.305.714zm2.387-1l.595.498-.896-1.215.301.717zm-8.392 5.773l.363.687.003-.001-.366-.686zm-28.291 1.463l-.625-.461-.913 1.238h1.538v-.777zm3.464-26.251h.777v-.777h-.777v.777zm-5.389 0l-.487-.606-1.717 1.382h2.204v-.776zm5.389-4.196l.46.626.317-.233v-.393h-.777zm0-19.708h.777v-.777h-.777v.777zm-6.706.601c2.125-1.741 3.795-3.035 5.016-3.891a16.013 16.013 0 011.46-.935 3.59 3.59 0 01.42-.201c.112-.042.127-.032.08-.032v-1.553a1.81 1.81 0 00-.626.131 5.052 5.052 0 00-.617.29c-.437.238-.976.584-1.609 1.028-1.268.889-2.973 2.212-5.108 3.961l.984 1.202zm6.976-5.059h31.794v-1.553h-31.794v1.553zm31.723-1.55c-.254.023-.488.147-.631.23a6.342 6.342 0 00-.597.4 28.91 28.91 0 00-1.713 1.405l1.02 1.172a28.132 28.132 0 011.616-1.328c.197-.145.344-.243.448-.302.135-.078.111-.041-.002-.03l-.141-1.547zm-2.935 2.03c-1.382 1.177-2.428 2.02-3.147 2.541l.912 1.258c.769-.558 1.853-1.433 3.242-2.617l-1.007-1.182zm-3.157 2.548c-.692.519-1.108.653-1.305.653v1.554c.728 0 1.492-.405 2.237-.964l-.932-1.243zm-1.305.653h-17.09v1.554h17.09v-1.554zm-17.867.777v18.669h1.554v-18.669h-1.554zm.777 19.445h18.669v-1.553h-18.669v1.553zm18.598-1.55c-.334.031-.651.197-.906.36-.277.177-.586.42-.922.716l1.026 1.166c.305-.269.548-.455.733-.573.206-.132.262-.127.21-.122l-.141-1.547zm-1.815 1.064a666.18 666.18 0 01-2.114 1.769l.994 1.193a819.2 819.2 0 002.119-1.772l-.999-1.19zm-2.12 1.773c-1.002.85-1.813 1.471-2.439 1.874a5.551 5.551 0 01-.76.424 1.615 1.615 0 01-.226.082c-.057.015-.079.015-.075.015v1.553c.315 0 .633-.1.921-.225a7.13 7.13 0 00.981-.543c.709-.457 1.578-1.126 2.603-1.995l-1.005-1.185zm-3.5 2.395h-11.163v1.553h11.163v-1.553zm-11.94.777v12.548h1.554V233.19h-1.554zm0 12.548c0 2.777-.426 4.987-1.232 6.67l1.401.671c.939-1.961 1.385-4.421 1.385-7.341h-1.554zm-1.236 6.678c-.283.609-.61.932-.938 1.089l.667 1.402c.749-.356 1.295-1.008 1.68-1.837l-1.409-.654zm-.604 2.567h21.401v-1.554h-21.401v1.554zm21.401 0c1.583 0 3.2-.362 4.847-1.063l-.61-1.429c-1.484.633-2.895.938-4.237.938v1.554zm4.842-1.061l2.387-1.001-.601-1.433-2.386 1.001.6 1.433zm1.491-2.216c-1.202 1.438-3.875 3.303-8.161 5.587l.731 1.371c4.284-2.284 7.206-4.268 8.621-5.961l-1.191-.997zm-8.158 5.585c-.911.481-1.656.832-2.24 1.061-.609.238-.965.312-1.131.312v1.554c.475 0 1.061-.17 1.697-.42.66-.258 1.462-.638 2.399-1.133l-.725-1.374zm-3.371 1.373h-24.558v1.554h24.558v-1.554zm-23.933 1.238c2.379-3.225 3.616-6.449 3.616-9.661h-1.554c0 2.794-1.072 5.702-3.312 8.739l1.25.922zm3.616-9.661V233.19h-1.554v17.051h1.554zm-.777-17.828h-5.389v1.553h5.389v-1.553zm-4.902 1.382c2.229-1.794 4.015-3.184 5.362-4.175l-.92-1.252c-1.373 1.011-3.18 2.417-5.416 4.216l.974 1.211zm5.679-4.801v-19.708h-1.554v19.708h1.554zm-.777-20.485h-7.198v1.554h7.198v-1.554zm96.922 45.697l.065.774-.065-1.551v.777zm-2.501 1.848l.504.59.005-.004.006-.005-.515-.581zm-18.015 3.387l-.577-.519-1.164 1.296h1.741v-.777zm2.579-3.618l.721.288.002-.004-.723-.284zm.847-22.633h.777v-.777h-.777v.777zm-28.638 0v-.777h-.777v.777h.777zm-.346 16.282l.75.202.001-.004-.751-.198zm-2.425 4.734l-.639-.441-.841 1.218h1.48v-.777zm12.356 0l.109.769-.109-1.546v.777zm-5.004 3.888l-.466-.622-.011.009.477.613zm-15.551 1.347l-.479-.611-1.771 1.388h2.25v-.777zm3.31-6.12l.772.091v-.003l-.772-.088zm.154-44.035h.777v-.777h-.777v.777zm-7.198 0l-.483-.608-1.742 1.385h2.225v-.777zm1.502-1.193l.483.608.006-.005.005-.005-.494-.598zm17.783-.154l-.466-.622-.011.009.477.613zm-4.581 1.347v-.777h-.777v.777h.777zm0 18.669h-.777v.776h.777v-.776zm28.638 0v.776h.777v-.776h-.777zm0-18.669h.777v-.777h-.777v.777zm-7.198 0l-.491-.602-1.69 1.379h2.181v-.777zm1.463-1.193l.491.602.001-.002-.492-.6zm17.86-.154l.47.618.011-.008-.481-.61zm-4.619 1.347v-.777h-.777v.777h.777zm-.346 40.186l-.751-.199-.001.004.752.195zm-2.387 4.734l-.637-.443-.849 1.22h1.486v-.777zm12.253-.774c-.256.021-.491.14-.646.227-.182.102-.386.24-.607.403-.445.329-1.013.802-1.7 1.411l1.031 1.162a24.915 24.915 0 011.591-1.323c.196-.144.343-.241.446-.299.131-.073.116-.041.014-.033l-.129-1.548zm-2.942 2.031c-1.313 1.122-2.365 1.947-3.164 2.488a7.99 7.99 0 01-.968.578c-.267.127-.373.135-.367.135v1.554c.351 0 .714-.134 1.037-.288a9.362 9.362 0 001.169-.693c.869-.588 1.972-1.456 3.302-2.593l-1.009-1.181zm-4.499 3.201h-13.011v1.554h13.011v-1.554zm-12.433 1.296c1.369-1.524 2.309-2.815 2.722-3.849l-1.442-.577c-.305.763-1.084 1.884-2.435 3.388l1.155 1.038zm2.724-3.853c.613-1.56.901-3.527.901-5.866h-1.554c0 2.229-.276 3.984-.793 5.298l1.446.568zm.901-5.866V233.19h-1.554v17.051h1.554zm-.777-17.828h-28.638v1.553h28.638v-1.553zm-29.415.777v11.316h1.554V233.19h-1.554zm0 11.316c0 2.448-.119 4.006-.32 4.767l1.502.397c.26-.983.372-2.736.372-5.164h-1.554zm-.319 4.764c-.327 1.213-1.081 2.707-2.314 4.495l1.278.882c1.281-1.856 2.144-3.518 2.536-4.973l-1.5-.404zm-1.675 5.713h12.356v-1.554h-12.356v1.554zm12.246-1.546a1.9 1.9 0 00-.607.218 5.834 5.834 0 00-.599.38 20.83 20.83 0 00-1.582 1.28l1.023 1.169a19.709 19.709 0 011.458-1.183c.184-.13.326-.219.431-.275.118-.063.14-.057.095-.051l-.219-1.538zm-2.788 1.878c-1.233 1.079-2.085 1.792-2.572 2.157l.932 1.243c.539-.404 1.432-1.154 2.663-2.231l-1.023-1.169zm-2.583 2.166c-.56.435-1.019.743-1.383.939-.385.207-.582.244-.642.244v1.554c.453 0 .929-.188 1.378-.43.47-.253 1.005-.618 1.601-1.081l-.954-1.226zm-2.025 1.183h-13.049v1.554h13.049v-1.554zm-12.57 1.388c2.076-1.627 3.272-3.861 3.603-6.64l-1.543-.183c-.286 2.405-1.296 4.251-3.018 5.601l.958 1.222zm3.603-6.643c.107-.934.159-1.991.159-3.168h-1.553c0 1.133-.051 2.129-.149 2.992l1.543.176zm.159-3.168v-40.955h-1.553v40.955h1.553zm-.777-41.732h-7.198v1.554h7.198v-1.554zm-6.714 1.385l1.501-1.193-.967-1.216-1.501 1.193.967 1.216zm1.512-1.203c1.623-1.341 2.913-2.333 3.877-2.986.483-.328.869-.559 1.164-.706.324-.161.444-.171.431-.171v-1.553c-.373 0-.771.158-1.123.334-.382.19-.832.463-1.343.81-1.025.694-2.359 1.722-3.995 3.075l.989 1.197zm5.472-3.863h16.821v-1.553h-16.821v1.553zm16.821-1.553c-.269 0-.513.107-.671.187a4.9 4.9 0 00-.595.368c-.424.299-.958.734-1.595 1.293l1.025 1.167c.621-.545 1.107-.938 1.465-1.19.18-.127.312-.207.401-.252.115-.058.084-.02-.03-.02v-1.553zm-2.861 1.848c-1.258 1.104-2.123 1.83-2.609 2.195l.932 1.242c.54-.405 1.446-1.168 2.702-2.27l-1.025-1.167zm-2.62 2.203c-.56.435-1.019.743-1.383.939-.385.208-.582.244-.642.244v1.554c.453 0 .929-.188 1.378-.43.47-.253 1.005-.618 1.601-1.081l-.954-1.226zm-2.025 1.183h-2.079v1.554h2.079v-1.554zm-2.856.777v18.669h1.554v-18.669h-1.554zm.777 19.445h28.638v-1.553h-28.638v1.553zm29.415-.776v-18.669h-1.554v18.669h1.554zm-.777-19.446h-7.198v1.554h7.198v-1.554zm-6.707 1.379l1.463-1.193-.982-1.204-1.463 1.193.982 1.204zm1.464-1.195c1.635-1.341 2.938-2.333 3.914-2.986.489-.327.881-.558 1.182-.705.328-.161.457-.174.455-.174v-1.553c-.374 0-.776.154-1.137.331-.389.19-.846.464-1.364.81-1.038.694-2.385 1.723-4.035 3.076l.985 1.201zm5.551-3.865h16.782v-1.553h-16.782v1.553zm16.782-1.553c-.268 0-.512.107-.67.187a4.825 4.825 0 00-.595.368c-.424.299-.958.734-1.595 1.293l1.025 1.167c.621-.545 1.107-.938 1.465-1.19.18-.127.312-.207.401-.252.115-.058.084-.02-.031-.02v-1.553zm-2.86 1.848c-1.259 1.104-2.117 1.836-2.586 2.206l.962 1.22c.506-.4 1.393-1.157 2.649-2.259l-1.025-1.167zm-2.575 2.198c-.573.436-1.042.745-1.414.942-.393.208-.595.246-.656.246v1.554c.451 0 .929-.187 1.383-.427.476-.252 1.02-.617 1.627-1.079l-.94-1.236zm-2.07 1.188h-2.079v1.554h2.079v-1.554zm-2.856.777v35.22h1.554v-35.22h-1.554zm0 35.22c0 2.448-.119 4.006-.32 4.767l1.501.397c.261-.983.373-2.736.373-5.164h-1.554zm-.321 4.771c-.328 1.263-1.069 2.756-2.272 4.486l1.275.887c1.26-1.812 2.11-3.476 2.5-4.983l-1.503-.39zm-1.635 5.706h12.317v-1.554h-12.317v1.554zm61.318-51.702l-.196.752.01.003.186-.755zm3.541 1.04l-.333.702.007.003.007.003.319-.708zm-1.386 2.887l.466.621.008-.006.008-.006-.482-.609zm-4.157 2.963l-.425-.65-.003.003.428.647zm-2.848 1.733l-.754-.189-.343 1.373 1.342-.448-.245-.736zm.577-.578l.48.611.008-.007-.488-.604zm.808-1.347l-.549.549.068.068.082.049.399-.666zm-.385-.231l-.399.666.073.044.081.027.245-.737zm-1.847-.731l-.284.723.009.003.009.004.266-.73zm-18.592.154l.235.74.005-.001-.24-.739zm-7.005 4.003l-.53-.568-.001.001.531.567zm-.039 34.527l-.608.483.001.001.607-.484zm33.681 3.618l.511.585-.823-1.296.312.711zm-.578.501l-.505-.59-.037.031-.033.036.575.523zm-.962.885l.466.622.009-.008.01-.008-.485-.606zm-39.762.577l-.61.481.001.002.609-.483zm-4.119-27.406l-.713-.307-.002.004.715.303zm8.815-12.394l-.521-.576-.004.003.525.573zm6.043-4.542l.409.66.002-.001-.411-.659zm6.775-3.465l-.293-.719.293.719zm21.254-1.439c1.896.467 2.992.796 3.394.987l.665-1.404c-.573-.272-1.837-.635-3.688-1.092l-.371 1.509zm3.408.993c.107.048.191.092.256.131a.853.853 0 01.121.084c.046.042-.065-.036-.065-.23h1.553c0-.426-.239-.735-.449-.924-.214-.193-.489-.347-.778-.478l-.638 1.417zm.312-.015c0-.077.018-.122.02-.124.001-.004-.006.014-.035.055-.059.086-.17.214-.355.387l1.062 1.133a4.15 4.15 0 00.568-.633c.133-.191.293-.477.293-.818h-1.553zm-.37.318c-.39.366-.886.788-1.491 1.267l.964 1.218a25.347 25.347 0 001.589-1.352l-1.062-1.133zm-1.475 1.254c-.612.459-1.288.957-2.03 1.494l.912 1.258c.747-.541 1.43-1.044 2.05-1.509l-.932-1.243zm-2.03 1.494a53.368 53.368 0 01-2.086 1.441l.85 1.301a55.313 55.313 0 002.148-1.484l-.912-1.258zm-2.089 1.444c-.793.523-1.418.925-1.881 1.206a11.852 11.852 0 01-.726.411c-.045.021-.062.027-.059.026l.491 1.473c.254-.084.647-.306 1.101-.583a61.142 61.142 0 001.93-1.238l-.856-1.295zm-1.667 2.568a.625.625 0 01-.052.137c-.013.025-.024.039-.026.042-.004.005.005-.007.037-.04.065-.064.176-.161.345-.294l-.96-1.222c-.19.15-.355.29-.483.418-.064.064-.13.136-.189.215a1.08 1.08 0 00-.179.367l1.507.377zm.312-.162c.341-.275.616-.513.812-.709.096-.096.191-.2.268-.306.038-.053.083-.123.122-.205a.928.928 0 00.087-.385h-1.553c0-.141.043-.239.057-.269.017-.037.031-.055.028-.051-.007.01-.037.047-.108.118a9.533 9.533 0 01-.689.599l.976 1.208zm1.289-1.605c0-.417-.199-.79-.569-1.012l-.799 1.332a.386.386 0 01-.135-.144.377.377 0 01-.05-.176h1.553zm-.42-.895a1.731 1.731 0 00-.688-.419l-.491 1.474a.201.201 0 01.081.043l1.098-1.098zm-.534-.348a3.427 3.427 0 00-.496-.248l-.577 1.443c.087.034.178.08.274.137l.799-1.332zm-.496-.248a95.324 95.324 0 00-1.486-.547l-.531 1.46c.855.31 1.326.484 1.44.53l.577-1.443zm-1.468-.54c-2.161-.848-5.187-1.247-9.021-1.247v1.553c3.762 0 6.561.397 8.454 1.14l.567-1.446zm-9.021-1.247c-3.856 0-7.225.455-10.093 1.385l.479 1.478c2.674-.867 5.874-1.31 9.614-1.31v-1.553zm-10.089 1.383c-2.845.904-5.284 2.294-7.3 4.176l1.06 1.136c1.832-1.711 4.064-2.99 6.71-3.831l-.47-1.481zm-7.301 4.177c-4.179 3.909-6.212 9.556-6.212 16.81h1.553c0-6.962 1.944-12.143 5.72-15.676l-1.061-1.134zm-6.212 16.81c0 7.362 2.021 13.633 6.096 18.767l1.217-.966c-3.829-4.823-5.76-10.74-5.76-17.801h-1.553zm6.097 18.768c4.41 5.526 10.229 8.299 17.39 8.299v-1.553c-6.697 0-12.066-2.565-16.176-7.715l-1.214.969zm17.39 8.299c4.745 0 10.49-1.507 17.209-4.453l-.623-1.423c-6.625 2.905-12.145 4.323-16.586 4.323v1.553zm16.386-5.749c-.204.178-.394.343-.571.495l1.011 1.179c.182-.156.376-.324.583-.505l-1.023-1.169zm-.641.562a7.542 7.542 0 01-.872.801l.97 1.213a9.103 9.103 0 001.052-.969l-1.15-1.045zm-.853.786c-7.356 5.511-14.933 8.236-22.745 8.236v1.554c8.201 0 16.098-2.869 23.677-8.546l-.932-1.244zm-22.745 8.236c-6.676 0-11.965-2.504-15.943-7.519l-1.217.965c4.285 5.403 10.031 8.108 17.16 8.108v-1.554zm-15.941-7.518c-3.699-4.691-5.569-10.531-5.569-17.571h-1.553c0 7.329 1.953 13.524 5.902 18.533l1.22-.962zm-5.569-17.571c0-3.625.529-6.633 1.555-9.051l-1.43-.606c-1.13 2.663-1.678 5.891-1.678 9.657h1.553zm1.554-9.047c1.083-2.519 2.338-4.751 3.762-6.7l-1.254-.917c-1.501 2.054-2.812 4.39-3.935 7.003l1.427.614zm3.762-6.7a36.856 36.856 0 014.864-5.429l-1.05-1.145a38.443 38.443 0 00-5.068 5.657l1.254.917zm4.86-5.425a41.007 41.007 0 015.931-4.458l-.818-1.321a42.517 42.517 0 00-6.155 4.627l1.042 1.152zm5.933-4.459a43.564 43.564 0 016.656-3.404l-.585-1.439a45.116 45.116 0 00-6.893 3.525l.822 1.318zm6.656-3.404c4.712-1.915 9.45-2.868 14.219-2.868v-1.554c-4.982 0-9.918.997-14.804 2.983l.585 1.439zm14.219-2.868c2.705 0 4.944.24 6.733.706l.391-1.503c-1.957-.51-4.337-.757-7.124-.757v1.554zm18.63 50.918l-.11-.769-.667.095v.674h.777zm10.162-.77l-.235-.741-.003.001.238.74zm3.31-1.347l.469.619-.876-1.281.407.662zm-2.617 2.001l-.476-.614v.001l.476.613zm-4.157 2.887l-.38-.677-.008.004.388.673zm-3.08 1.386l.223.744.009-.003.008-.003-.24-.738zm-3.156.693l-.11-.769h-.002l.112.769zm-8.006.346l-.55-.549-1.325 1.326h1.875v-.777zm.077-.077l.549.549.227-.227v-.322h-.776zm.539-.616l.567.53.01-.01.009-.011-.586-.509zm1.501-1.655l.569.529.009-.011-.578-.518zm6.235-8.969l-.675-.383-.004.006.679.377zm3.619-7.044l-.704-.329-.001.003.705.326zm6.389-14.703l-.71-.315-.001.003.711.312zm3.349-7.506l.709.318.001-.003-.71-.315zm2.541-5.967l-.719-.295-.004.011.723.284zm1-2.694l-.747-.213-.007.025-.005.025.759.163zm.462-.924l.607.485 1.009-1.262h-1.616v.777zm-14.049 1.617l-.51-.586.803 1.305-.293-.719zm8.891-5.812l-.235-.741-.01.004.245.737zm12.664-1.04l.744-.223-.166-.553h-.578v.776zm3.31 11.163l-.745.218.001.005.744-.223zm3.388 11.316l-.744.223v.001l.744-.224zm5.542 17.861l-.736.245.001.005.735-.25zm2.195 6.62l-.747.214.004.016.006.016.737-.246zm.846 1.886l-.668.396.004.006.664-.402zm6.39 1.232l-.295-.718-.006.002.301.716zm2.309-1.116l.467.621-.875-1.282.408.661zm-2.463 1.886l.472.617.008-.006-.48-.611zm-3.541 2.617l.399.666.012-.007.012-.007-.423-.652zm-3.157 1.771l.315.71.007-.003-.322-.707zm-7.275-1.809l.709-.319-.001-.003-.708.322zm-3.233-9.469l-.746.215v.001l.746-.216zm-3.349-11.124l.74-.236-.324-1.016-.867.62.451.632zm-14.088 2.155l.011-.776h-.011v.776zm-2.386 0v-.776h-.48l-.215.429.695.347zm-8.468 13.28l.577.52v-.001l-.577-.519zm-.693.808l.587.509.007-.008.007-.009-.601-.492zm12.163-19.438l.016-.777h-.016v.777zm7.622.154l-.016.776.008.001h.008v-.777zm4.85-.154l.048.775.991-.062-.299-.946-.74.233zm-5.274-17.206l.744-.225-.611-2.021-.845 1.936.712.31zm-7.737 17.321l-.706-.323-.671 1.468 1.566-.391-.189-.754zm-12.515 21.208c-.006.001.047-.004.208-.009.144-.005.342-.008.596-.012.509-.006 1.23-.009 2.165-.009v-1.554c-.937 0-1.666.004-2.184.01-.483.006-.852.015-1.005.037l.22 1.537zm2.969-.03c3.224 0 5.686-.242 7.321-.769l-.476-1.479c-1.393.449-3.653.694-6.845.694v1.554zm7.317-.768c1.551-.491 2.731-.963 3.483-1.426l-.814-1.323c-.582.358-1.609.784-3.138 1.268l.469 1.481zm2.607-2.707c-.951.72-1.826 1.389-2.624 2.007l.951 1.228c.793-.614 1.663-1.279 2.611-1.996l-.938-1.239zm-2.624 2.008c-1.709 1.326-3.059 2.261-4.061 2.823l.76 1.354c1.102-.618 2.523-1.608 4.253-2.95l-.952-1.227zm-4.069 2.827a15.448 15.448 0 01-2.932 1.32l.48 1.477a16.967 16.967 0 003.227-1.451l-.775-1.346zm-2.915 1.315c-.989.296-2.003.519-3.043.668l.22 1.537a22.359 22.359 0 003.269-.717l-.446-1.488zm-3.045.668c-1.537.223-3.663.338-6.393.338v1.554c2.761 0 4.972-.116 6.617-.355l-.224-1.537zm-6.393.338h-1.501v1.554h1.501v-1.554zm-.952 1.326l.019-.019.01-.01.009-.009.039-.039-1.099-1.098-.019.019-.009.01a.09.09 0 00-.01.009l-.019.02-.01.009-.01.01 1.099 1.098zm.304-.626a.762.762 0 01-.033.223c-.013.044-.028.078-.037.099a.659.659 0 01-.043.077c-.013.021-.022.032-.017.025l.073-.086c.081-.093.209-.233.387-.424l-1.135-1.06c-.181.194-.323.349-.421.461a4.14 4.14 0 00-.13.155 1.363 1.363 0 00-.067.095.82.82 0 00-.055.1c-.009.019-.075.152-.075.335h1.553zm.349-.107c.325-.375.818-.919 1.484-1.636l-1.138-1.057a71.65 71.65 0 00-1.519 1.675l1.173 1.018zm1.493-1.646c.689-.768 1.59-1.892 2.698-3.361l-1.24-.935c-1.1 1.457-1.969 2.54-2.615 3.26l1.157 1.036zm2.698-3.361c1.132-1.501 2.345-3.42 3.638-5.748l-1.358-.755c-1.272 2.291-2.446 4.144-3.52 5.568l1.24.935zm3.635-5.743a97.1 97.1 0 003.648-7.101l-1.41-.652a95.566 95.566 0 01-3.589 6.987l1.351.766zm3.646-7.097a187.857 187.857 0 003.247-7.344l-1.434-.598a184.098 184.098 0 01-3.22 7.283l1.407.659zm3.247-7.344a453.646 453.646 0 013.151-7.378l-1.423-.623a451.714 451.714 0 00-3.162 7.403l1.434.598zm3.149-7.375c1.103-2.488 2.219-4.989 3.348-7.502l-1.418-.637a1782.296 1782.296 0 00-3.35 7.51l1.42.629zm3.349-7.505c1.13-2.544 1.983-4.545 2.553-5.998l-1.445-.568c-.559 1.422-1.4 3.398-2.528 5.935l1.42.631zm2.549-5.987c.579-1.41.947-2.383 1.042-2.826l-1.519-.326c-.059.275-.359 1.099-.96 2.562l1.437.59zm1.029-2.776c.078-.273.189-.486.322-.652l-1.213-.97a3.391 3.391 0 00-.603 1.196l1.494.426zm-.285-1.914h-2.925v1.554h2.925v-1.554zm-2.925 0c-4.815 0-8.639.542-11.418 1.675l.587 1.438c2.508-1.023 6.1-1.559 10.831-1.559v-1.554zm-10.615 2.98c3.52-3.06 6.39-4.916 8.628-5.662l-.491-1.473c-2.535.845-5.593 2.864-9.156 5.963l1.019 1.172zm8.617-5.658c2.06-.654 5.498-1.003 10.389-1.003v-1.553c-4.911 0-8.556.344-10.859 1.075l.47 1.481zm10.389-1.003h2.04v-1.553h-2.04v1.553zm1.296-.553a1556.43 1556.43 0 013.309 11.157l1.491-.436a1544.45 1544.45 0 00-3.312-11.168l-1.488.447zm3.31 11.162l.053.176.053.177.053.177.053.177.053.177.053.177.053.176.053.177.053.177.053.177.053.177.052.176.053.177.053.177.053.177.053.177.053.177.053.176.053.177.053.177.053.177.053.177.053.177.053.176.052.177.053.177.053.177.053.177.053.176.053.177.053.177.053.177.423 1.414.424 1.415.423 1.415.424 1.414 1.488-.445-.053-.177-.053-.177-.053-.177-.053-.177-.053-.176-.053-.177-.053-.177-.053-.177-.053-.177a11.761 11.761 0 00-.053-.176l-.052-.177-.053-.177-.053-.177-.053-.177-.053-.177-.053-.176-.053-.177-.053-.177-.053-.177-.053-.177-.053-.176-.053-.177a9.141 9.141 0 00-.053-.177l-.052-.177-.053-.177a9.141 9.141 0 01-.053-.177l-.053-.176-.053-.177-.053-.177-.053-.177-.053-.177-.053-.177-.423-1.414-.424-1.415-.423-1.414-.424-1.415-1.488.446zm3.388 11.317c2.463 8.212 4.314 14.175 5.55 17.882l1.473-.491c-1.227-3.683-3.072-9.627-5.535-17.838l-1.488.447zm5.551 17.887c1.261 3.705 1.984 5.889 2.183 6.584l1.493-.427c-.212-.742-.951-2.972-2.205-6.658l-1.471.501zm2.193 6.616c.246.739.55 1.419.915 2.035l1.337-.79a9.005 9.005 0 01-.779-1.736l-1.473.491zm.919 2.042c.906 1.501 2.375 2.223 4.244 2.223v-1.554c-1.416 0-2.333-.51-2.915-1.472l-1.329.803zm4.244 2.223c1.018 0 2.058-.233 3.111-.677l-.602-1.432c-.897.378-1.731.555-2.509.555v1.554zm3.105-.674c1.017-.417 1.831-.808 2.423-1.175l-.817-1.321c-.486.301-1.211.655-2.196 1.059l.59 1.437zm1.548-2.457c-.927.696-1.753 1.328-2.477 1.897l.96 1.222c.713-.56 1.529-1.186 2.45-1.876l-.933-1.243zm-2.468 1.891c-1.856 1.417-3.01 2.269-3.494 2.583l.847 1.303c.543-.354 1.75-1.247 3.59-2.652l-.943-1.234zm-3.47 2.568l-.192.116-.193.115-.192.116-.193.115-.385.231-.024.015a.298.298 0 00-.024.014l-.024.015a.298.298 0 00-.024.014.298.298 0 01-.024.014l-.024.015-.024.014-.024.015-.024.014-.024.015a.298.298 0 00-.024.014.298.298 0 01-.024.014l-.024.015a.298.298 0 01-.024.014l-.024.015-.025.014.8 1.332.192-.115.193-.116.192-.115.193-.116a.51.51 0 01.048-.029.51.51 0 01.048-.028l.024-.015.024-.014.024-.015.024-.014.024-.015.024-.014a.298.298 0 01.024-.014l.024-.015.024-.014a.504.504 0 00.024-.015l.024-.014.024-.015a.314.314 0 00.025-.014l.024-.015a.298.298 0 00.024-.014.298.298 0 01.024-.014l.024-.015.024-.014.024-.015a.298.298 0 00.024-.014l.024-.015a.298.298 0 00.024-.014.298.298 0 01.024-.014l.024-.015.024-.014.024-.015.024-.014.024-.015-.799-1.332zm-1.54.924c-.487.292-.999.561-1.538.806l.643 1.414c.59-.268 1.155-.564 1.695-.888l-.8-1.332zm-1.531.803c-1.723.763-3.038.939-4.011.697-.929-.231-1.686-.879-2.241-2.115l-1.417.637c.702 1.562 1.787 2.614 3.283 2.986 1.452.361 3.145.043 5.015-.785l-.629-1.42zm-6.253-1.421c-.874-1.922-1.939-5.033-3.195-9.363l-1.492.432c1.259 4.343 2.35 7.545 3.272 9.574l1.415-.643zm-3.195-9.362c-1.258-4.367-2.377-8.083-3.355-11.145l-1.48.472c.973 3.044 2.087 6.745 3.343 11.103l1.492-.43zm-4.546-11.541c-.928.663-2.496 1.204-4.805 1.558-2.289.35-5.226.504-8.821.453l-.022 1.553c3.642.052 6.672-.103 9.078-.471 2.387-.365 4.246-.953 5.473-1.829l-.903-1.264zm-13.637 2.011h-2.386v1.553h2.386v-1.553zm-3.081.429c-2.884 5.769-5.671 10.127-8.351 13.108l1.155 1.038c2.811-3.126 5.67-7.621 8.586-13.451l-1.39-.695zm-8.351 13.107c-.239.267-.478.545-.716.836l1.202.984c.224-.273.447-.533.669-.78l-1.155-1.04zm-.702.82c-.333.384-.58.665-.742.846a6.885 6.885 0 01-.169.185c-.019.019-.016.016-.002.003l.029-.025c.011-.008.042-.032.086-.057a.753.753 0 01.415-.102.773.773 0 01.746.775h-1.554a.78.78 0 001.05.729.796.796 0 00.119-.057c.077-.044.131-.094.138-.1.036-.031.069-.065.092-.089.052-.054.122-.131.207-.225.171-.191.425-.48.759-.866l-1.174-1.017zm12.735-18.154l7.621.154.031-1.553-7.621-.154-.031 1.553zm7.637.155c1.607 0 3.24-.052 4.898-.156l-.097-1.55a77.485 77.485 0 01-4.801.152v1.554zm5.59-1.164c-1.179-3.742-2.935-9.474-5.27-17.198l-1.487.45c2.335 7.724 4.094 13.463 5.276 17.214l1.481-.466zm-6.726-17.283a1057.89 1057.89 0 01-7.731 17.308l1.413.646a1069.57 1069.57 0 007.742-17.333l-1.424-.621zm-6.836 18.385c.15-.038.263-.064.34-.081l.075-.015h-.001a.383.383 0 01-.064.004v-1.554c-.125 0-.27.032-.336.046-.102.022-.234.054-.391.093l.377 1.507z" fill="#000"/></g><path d="M100.797 269.76v1.84h-5.94v11.482h-2.188V269.76h8.128zm13.964 6.636c0 1.111-.149 2.097-.447 2.958-.282.845-.696 1.566-1.243 2.162a5.17 5.17 0 01-1.963 1.367c-.763.299-1.616.448-2.56.448-.879 0-1.69-.149-2.436-.448a5.488 5.488 0 01-1.939-1.367c-.547-.596-.977-1.317-1.292-2.162-.298-.861-.448-1.847-.448-2.958 0-1.474.249-2.717.746-3.728.497-1.027 1.21-1.806 2.138-2.336.927-.547 2.029-.82 3.305-.82 1.21 0 2.27.273 3.181.82.928.53 1.649 1.309 2.163 2.336.53 1.011.795 2.254.795 3.728zm-10.066 0c0 1.044.133 1.956.398 2.734.282.763.712 1.351 1.292 1.765.58.414 1.318.621 2.212.621.895 0 1.632-.207 2.212-.621.58-.414 1.003-1.002 1.268-1.765.282-.778.422-1.69.422-2.734 0-1.06-.14-1.963-.422-2.709-.282-.745-.713-1.317-1.293-1.715-.563-.414-1.3-.621-2.212-.621-1.358 0-2.344.447-2.957 1.342s-.92 2.129-.92 3.703zm18.876 6.935c-1.176 0-2.228-.24-3.156-.721-.912-.48-1.632-1.226-2.163-2.237-.513-1.011-.77-2.303-.77-3.877 0-1.64.273-2.974.82-4.002.547-1.027 1.284-1.781 2.212-2.261.945-.481 2.013-.721 3.206-.721.68 0 1.334.074 1.964.224.629.132 1.143.298 1.541.497l-.671 1.814a13.1 13.1 0 00-1.392-.423 6.185 6.185 0 00-1.491-.198c-.895 0-1.633.19-2.212.571-.58.381-1.011.945-1.293 1.69-.282.746-.422 1.674-.422 2.784 0 1.06.14 1.964.422 2.709.282.746.704 1.309 1.268 1.69.563.381 1.267.572 2.112.572.729 0 1.367-.075 1.914-.224a9.268 9.268 0 001.541-.547v1.939a5.86 5.86 0 01-1.491.522c-.53.133-1.177.199-1.939.199zm15.794-11.731h-4.349v11.482h-2.163V271.6h-4.299v-1.84h10.811v1.84zm7.527-2.088c1.143 0 2.12.248 2.932.746.829.497 1.458 1.201 1.889 2.112.448.895.671 1.947.671 3.157v1.317h-9.121c.033 1.508.414 2.659 1.143 3.455.746.778 1.781 1.168 3.107 1.168.845 0 1.591-.075 2.237-.224a13.544 13.544 0 002.038-.696v1.914a9.788 9.788 0 01-2.013.646c-.663.149-1.45.224-2.362.224-1.259 0-2.377-.257-3.355-.771-.961-.513-1.715-1.276-2.262-2.286-.53-1.028-.795-2.279-.795-3.753 0-1.458.24-2.709.721-3.753.497-1.044 1.185-1.848 2.063-2.411.895-.563 1.93-.845 3.107-.845zm-.025 1.789c-1.044 0-1.873.34-2.486 1.019-.596.663-.952 1.591-1.068 2.784h6.785c0-.762-.116-1.425-.348-1.988a2.806 2.806 0 00-1.069-1.318c-.464-.331-1.069-.497-1.814-.497zm19.621 1.815c0 .828-.249 1.474-.746 1.938-.497.464-1.135.779-1.914.945v.099c.829.116 1.55.414 2.163.895.613.464.919 1.193.919 2.187 0 .564-.107 1.085-.323 1.566-.199.48-.513.895-.944 1.243-.431.348-.986.621-1.665.82-.68.182-1.5.273-2.461.273h-5.741V269.76h5.716c.945 0 1.79.108 2.535.324.762.198 1.359.546 1.79 1.043.447.481.671 1.144.671 1.989zm-1.839 6.064c0-.762-.29-1.309-.87-1.64-.58-.332-1.434-.497-2.56-.497h-3.256v4.275h3.305c1.094 0 1.931-.158 2.511-.473.58-.331.87-.886.87-1.665zm-.373-5.791c0-.63-.232-1.085-.696-1.367-.447-.298-1.185-.447-2.212-.447h-3.405v3.653h3.007c1.077 0 1.897-.149 2.461-.447.563-.298.845-.762.845-1.392zm17.402 3.007c0 1.111-.149 2.097-.447 2.958-.282.845-.696 1.566-1.243 2.162a5.166 5.166 0 01-1.964 1.367c-.762.299-1.615.448-2.56.448a6.48 6.48 0 01-2.435-.448 5.488 5.488 0 01-1.939-1.367c-.547-.596-.977-1.317-1.292-2.162-.299-.861-.448-1.847-.448-2.958 0-1.474.249-2.717.746-3.728.497-1.027 1.21-1.806 2.137-2.336.928-.547 2.03-.82 3.306-.82 1.21 0 2.27.273 3.181.82.928.53 1.649 1.309 2.163 2.336.53 1.011.795 2.254.795 3.728zm-10.066 0c0 1.044.133 1.956.398 2.734.281.763.712 1.351 1.292 1.765.58.414 1.317.621 2.212.621.895 0 1.632-.207 2.212-.621.58-.414 1.003-1.002 1.268-1.765.281-.778.422-1.69.422-2.734 0-1.06-.141-1.963-.422-2.709-.282-.745-.713-1.317-1.293-1.715-.563-.414-1.3-.621-2.212-.621-1.358 0-2.344.447-2.957 1.342s-.92 2.129-.92 3.703zm24.319-12.153c-.066.828-.273 1.524-.621 2.088-.332.563-.829.985-1.492 1.267-.662.282-1.524.423-2.584.423-1.077 0-1.947-.141-2.61-.423-.646-.282-1.118-.696-1.417-1.243-.298-.563-.48-1.267-.547-2.112h2.039c.082.895.314 1.499.695 1.814.398.298 1.028.448 1.889.448.763 0 1.359-.158 1.79-.473.447-.331.712-.928.795-1.789h2.063zm-8.724 13.645c0 .149-.008.364-.025.646 0 .265-.008.555-.024.87l-.05.87c-.017.265-.033.48-.05.646l7.133-11.16h2.685v13.322h-2.038v-8.898l.049-1.267c.017-.431.033-.754.05-.969l-7.084 11.134h-2.709V269.76h2.063v8.128zm29.261-8.128v11.483h1.939v6.462h-2.113v-4.623h-9.27v4.623h-2.088v-6.462h1.069a16.24 16.24 0 001.889-3.455 19.865 19.865 0 001.143-3.927 23.07 23.07 0 00.422-4.101h7.009zm-5.07 1.715a20.808 20.808 0 01-.522 3.505 22.987 22.987 0 01-1.094 3.43c-.43 1.093-.936 2.038-1.516 2.833h6.09v-9.768h-2.958zm21.202 4.921c0 1.111-.149 2.097-.447 2.958-.282.845-.696 1.566-1.243 2.162a5.166 5.166 0 01-1.964 1.367c-.762.299-1.615.448-2.56.448a6.48 6.48 0 01-2.435-.448 5.488 5.488 0 01-1.939-1.367c-.547-.596-.978-1.317-1.292-2.162-.299-.861-.448-1.847-.448-2.958 0-1.474.249-2.717.746-3.728.497-1.027 1.209-1.806 2.137-2.336.928-.547 2.03-.82 3.306-.82 1.209 0 2.27.273 3.181.82.928.53 1.649 1.309 2.163 2.336.53 1.011.795 2.254.795 3.728zm-10.066 0c0 1.044.133 1.956.398 2.734.281.763.712 1.351 1.292 1.765.58.414 1.317.621 2.212.621.895 0 1.632-.207 2.212-.621.58-.414 1.003-1.002 1.268-1.765.281-.778.422-1.69.422-2.734 0-1.06-.141-1.963-.422-2.709-.282-.745-.713-1.317-1.293-1.715-.563-.414-1.3-.621-2.212-.621-1.358 0-2.344.447-2.957 1.342-.614.895-.92 2.129-.92 3.703zm27.823-6.636v13.322h-1.963v-8.5c0-.348.008-.712.025-1.093l.099-1.119h-.074l-4.35 10.712h-1.839l-4.225-10.712h-.075c.033.365.05.737.05 1.119.016.381.025.77.025 1.168v8.425h-1.964V269.76h2.908l4.201 10.713 4.274-10.713h2.908z" fill="#fff"/><defs><filter id="filter0_di_140_2" x="21.088" y="90.535" width="129.553" height="68.651" filterUnits="userSpaceOnUse" color-interpolation-filters="sRGB"><feFlood flood-opacity="0" result="BackgroundImageFix"/><feColorMatrix in="SourceAlpha" values="0 0 0 0 0 0 0 0 0 0 0 0 0 0 0 0 0 0 127 0" result="hardAlpha"/><feOffset dy="1.036"/><feGaussianBlur stdDeviation=".518"/><feComposite in2="hardAlpha" operator="out"/><feColorMatrix values="0 0 0 0 0 0 0 0 0 0 0 0 0 0 0 0 0 0 0.25 0"/><feBlend in2="BackgroundImageFix" result="effect1_dropShadow_140_2"/><feBlend in="SourceGraphic" in2="effect1_dropShadow_140_2" result="shape"/><feColorMatrix in="SourceAlpha" values="0 0 0 0 0 0 0 0 0 0 0 0 0 0 0 0 0 0 127 0" result="hardAlpha"/><feOffset dy="1.036"/><feGaussianBlur stdDeviation=".518"/><feComposite in2="hardAlpha" operator="arithmetic" k2="-1" k3="1"/><feColorMatrix values="0 0 0 0 0 0 0 0 0 0 0 0 0 0 0 0 0 0 0.25 0"/><feBlend in2="shape" result="effect2_innerShadow_140_2"/></filter><filter id="filter1_di_140_2" x="166.591" y="75.267" width="208.511" height="109.198" filterUnits="userSpaceOnUse" color-interpolation-filters="sRGB"><feFlood flood-opacity="0" result="BackgroundImageFix"/><feColorMatrix in="SourceAlpha" values="0 0 0 0 0 0 0 0 0 0 0 0 0 0 0 0 0 0 127 0" result="hardAlpha"/><feOffset dy="1.036"/><feGaussianBlur stdDeviation=".518"/><feComposite in2="hardAlpha" operator="out"/><feColorMatrix values="0 0 0 0 0 0 0 0 0 0 0 0 0 0 0 0 0 0 0.25 0"/><feBlend in2="BackgroundImageFix" result="effect1_dropShadow_140_2"/><feBlend in="SourceGraphic" in2="effect1_dropShadow_140_2" result="shape"/><feColorMatrix in="SourceAlpha" values="0 0 0 0 0 0 0 0 0 0 0 0 0 0 0 0 0 0 127 0" result="hardAlpha"/><feOffset dy="1.036"/><feGaussianBlur stdDeviation=".518"/><feComposite in2="hardAlpha" operator="arithmetic" k2="-1" k3="1"/><feColorMatrix values="0 0 0 0 0 0 0 0 0 0 0 0 0 0 0 0 0 0 0.25 0"/><feBlend in2="shape" result="effect2_innerShadow_140_2"/></filter><filter id="filter2_di_140_2" x=".844" y=".612" width="355.422" height="97.709" filterUnits="userSpaceOnUse" color-interpolation-filters="sRGB"><feFlood flood-opacity="0" result="BackgroundImageFix"/><feColorMatrix in="SourceAlpha" values="0 0 0 0 0 0 0 0 0 0 0 0 0 0 0 0 0 0 127 0" result="hardAlpha"/><feOffset dy="1.036"/><feGaussianBlur stdDeviation=".518"/><feComposite in2="hardAlpha" operator="out"/><feColorMatrix values="0 0 0 0 0 0 0 0 0 0 0 0 0 0 0 0 0 0 0.25 0"/><feBlend in2="BackgroundImageFix" result="effect1_dropShadow_140_2"/><feBlend in="SourceGraphic" in2="effect1_dropShadow_140_2" result="shape"/><feColorMatrix in="SourceAlpha" values="0 0 0 0 0 0 0 0 0 0 0 0 0 0 0 0 0 0 127 0" result="hardAlpha"/><feOffset dy="1.036"/><feGaussianBlur stdDeviation=".518"/><feComposite in2="hardAlpha" operator="arithmetic" k2="-1" k3="1"/><feColorMatrix values="0 0 0 0 0 0 0 0 0 0 0 0 0 0 0 0 0 0 0.25 0"/><feBlend in2="shape" result="effect2_innerShadow_140_2"/></filter><filter id="filter3_di_140_2" x="65.912" y="119.834" width="10.615" height="10.097" filterUnits="userSpaceOnUse" color-interpolation-filters="sRGB"><feFlood flood-opacity="0" result="BackgroundImageFix"/><feColorMatrix in="SourceAlpha" values="0 0 0 0 0 0 0 0 0 0 0 0 0 0 0 0 0 0 127 0" result="hardAlpha"/><feOffset dy="1.036"/><feGaussianBlur stdDeviation=".518"/><feComposite in2="hardAlpha" operator="out"/><feColorMatrix values="0 0 0 0 0 0 0 0 0 0 0 0 0 0 0 0 0 0 0.25 0"/><feBlend in2="BackgroundImageFix" result="effect1_dropShadow_140_2"/><feBlend in="SourceGraphic" in2="effect1_dropShadow_140_2" result="shape"/><feColorMatrix in="SourceAlpha" values="0 0 0 0 0 0 0 0 0 0 0 0 0 0 0 0 0 0 127 0" result="hardAlpha"/><feOffset dy="1.036"/><feGaussianBlur stdDeviation=".518"/><feComposite in2="hardAlpha" operator="arithmetic" k2="-1" k3="1"/><feColorMatrix values="0 0 0 0 0 0 0 0 0 0 0 0 0 0 0 0 0 0 0.25 0"/><feBlend in2="shape" result="effect2_innerShadow_140_2"/></filter><filter id="filter4_di_140_2" x="80.669" y="119.834" width="10.615" height="10.097" filterUnits="userSpaceOnUse" color-interpolation-filters="sRGB"><feFlood flood-opacity="0" result="BackgroundImageFix"/><feColorMatrix in="SourceAlpha" values="0 0 0 0 0 0 0 0 0 0 0 0 0 0 0 0 0 0 127 0" result="hardAlpha"/><feOffset dy="1.036"/><feGaussianBlur stdDeviation=".518"/><feComposite in2="hardAlpha" operator="out"/><feColorMatrix values="0 0 0 0 0 0 0 0 0 0 0 0 0 0 0 0 0 0 0.25 0"/><feBlend in2="BackgroundImageFix" result="effect1_dropShadow_140_2"/><feBlend in="SourceGraphic" in2="effect1_dropShadow_140_2" result="shape"/><feColorMatrix in="SourceAlpha" values="0 0 0 0 0 0 0 0 0 0 0 0 0 0 0 0 0 0 127 0" result="hardAlpha"/><feOffset dy="1.036"/><feGaussianBlur stdDeviation=".518"/><feComposite in2="hardAlpha" operator="arithmetic" k2="-1" k3="1"/><feColorMatrix values="0 0 0 0 0 0 0 0 0 0 0 0 0 0 0 0 0 0 0.25 0"/><feBlend in2="shape" result="effect2_innerShadow_140_2"/></filter><filter id="filter5_di_140_2" x="65.912" y="132.002" width="10.615" height="10.097" filterUnits="userSpaceOnUse" color-interpolation-filters="sRGB"><feFlood flood-opacity="0" result="BackgroundImageFix"/><feColorMatrix in="SourceAlpha" values="0 0 0 0 0 0 0 0 0 0 0 0 0 0 0 0 0 0 127 0" result="hardAlpha"/><feOffset dy="1.036"/><feGaussianBlur stdDeviation=".518"/><feComposite in2="hardAlpha" operator="out"/><feColorMatrix values="0 0 0 0 0 0 0 0 0 0 0 0 0 0 0 0 0 0 0.25 0"/><feBlend in2="BackgroundImageFix" result="effect1_dropShadow_140_2"/><feBlend in="SourceGraphic" in2="effect1_dropShadow_140_2" result="shape"/><feColorMatrix in="SourceAlpha" values="0 0 0 0 0 0 0 0 0 0 0 0 0 0 0 0 0 0 127 0" result="hardAlpha"/><feOffset dy="1.036"/><feGaussianBlur stdDeviation=".518"/><feComposite in2="hardAlpha" operator="arithmetic" k2="-1" k3="1"/><feColorMatrix values="0 0 0 0 0 0 0 0 0 0 0 0 0 0 0 0 0 0 0.25 0"/><feBlend in2="shape" result="effect2_innerShadow_140_2"/></filter><filter id="filter6_di_140_2" x="80.669" y="132.002" width="10.615" height="10.097" filterUnits="userSpaceOnUse" color-interpolation-filters="sRGB"><feFlood flood-opacity="0" result="BackgroundImageFix"/><feColorMatrix in="SourceAlpha" values="0 0 0 0 0 0 0 0 0 0 0 0 0 0 0 0 0 0 127 0" result="hardAlpha"/><feOffset dy="1.036"/><feGaussianBlur stdDeviation=".518"/><feComposite in2="hardAlpha" operator="out"/><feColorMatrix values="0 0 0 0 0 0 0 0 0 0 0 0 0 0 0 0 0 0 0.25 0"/><feBlend in2="BackgroundImageFix" result="effect1_dropShadow_140_2"/><feBlend in="SourceGraphic" in2="effect1_dropShadow_140_2" result="shape"/><feColorMatrix in="SourceAlpha" values="0 0 0 0 0 0 0 0 0 0 0 0 0 0 0 0 0 0 127 0" result="hardAlpha"/><feOffset dy="1.036"/><feGaussianBlur stdDeviation=".518"/><feComposite in2="hardAlpha" operator="arithmetic" k2="-1" k3="1"/><feColorMatrix values="0 0 0 0 0 0 0 0 0 0 0 0 0 0 0 0 0 0 0.25 0"/><feBlend in2="shape" result="effect2_innerShadow_140_2"/></filter><filter id="filter7_di_140_2" x="230.053" y="127.86" width="17.726" height="16.83" filterUnits="userSpaceOnUse" color-interpolation-filters="sRGB"><feFlood flood-opacity="0" result="BackgroundImageFix"/><feColorMatrix in="SourceAlpha" values="0 0 0 0 0 0 0 0 0 0 0 0 0 0 0 0 0 0 127 0" result="hardAlpha"/><feOffset dy="1.036"/><feGaussianBlur stdDeviation=".518"/><feComposite in2="hardAlpha" operator="out"/><feColorMatrix values="0 0 0 0 0 0 0 0 0 0 0 0 0 0 0 0 0 0 0.25 0"/><feBlend in2="BackgroundImageFix" result="effect1_dropShadow_140_2"/><feBlend in="SourceGraphic" in2="effect1_dropShadow_140_2" result="shape"/><feColorMatrix in="SourceAlpha" values="0 0 0 0 0 0 0 0 0 0 0 0 0 0 0 0 0 0 127 0" result="hardAlpha"/><feOffset dy="1.036"/><feGaussianBlur stdDeviation=".518"/><feComposite in2="hardAlpha" operator="arithmetic" k2="-1" k3="1"/><feColorMatrix values="0 0 0 0 0 0 0 0 0 0 0 0 0 0 0 0 0 0 0.25 0"/><feBlend in2="shape" result="effect2_innerShadow_140_2"/></filter><filter id="filter8_di_140_2" x="254.648" y="127.86" width="17.726" height="16.83" filterUnits="userSpaceOnUse" color-interpolation-filters="sRGB"><feFlood flood-opacity="0" result="BackgroundImageFix"/><feColorMatrix in="SourceAlpha" values="0 0 0 0 0 0 0 0 0 0 0 0 0 0 0 0 0 0 127 0" result="hardAlpha"/><feOffset dy="1.036"/><feGaussianBlur stdDeviation=".518"/><feComposite in2="hardAlpha" operator="out"/><feColorMatrix values="0 0 0 0 0 0 0 0 0 0 0 0 0 0 0 0 0 0 0.25 0"/><feBlend in2="BackgroundImageFix" result="effect1_dropShadow_140_2"/><feBlend in="SourceGraphic" in2="effect1_dropShadow_140_2" result="shape"/><feColorMatrix in="SourceAlpha" values="0 0 0 0 0 0 0 0 0 0 0 0 0 0 0 0 0 0 127 0" result="hardAlpha"/><feOffset dy="1.036"/><feGaussianBlur stdDeviation=".518"/><feComposite in2="hardAlpha" operator="arithmetic" k2="-1" k3="1"/><feColorMatrix values="0 0 0 0 0 0 0 0 0 0 0 0 0 0 0 0 0 0 0.25 0"/><feBlend in2="shape" result="effect2_innerShadow_140_2"/></filter><filter id="filter9_di_140_2" x="230.053" y="150.123" width="17.726" height="16.83" filterUnits="userSpaceOnUse" color-interpolation-filters="sRGB"><feFlood flood-opacity="0" result="BackgroundImageFix"/><feColorMatrix in="SourceAlpha" values="0 0 0 0 0 0 0 0 0 0 0 0 0 0 0 0 0 0 127 0" result="hardAlpha"/><feOffset dy="1.036"/><feGaussianBlur stdDeviation=".518"/><feComposite in2="hardAlpha" operator="out"/><feColorMatrix values="0 0 0 0 0 0 0 0 0 0 0 0 0 0 0 0 0 0 0.25 0"/><feBlend in2="BackgroundImageFix" result="effect1_dropShadow_140_2"/><feBlend in="SourceGraphic" in2="effect1_dropShadow_140_2" result="shape"/><feColorMatrix in="SourceAlpha" values="0 0 0 0 0 0 0 0 0 0 0 0 0 0 0 0 0 0 127 0" result="hardAlpha"/><feOffset dy="1.036"/><feGaussianBlur stdDeviation=".518"/><feComposite in2="hardAlpha" operator="arithmetic" k2="-1" k3="1"/><feColorMatrix values="0 0 0 0 0 0 0 0 0 0 0 0 0 0 0 0 0 0 0.25 0"/><feBlend in2="shape" result="effect2_innerShadow_140_2"/></filter><filter id="filter10_di_140_2" x="254.648" y="149.348" width="17.726" height="16.83" filterUnits="userSpaceOnUse" color-interpolation-filters="sRGB"><feFlood flood-opacity="0" result="BackgroundImageFix"/><feColorMatrix in="SourceAlpha" values="0 0 0 0 0 0 0 0 0 0 0 0 0 0 0 0 0 0 127 0" result="hardAlpha"/><feOffset dy="1.036"/><feGaussianBlur stdDeviation=".518"/><feComposite in2="hardAlpha" operator="out"/><feColorMatrix values="0 0 0 0 0 0 0 0 0 0 0 0 0 0 0 0 0 0 0.25 0"/><feBlend in2="BackgroundImageFix" result="effect1_dropShadow_140_2"/><feBlend in="SourceGraphic" in2="effect1_dropShadow_140_2" result="shape"/><feColorMatrix in="SourceAlpha" values="0 0 0 0 0 0 0 0 0 0 0 0 0 0 0 0 0 0 127 0" result="hardAlpha"/><feOffset dy="1.036"/><feGaussianBlur stdDeviation=".518"/><feComposite in2="hardAlpha" operator="arithmetic" k2="-1" k3="1"/><feColorMatrix values="0 0 0 0 0 0 0 0 0 0 0 0 0 0 0 0 0 0 0.25 0"/><feBlend in2="shape" result="effect2_innerShadow_140_2"/></filter><filter id="filter11_d_140_2" x="16.107" y="202.55" width="321.63" height="61.195" filterUnits="userSpaceOnUse" color-interpolation-filters="sRGB"><feFlood flood-opacity="0" result="BackgroundImageFix"/><feColorMatrix in="SourceAlpha" values="0 0 0 0 0 0 0 0 0 0 0 0 0 0 0 0 0 0 127 0" result="hardAlpha"/><feOffset dy="1.036"/><feGaussianBlur stdDeviation=".518"/><feComposite in2="hardAlpha" operator="out"/><feColorMatrix values="0 0 0 0 0 0 0 0 0 0 0 0 0 0 0 0 0 0 0.25 0"/><feBlend in2="BackgroundImageFix" result="effect1_dropShadow_140_2"/><feBlend in="SourceGraphic" in2="effect1_dropShadow_140_2" result="shape"/></filter></defs></svg>