<svg width="25" height="43" fill="none" xmlns="http://www.w3.org/2000/svg"><path d="M12.5 22.166c5.87 0 10.645-4.775 10.645-10.64C23.145 5.65 18.371.875 12.5.875 6.63.875 1.855 5.65 1.855 11.521c0 5.87 4.774 10.645 10.645 10.645zm0-15.05a4.413 4.413 0 014.41 4.41 4.412 4.412 0 01-4.41 4.404 4.415 4.415 0 01-4.41-4.404 4.416 4.416 0 014.41-4.41zm4.308 23.735a19.93 19.93 0 006.182-2.562 3.12 3.12 0 00.977-4.302 3.118 3.118 0 00-4.302-.983c-4.361 2.744-9.974 2.74-14.335 0a3.122 3.122 0 00-3.325 5.285 19.928 19.928 0 006.182 2.562l-5.946 5.951a3.115 3.115 0 000 4.41 3.12 3.12 0 004.41 0l5.849-5.85 5.849 5.85a3.116 3.116 0 004.41 0 3.115 3.115 0 000-4.41l-5.951-5.95z" fill="#fff"/></svg>