<svg width="12" height="21" fill="none" xmlns="http://www.w3.org/2000/svg"><g fill="#fff"><path d="M4.959 14.565c-1.531-.16-2.912-.54-4.094-1.471-.147-.116-.3-.228-.432-.357-.518-.5-.57-1.074-.16-1.664.35-.506.938-.641 1.549-.35.118.055.23.126.339.2 2.203 1.525 5.23 1.567 7.44.07.22-.17.454-.308.725-.378.528-.136 1.02.059 1.303.524.325.53.32 1.05-.079 1.46-.61.634-1.347 1.09-2.163 1.41-.773.302-1.62.454-2.457.554.126.139.186.207.265.287 1.137 1.15 2.28 2.297 3.413 3.45.386.395.467.882.255 1.34-.233.5-.753.829-1.264.794-.323-.023-.575-.185-.8-.412-.858-.87-1.732-1.724-2.573-2.61-.245-.258-.363-.21-.58.015-.862.895-1.74 1.776-2.623 2.653-.396.393-.868.464-1.328.24-.488-.24-.8-.741-.775-1.246.016-.342.183-.602.416-.836 1.126-1.132 2.248-2.267 3.37-3.4.075-.076.145-.156.253-.273z"/><path d="M5.892 10.623C3.16 10.613.92 8.333.935 5.577.95 2.791 3.193.547 5.952.554c2.764.007 4.983 2.285 4.97 5.1-.015 2.75-2.27 4.978-5.03 4.969zm2.483-5.04a2.444 2.444 0 00-4.19-1.727 2.447 2.447 0 00-.702 1.758 2.443 2.443 0 002.462 2.44 2.439 2.439 0 002.43-2.47v-.001z"/></g></svg>