<svg width="25" height="26" fill="none" xmlns="http://www.w3.org/2000/svg"><path d="M24.23 16.397l-1.795.905-1.635-.827 1.9-.968c.445-.22-.479-1.639-.923-1.405l-2.826 1.436-2.274-1.155v-2.045l2.274-1.155 2.826 1.436c.444.22 1.368-1.186.924-1.405l-1.9-.968 1.635-.827 1.796.906c.32.172 1.012-.874.675-1.03l-1.119-.563 1.047-.531c.515-.265-.568-1.904-1.083-1.64l-1.049.531v-1.14c0-.327-1.368-.327-1.368 0V7.78l-1.635.827V6.67c0-.452-1.848-.452-1.848 0v2.873l-2.256 1.14-2.026-1v-2.31l2.825-1.436c.444-.22-.48-1.639-.925-1.405l-1.898.965V3.844l1.794-.91c.32-.171-.355-1.202-.675-1.03l-1.12.563V1.393c0-.53-2.167-.53-2.167 0v1.062l-1.119-.563c-.32-.172-1.012.874-.675 1.03l1.793.906v1.655l-1.902-.968c-.445-.219-1.369 1.186-.925 1.406l2.826 1.436v2.311l-2.026.999L7.12 9.512V6.67c0-.452-1.847-.452-1.847 0v1.936l-1.635-.827V5.953c0-.328-1.369-.328-1.369 0v1.14L1.22 6.561C.706 6.297-.38 7.952.137 8.2l1.048.53-1.101.563c-.32.172.355 1.203.676 1.03l1.813-.905 1.635.827-1.903.968c-.444.22.48 1.64.925 1.405l2.825-1.436 2.274 1.155v2.045l-2.274 1.155-2.828-1.435c-.444-.22-1.368 1.186-.924 1.405l1.901.968-1.635.827-1.792-.905c-.32-.172-1.012.873-.675 1.03l1.119.563-1.049.53c-.515.265.569 1.904 1.084 1.64l1.05-.53v1.14c0 .327 1.368.327 1.368 0v-1.828l1.637-.828v1.936c0 .453 1.848.453 1.848 0v-2.87l2.256-1.14 2.026 1v2.31l-2.826 1.437c-.444.22.48 1.64.924 1.405l1.902-.967v1.655l-1.814.92c-.32.173.356 1.203.676 1.031l1.119-.562v1.06c0 .532 2.167.532 2.167 0v-1.06l1.12.562c.32.172 1.011-.874.675-1.03l-1.796-.906V21.24l1.901.968c.445.22 1.369-1.186.924-1.406l-2.825-1.436v-2.31l2.026-1 2.256 1.156v2.841c0 .453 1.847.453 1.847 0v-1.936l1.635.828v1.826c0 .328 1.369.328 1.369 0v-1.138l1.048.53c.515.265 1.6-1.39 1.084-1.639l-1.048-.53 1.118-.563c.304-.173-.372-1.203-.693-1.031v-.002zm-11.728-.61l-2.399-1.202v-2.45l2.399-1.186 2.398 1.186v2.451l-2.398 1.202z" fill="#000"/></svg>