<svg width="24" height="20" fill="none" xmlns="http://www.w3.org/2000/svg"><path d="M1.016 9.05c1.378-2.03 3.064-3.654 4.95-4.768 1.887-1.114 3.93-1.692 5.997-1.697 2.068-.006 4.113.563 6.002 1.667 1.89 1.105 3.58 2.72 4.964 4.743.526.757 1.377-.37.853-1.123-1.495-2.17-3.32-3.903-5.355-5.088C16.39 1.6 14.189.99 11.963.995c-2.225.006-4.426.625-6.458 1.819C3.472 4.008 1.653 5.749.163 7.926c-.521.755.33 1.881.853 1.123z" fill="#000"/><path d="M4.587 11.436c.994-1.32 2.202-2.376 3.549-3.099a9.05 9.05 0 014.273-1.101 9.04 9.04 0 014.277 1.082c1.349.717 2.56 1.766 3.558 3.082.539.713 1.41-.35.872-1.06-1.113-1.454-2.461-2.613-3.96-3.404A10.093 10.093 0 0012.41 5.74a10.103 10.103 0 00-4.745 1.214c-1.496.798-2.841 1.962-3.95 3.42-.534.712.336 1.777.873 1.061z" fill="#000"/><path d="M8.087 16.133c.492-.833 1.091-1.499 1.76-1.955.668-.457 1.39-.694 2.121-.696.731-.002 1.454.23 2.124.683.67.452 1.27 1.115 1.764 1.945.516.86 1.345-.427.832-1.283-.604-.997-1.335-1.792-2.147-2.334-.812-.543-1.688-.822-2.573-.82-.885.003-1.76.286-2.572.833-.81.546-1.54 1.345-2.142 2.345-.511.86.32 2.146.833 1.282z" fill="#000"/><path d="M11.975 19.979c.735 0 1.33-.797 1.33-1.78s-.595-1.78-1.33-1.78c-.735 0-1.33.797-1.33 1.78s.595 1.78 1.33 1.78z" fill="#000"/></svg>