<svg width="40" height="34" fill="none" xmlns="http://www.w3.org/2000/svg"><path d="M15.377 31.398c-1.182 0-1.074-.43-1.397-1.503l-3.437-11.28L36.861 3.146" fill="#C8DAEA"/><path d="M15.377 31.398c.752 0 1.182-.43 1.719-.859l4.834-4.62-6.016-3.651" fill="#A9C9DD"/><path d="M15.914 22.268l14.502 10.634c1.504.967 2.793.43 3.223-1.504l5.908-27.714C40.084 1.32 38.58.246 36.969.998L2.486 14.318c-2.256.86-2.256 2.256-.43 2.793l8.917 2.793 20.41-12.998c.967-.537 1.826-.322 1.182.43" fill="#F6FBFE"/></svg>